%TF.GenerationSoftware,Altium Limited,Altium Designer,20.1.12 (249)*%
G04 Layer_Color=255*
%FSLAX45Y45*%
%MOMM*%
%TF.SameCoordinates,0418086A-757F-42B6-A3B9-695331E80F4B*%
%TF.FilePolarity,Positive*%
%TF.FileFunction,Pads,Bot*%
%TF.Part,Single*%
G01*
G75*
%TA.AperFunction,SMDPad,CuDef*%
%ADD12R,1.00000X0.95000*%
%ADD13R,0.95000X1.00000*%
%ADD21R,1.40000X0.95000*%
%ADD26R,0.95000X1.40000*%
%TA.AperFunction,ComponentPad*%
%ADD52C,1.40000*%
%ADD53R,1.40000X1.40000*%
%TA.AperFunction,WasherPad*%
%ADD54C,1.20000*%
%TA.AperFunction,ComponentPad*%
%ADD55C,2.50000*%
%ADD56C,1.50000*%
%ADD57R,1.50000X1.50000*%
%ADD58C,3.30000*%
%ADD59C,1.80000*%
%ADD60R,2.30000X2.30000*%
%TA.AperFunction,SMDPad,CuDef*%
%ADD66R,2.40000X1.90000*%
%ADD67R,1.75000X0.30000*%
%ADD68R,0.30000X1.75000*%
D12*
X3098500Y8837498D02*
D03*
Y8677499D02*
D03*
X3251002Y8837498D02*
D03*
Y8677499D02*
D03*
X2520000Y8870000D02*
D03*
Y8710000D02*
D03*
D13*
X2193498Y6654998D02*
D03*
X2353498D02*
D03*
Y6497498D02*
D03*
X2193498D02*
D03*
X2050999Y6340003D02*
D03*
X1891000D02*
D03*
X2050999Y6654998D02*
D03*
X1891000D02*
D03*
X1333500Y7874376D02*
D03*
X1493500D02*
D03*
X1333500Y8150001D02*
D03*
X1493500D02*
D03*
X1331001Y7389998D02*
D03*
X1491000D02*
D03*
X1333500Y8012501D02*
D03*
X1493500D02*
D03*
X3618499Y7005000D02*
D03*
X3458500D02*
D03*
X1828500Y8652500D02*
D03*
X1988500D02*
D03*
X1333500Y7240001D02*
D03*
X1493500D02*
D03*
X1828500Y8805001D02*
D03*
X1988500D02*
D03*
X2050999Y6497498D02*
D03*
X1891000D02*
D03*
X1116000Y8017500D02*
D03*
X956000D02*
D03*
X1131001Y7222500D02*
D03*
X971001D02*
D03*
D21*
X3543498Y7200001D02*
D03*
Y7400000D02*
D03*
D26*
X2943499Y8699998D02*
D03*
X2743500D02*
D03*
D52*
X412501Y7504999D02*
D03*
Y7304999D02*
D03*
Y7105000D02*
D03*
X5599999Y599999D02*
D03*
X5685003Y7712502D02*
D03*
Y7512502D02*
D03*
X4687809Y5736900D02*
D03*
X4370309Y6117900D02*
D03*
X419999Y5040000D02*
D03*
X4370309Y6371900D02*
D03*
X4687809Y5482900D02*
D03*
Y6244900D02*
D03*
X4370309Y5609900D02*
D03*
Y5863900D02*
D03*
X4687809Y5990900D02*
D03*
D53*
X412501Y7704999D02*
D03*
X5599999Y399999D02*
D03*
X5685003Y7312497D02*
D03*
X419999Y5240000D02*
D03*
D54*
X5000000Y2999999D02*
D03*
X999998D02*
D03*
X5000000Y7000001D02*
D03*
X999998D02*
D03*
D55*
X5005309Y6689400D02*
D03*
Y5165400D02*
D03*
D56*
X5627502Y8585002D02*
D03*
Y8834999D02*
D03*
Y9085001D02*
D03*
D57*
Y8335000D02*
D03*
D58*
X5322809Y5355900D02*
D03*
Y6498900D02*
D03*
D59*
X5640309Y5546400D02*
D03*
Y6562400D02*
D03*
X5830809Y5292400D02*
D03*
Y6308400D02*
D03*
D60*
X414000Y2516002D02*
D03*
Y484002D02*
D03*
Y1500002D02*
D03*
X4986000Y738002D02*
D03*
Y2262002D02*
D03*
Y1754002D02*
D03*
D66*
X960999Y7420000D02*
D03*
Y7830002D02*
D03*
D67*
X1732498Y7092498D02*
D03*
Y7142500D02*
D03*
Y7192503D02*
D03*
Y7242500D02*
D03*
Y7292503D02*
D03*
Y7392502D02*
D03*
Y7442500D02*
D03*
Y7492502D02*
D03*
Y7542500D02*
D03*
Y7642499D02*
D03*
Y7692502D02*
D03*
Y7742499D02*
D03*
Y7792502D02*
D03*
Y7842499D02*
D03*
Y7892501D02*
D03*
Y7942499D02*
D03*
Y8042499D02*
D03*
Y8192501D02*
D03*
Y8242498D02*
D03*
Y8292501D02*
D03*
X3247502D02*
D03*
Y8242498D02*
D03*
Y8192501D02*
D03*
Y8142498D02*
D03*
Y8092501D02*
D03*
Y8042499D02*
D03*
Y7992501D02*
D03*
Y7942499D02*
D03*
Y7892501D02*
D03*
Y7842499D02*
D03*
Y7792502D02*
D03*
Y7742499D02*
D03*
Y7692502D02*
D03*
Y7642499D02*
D03*
Y7592502D02*
D03*
Y7542500D02*
D03*
Y7492502D02*
D03*
Y7442500D02*
D03*
Y7392502D02*
D03*
Y7342500D02*
D03*
Y7292503D02*
D03*
Y7242500D02*
D03*
Y7192503D02*
D03*
Y7142500D02*
D03*
X1732498Y7992501D02*
D03*
Y7342500D02*
D03*
Y7592502D02*
D03*
Y8142498D02*
D03*
Y8092501D02*
D03*
X3247502Y7092498D02*
D03*
D68*
X1889999Y8450001D02*
D03*
X1940001D02*
D03*
X2040001D02*
D03*
X2089998D02*
D03*
X2140001D02*
D03*
X2189998D02*
D03*
X2240001D02*
D03*
X2289998D02*
D03*
X2340000D02*
D03*
X2390003D02*
D03*
X2440000D02*
D03*
X2490003D02*
D03*
X2540000D02*
D03*
X2590002D02*
D03*
X2640000D02*
D03*
X2690002D02*
D03*
X2740000D02*
D03*
X2790002D02*
D03*
X2839999D02*
D03*
X2890002D02*
D03*
X2939999D02*
D03*
X2990002D02*
D03*
X3039999D02*
D03*
X3090001Y6935003D02*
D03*
X3039999D02*
D03*
X2990002D02*
D03*
X2939999D02*
D03*
X2890002D02*
D03*
X2839999D02*
D03*
X2790002D02*
D03*
X2740000D02*
D03*
X2690002D02*
D03*
X2640000D02*
D03*
X2590002D02*
D03*
X2540000D02*
D03*
X2490003D02*
D03*
X2440000D02*
D03*
X2390003D02*
D03*
X2340000D02*
D03*
X2289998D02*
D03*
X2240001D02*
D03*
X2189998D02*
D03*
X2140001D02*
D03*
X2089998D02*
D03*
X2040001D02*
D03*
X1989999D02*
D03*
X1940001D02*
D03*
X1889999D02*
D03*
X1989999Y8450001D02*
D03*
X3090001D02*
D03*
%TF.MD5,93ff21373330d857a9006319a347e637*%
M02*
