%TF.GenerationSoftware,Altium Limited,Altium Designer,20.1.12 (249)*%
G04 Layer_Physical_Order=4*
G04 Layer_Color=16711680*
%FSLAX45Y45*%
%MOMM*%
%TF.SameCoordinates,0418086A-757F-42B6-A3B9-695331E80F4B*%
%TF.FilePolarity,Positive*%
%TF.FileFunction,Copper,L4,Bot,Signal*%
%TF.Part,Single*%
G01*
G75*
%TA.AperFunction,SMDPad,CuDef*%
%ADD12R,1.00000X0.95000*%
%ADD13R,0.95000X1.00000*%
%ADD21R,1.40000X0.95000*%
%ADD26R,0.95000X1.40000*%
%TA.AperFunction,Conductor*%
%ADD45C,1.00000*%
%ADD46C,0.30000*%
%ADD48C,0.20000*%
%ADD49C,0.15000*%
%TA.AperFunction,ComponentPad*%
%ADD52C,1.40000*%
%ADD53R,1.40000X1.40000*%
%TA.AperFunction,WasherPad*%
%ADD54C,1.20000*%
%TA.AperFunction,ComponentPad*%
%ADD55C,2.50000*%
%ADD56C,1.50000*%
%ADD57R,1.50000X1.50000*%
%ADD58C,3.30000*%
%ADD59C,1.80000*%
%ADD60R,2.30000X2.30000*%
%TA.AperFunction,ViaPad*%
%ADD61C,0.60000*%
%ADD62C,0.40000*%
%ADD63C,0.50000*%
%ADD64C,1.27000*%
%ADD65C,2.50000*%
%TA.AperFunction,SMDPad,CuDef*%
%ADD66R,2.40000X1.90000*%
%ADD67R,1.75000X0.30000*%
%ADD68R,0.30000X1.75000*%
G36*
X5974512Y25488D02*
X4400000D01*
Y2900000D01*
X4888021D01*
X4893421Y2893420D01*
X4916261Y2874675D01*
X4942320Y2860747D01*
X4970595Y2852170D01*
X5000000Y2849273D01*
X5029405Y2852170D01*
X5057680Y2860747D01*
X5083739Y2874675D01*
X5106579Y2893420D01*
X5111980Y2900000D01*
X5974512D01*
Y25488D01*
D02*
G37*
%LPC*%
G36*
X5121000Y2397002D02*
X4851000D01*
Y2127002D01*
X5121000D01*
Y2397002D01*
D02*
G37*
G36*
X5101000Y1869002D02*
X4998700D01*
Y1766702D01*
X5101000D01*
Y1869002D01*
D02*
G37*
G36*
X4973300D02*
X4871000D01*
Y1766702D01*
X4973300D01*
Y1869002D01*
D02*
G37*
G36*
X5101000Y1741302D02*
X4998700D01*
Y1639002D01*
X5101000D01*
Y1741302D01*
D02*
G37*
G36*
X4973300D02*
X4871000D01*
Y1639002D01*
X4973300D01*
Y1741302D01*
D02*
G37*
G36*
X5612699Y668931D02*
Y612699D01*
X5668931D01*
X5668197Y618272D01*
X5661144Y635301D01*
X5649923Y649923D01*
X5635301Y661143D01*
X5618272Y668197D01*
X5612699Y668931D01*
D02*
G37*
G36*
X5587299D02*
X5581725Y668197D01*
X5564697Y661143D01*
X5550074Y649923D01*
X5538854Y635301D01*
X5531801Y618272D01*
X5531067Y612699D01*
X5587299D01*
Y668931D01*
D02*
G37*
G36*
X5121000Y873002D02*
X4851000D01*
Y603002D01*
X5121000D01*
Y873002D01*
D02*
G37*
G36*
X5668931Y587299D02*
X5612699D01*
Y531067D01*
X5618272Y531801D01*
X5635301Y538854D01*
X5649923Y550074D01*
X5661144Y564697D01*
X5668197Y581725D01*
X5668931Y587299D01*
D02*
G37*
G36*
X5587299D02*
X5531067D01*
X5531801Y581725D01*
X5538854Y564697D01*
X5550074Y550074D01*
X5564697Y538854D01*
X5581725Y531801D01*
X5587299Y531067D01*
Y587299D01*
D02*
G37*
G36*
X5689999Y489999D02*
X5509999D01*
Y309999D01*
X5689999D01*
Y489999D01*
D02*
G37*
%LPD*%
D12*
X3098500Y8837498D02*
D03*
Y8677499D02*
D03*
X3251002Y8837498D02*
D03*
Y8677499D02*
D03*
X2520000Y8870000D02*
D03*
Y8710000D02*
D03*
D13*
X2193498Y6654998D02*
D03*
X2353498D02*
D03*
Y6497498D02*
D03*
X2193498D02*
D03*
X2050999Y6340003D02*
D03*
X1891000D02*
D03*
X2050999Y6654998D02*
D03*
X1891000D02*
D03*
X1333500Y7874376D02*
D03*
X1493500D02*
D03*
X1333500Y8150001D02*
D03*
X1493500D02*
D03*
X1331001Y7389998D02*
D03*
X1491000D02*
D03*
X1333500Y8012501D02*
D03*
X1493500D02*
D03*
X3618499Y7005000D02*
D03*
X3458500D02*
D03*
X1828500Y8652500D02*
D03*
X1988500D02*
D03*
X1333500Y7240001D02*
D03*
X1493500D02*
D03*
X1828500Y8805001D02*
D03*
X1988500D02*
D03*
X2050999Y6497498D02*
D03*
X1891000D02*
D03*
X1116000Y8017500D02*
D03*
X956000D02*
D03*
X1131001Y7222500D02*
D03*
X971001D02*
D03*
D21*
X3543498Y7200001D02*
D03*
Y7400000D02*
D03*
D26*
X2943499Y8699998D02*
D03*
X2743500D02*
D03*
D45*
X3552500Y8677499D02*
X3619998D01*
X1493500Y8150001D02*
Y8413999D01*
Y8150001D02*
Y8350001D01*
Y8413999D01*
X1692499Y6602501D02*
Y6857502D01*
X2520000Y8870000D02*
X2692502Y9042502D01*
Y9060002D01*
X1490000Y8417499D02*
X1493500Y8413999D01*
Y8012501D02*
Y8150001D01*
X1490000Y8146501D02*
X1493500Y8150001D01*
X3543498Y7400000D02*
X3545997Y7402500D01*
X3657498D01*
X3679998Y7424999D01*
X2117501Y8780003D02*
X2157486Y8819987D01*
X2117501Y8777498D02*
Y8780003D01*
X3619998Y8647501D02*
Y8677499D01*
X2252502Y6310000D02*
Y6409070D01*
Y6242502D02*
Y6310000D01*
Y6174999D02*
Y6242502D01*
X2193498Y6468074D02*
Y6497498D01*
Y6468074D02*
X2252502Y6409070D01*
X1692499Y6857502D02*
X1760002D01*
X3430001Y6869999D02*
Y6976501D01*
X3458500Y7005000D01*
X1490000Y7127499D02*
Y7236501D01*
Y7060001D02*
Y7127499D01*
Y6992498D02*
Y7060001D01*
Y7236501D02*
X1493500Y7240001D01*
X2050999Y6191001D02*
Y6340003D01*
X2049998Y6190000D02*
X2050999Y6191001D01*
X1301364Y8182138D02*
X1333500Y8150001D01*
X1185164Y8182138D02*
X1301364D01*
X1179998Y8187304D02*
X1185164Y8182138D01*
X1333500Y7148114D02*
Y7240001D01*
X1260003Y7074611D02*
X1333500Y7148114D01*
X1260003Y7067306D02*
Y7074611D01*
X1493500Y7874376D02*
Y8012501D01*
X1490172Y7243328D02*
Y7342500D01*
Y7243328D02*
X1493500Y7240001D01*
X1331001Y7242500D02*
Y7389998D01*
Y7242500D02*
X1333500Y7240001D01*
X1131001Y7222500D02*
X1315999D01*
X1333500Y7240001D01*
Y8012501D02*
Y8150001D01*
Y7874376D02*
Y8012501D01*
X1116000Y8017500D02*
X1328501D01*
X1333500Y8012501D01*
X3098500Y8837498D02*
X3251002D01*
X3056001Y8880003D02*
X3098500Y8837498D01*
X2767305Y8880003D02*
X3056001D01*
X2757307Y8870000D02*
X2767305Y8880003D01*
X2750002Y8870000D02*
X2757307D01*
X2745999Y8702497D02*
Y8857529D01*
X1828500Y8805001D02*
Y8988501D01*
X1829999Y8990000D01*
X1828500Y8652500D02*
Y8805001D01*
X2743500Y8699998D02*
X2745999Y8702497D01*
X2050999Y6340003D02*
Y6497498D01*
Y6654998D02*
X2193498D01*
X2050999Y6497498D02*
Y6654998D01*
X3618499Y7005000D02*
X3625002D01*
X3880002Y6749999D01*
X1625001Y6857502D02*
X1692499D01*
Y6602501D02*
X1797502Y6497498D01*
X1891000D01*
Y6654998D01*
X3619998Y8744996D02*
Y8745002D01*
Y8677499D02*
Y8744996D01*
X3251002Y8677499D02*
X3552500D01*
X3098500D02*
X3251002D01*
X1988500Y8652500D02*
Y8805001D01*
X2016003Y8777498D01*
X2117501D01*
D46*
X1080003Y6159998D02*
X1805000D01*
X999998Y6239998D02*
X1080003Y6159998D01*
X3247502Y7192503D02*
X3536000D01*
X3543498Y7200001D01*
D48*
X2189998Y6791355D02*
X2353498Y6627856D01*
X2939999Y6731000D02*
Y6935003D01*
Y6731000D02*
X3082239Y6588760D01*
X4475480D01*
X4617720Y6731000D01*
Y8211820D01*
X5087620Y8681720D01*
Y9507220D01*
X3660140Y9060180D02*
X4246880D01*
X4505960Y8801100D01*
Y7975600D02*
Y8801100D01*
X3982720Y7452360D02*
X4505960Y7975600D01*
X3982720Y6731000D02*
Y7452360D01*
X3891280Y6639560D02*
X3982720Y6731000D01*
X3144942Y6639560D02*
X3891280D01*
X2990002Y6794500D02*
X3144942Y6639560D01*
X2990002Y6794500D02*
Y6935003D01*
X1825351Y7487503D02*
X1932854Y7380000D01*
X2540000Y8597143D02*
X2607498Y8664646D01*
X2590414Y8567501D02*
X2607498Y8584590D01*
Y8590001D01*
X2540000Y8450001D02*
Y8597143D01*
X2607498Y8664646D02*
Y8670000D01*
X2590002Y8450001D02*
X2590414Y8450412D01*
Y8567501D01*
X1800001Y8450001D02*
X1889999D01*
X1589999Y7984998D02*
Y8079999D01*
X1493500Y8150001D02*
X1501003Y8142498D01*
X1493500Y8012501D02*
X1513500Y7992501D01*
X1732498Y7492502D02*
X1737497Y7487503D01*
X1825351D01*
X1948749Y7541250D02*
X1949999Y7540000D01*
X1741251Y7541250D02*
X1948749D01*
X1450000Y6729999D02*
Y6791249D01*
Y6729999D02*
X1460002Y6720002D01*
X1659997Y7092498D02*
X1732498D01*
X1654998Y7087499D02*
X1659997Y7092498D01*
X1654998Y6996247D02*
Y7087499D01*
X1450000Y6791249D02*
X1654998Y6996247D01*
X5632409Y6110000D02*
X5830809Y6308400D01*
X5255001Y6110000D02*
X5632409D01*
X4824999Y6540002D02*
X5255001Y6110000D01*
X3259999Y6279998D02*
X3519998Y6540002D01*
X4824999D01*
X3410001Y6039998D02*
Y6227110D01*
X3348553Y6288557D02*
X3410001Y6227110D01*
X3820003Y5630001D02*
X4129999Y5320000D01*
X4829998D01*
X3410001Y6039998D02*
X3820003Y5630001D01*
X5630809Y5555899D02*
X5640309Y5546400D01*
X5065898Y5555899D02*
X5630809D01*
X4829998Y5320000D02*
X5065898Y5555899D01*
X3480460Y6200049D02*
X3680049D01*
X3890000Y6410000D01*
X2353498Y6497498D02*
Y6627856D01*
X3860002Y8699998D02*
X4089999Y8930000D01*
X4200002D01*
X3247502Y7842499D02*
X3252500Y7847498D01*
X3340354D01*
X3860002Y8367146D01*
Y8699998D01*
X4000002Y8410001D02*
Y8699998D01*
X3382503Y7792502D02*
X4000002Y8410001D01*
X3247502Y7792502D02*
X3382503D01*
X2309998Y8257499D02*
Y8275411D01*
X2240001Y8257499D02*
Y8450001D01*
X956000Y7835001D02*
Y8017500D01*
Y7835001D02*
X960999Y7830002D01*
X1123498Y7692502D02*
X1732498D01*
X985998Y7830002D02*
X1123498Y7692502D01*
X960999Y7830002D02*
X985998D01*
X2289998Y8295416D02*
X2309998Y8275411D01*
X2289998Y8295416D02*
Y8450001D01*
X1622501Y7592502D02*
X1732498D01*
X1587144Y7557145D02*
X1622501Y7592502D01*
X1587144Y7400000D02*
Y7557145D01*
X1491000Y7389998D02*
X1501003Y7400000D01*
X1587144D01*
X1634642Y7352502D01*
X1649994D01*
X1659997Y7342500D01*
X1732498D01*
X1740002Y7540000D02*
X1741251Y7541250D01*
X1732498Y7542500D02*
X1737502D01*
X1740002Y7540000D01*
X1589999Y7890002D02*
Y7984998D01*
X1597503Y7992501D02*
X1732498D01*
X1589999Y7984998D02*
X1597503Y7992501D01*
X1602501Y8092501D02*
X1732498D01*
X1589999Y8079999D02*
X1602501Y8092501D01*
X1493500Y7874376D02*
X1574378D01*
X1589999Y7890002D01*
X1732498Y8042499D02*
X1733748Y8041249D01*
X1948749D01*
X1949999Y8039999D01*
X1828500Y8650000D02*
Y8652500D01*
Y8650000D02*
X1866001Y8612500D01*
X1935002Y8455000D02*
X1940001Y8450001D01*
X1866001Y8612500D02*
X1868500D01*
X1935002Y8545998D01*
Y8455000D02*
Y8545998D01*
X3039999Y8450001D02*
Y8580999D01*
X2943499Y8677499D02*
X3039999Y8580999D01*
X2943499Y8677499D02*
Y8699998D01*
X3350219Y7140291D02*
X3368548Y7121962D01*
X3247502Y7142500D02*
X3249712Y7140291D01*
X3368548Y7121962D02*
X3474390D01*
X3249712Y7140291D02*
X3350219D01*
X3474390Y7121962D02*
X3554964Y7041393D01*
X3582106D01*
X3618499Y7005000D01*
X3353288Y7032711D02*
Y7059214D01*
Y7032711D02*
X3380999Y7005000D01*
X3320004Y7092498D02*
X3353288Y7059214D01*
X3247502Y7092498D02*
X3320004D01*
X2189998Y6791355D02*
Y6935003D01*
X1940001Y6779997D02*
Y6935003D01*
Y6779997D02*
X1969999Y6749999D01*
X1889999Y6655999D02*
Y6935003D01*
X1969999Y6421501D02*
Y6749999D01*
X1891000Y6340003D02*
Y6342502D01*
X1969999Y6421501D01*
X3380999Y7005000D02*
X3458500D01*
X3090001Y8450001D02*
Y8669000D01*
X3098500Y8677499D01*
X1989999Y8450001D02*
Y8651001D01*
X1988500Y8652500D02*
X1989999Y8651001D01*
X1732498Y8092501D02*
Y8142498D01*
X1889999Y6655999D02*
X1891000Y6654998D01*
D49*
X2879999Y7180001D02*
X2929321D01*
X3082503Y7026819D01*
X2884998Y7255002D02*
X3235000D01*
X1875053Y8170001D02*
X2839999D01*
X1852549Y8192501D02*
X1875053Y8170001D01*
X2441895Y8235000D02*
X2885003D01*
X3235000Y7255002D02*
X3247502Y7242500D01*
X2939999Y8130002D02*
Y8250001D01*
X2990002Y8300004D01*
X2999999Y8130002D02*
Y8158104D01*
X3059999Y8130002D02*
Y8168102D01*
X3134396Y8242498D01*
X3247502D01*
X2832501Y6927505D02*
X2839999Y6935003D01*
X2832501Y6843182D02*
Y6927505D01*
X2754102Y6764782D02*
X2832501Y6843182D01*
X2734782Y6764782D02*
X2754102D01*
X2730002Y6760002D02*
X2734782Y6764782D01*
X3082503Y6942501D02*
X3090001Y6935003D01*
X3082503Y6942501D02*
Y7026819D01*
X2440000Y6935003D02*
Y7200001D01*
X1903237Y8279999D02*
X1909999D01*
X1890735Y8292501D02*
X1903237Y8279999D01*
X1732498Y7742499D02*
X1867499D01*
X1732498Y8192501D02*
X1852549D01*
X1732498Y8242498D02*
X1867505D01*
X1880001Y8230001D01*
X4220002Y8370001D02*
X4309999D01*
X3350001Y7500000D02*
X4220002Y8370001D01*
X3610000Y7509998D02*
X4460001Y8359999D01*
X3372500Y7442500D02*
X4069999Y8139999D01*
X3247502Y7742499D02*
X3402498D01*
X3739998Y8079999D01*
X3247502Y7692502D02*
X3462503D01*
X4174998Y8404997D01*
Y8557499D01*
X3247502Y7492502D02*
X3255000Y7500000D01*
X3350001D01*
X3247502Y7442500D02*
X3372500D01*
X3504179Y7509998D02*
X3610000D01*
X3386679Y7392502D02*
X3504179Y7509998D01*
X4071818Y8658179D02*
X4074317D01*
X4174998Y8557499D01*
X2040001Y8270001D02*
Y8450001D01*
X2184781Y8262280D02*
Y8444784D01*
X2180001Y8257499D02*
X2184781Y8262280D01*
X2340000Y8336895D02*
X2441895Y8235000D01*
X2999999Y8158104D02*
X3134396Y8292501D01*
X3247502D01*
Y7392502D02*
X3386679D01*
X1920001Y9240002D02*
X2289998Y8870000D01*
X1070000Y9240002D02*
X1920001D01*
X2289998Y8684321D02*
Y8870000D01*
X1940001Y9140002D02*
X2260001Y8819998D01*
Y8739998D02*
Y8819998D01*
X2147499Y8541822D02*
X2289998Y8684321D01*
X2089998Y8570001D02*
X2260001Y8739998D01*
X2089998Y8450001D02*
Y8570001D01*
X2140001Y8450001D02*
X2147499Y8457499D01*
Y8541822D01*
X2440000Y8450001D02*
Y8632500D01*
X2517501Y8710000D01*
X2520000D01*
X960999Y7232503D02*
Y7420000D01*
Y7232503D02*
X971001Y7222500D01*
X1208496Y7642499D02*
X1732498D01*
X985998Y7420000D02*
X1208496Y7642499D01*
X960999Y7420000D02*
X985998D01*
X2340000Y8336895D02*
Y8450001D01*
X1732498Y7842499D02*
X1733748Y7841249D01*
X1908749D01*
X1909999Y7840000D01*
X1732498Y8292501D02*
X1890735D01*
X2184781Y8444784D02*
X2189998Y8450001D01*
X2879999Y5910001D02*
X2990002Y6019998D01*
Y6179998D01*
Y8300004D02*
Y8450001D01*
D52*
X412501Y7504999D02*
D03*
Y7304999D02*
D03*
Y7105000D02*
D03*
X5599999Y599999D02*
D03*
X5685003Y7712502D02*
D03*
Y7512502D02*
D03*
X4687809Y5736900D02*
D03*
X4370309Y6117900D02*
D03*
X419999Y5040000D02*
D03*
X4370309Y6371900D02*
D03*
X4687809Y5482900D02*
D03*
Y6244900D02*
D03*
X4370309Y5609900D02*
D03*
Y5863900D02*
D03*
X4687809Y5990900D02*
D03*
D53*
X412501Y7704999D02*
D03*
X5599999Y399999D02*
D03*
X5685003Y7312497D02*
D03*
X419999Y5240000D02*
D03*
D54*
X5000000Y2999999D02*
D03*
X999998D02*
D03*
X5000000Y7000001D02*
D03*
X999998D02*
D03*
D55*
X5005309Y6689400D02*
D03*
Y5165400D02*
D03*
D56*
X5627502Y8585002D02*
D03*
Y8834999D02*
D03*
Y9085001D02*
D03*
D57*
Y8335000D02*
D03*
D58*
X5322809Y5355900D02*
D03*
Y6498900D02*
D03*
D59*
X5640309Y5546400D02*
D03*
Y6562400D02*
D03*
X5830809Y5292400D02*
D03*
Y6308400D02*
D03*
D60*
X414000Y2516002D02*
D03*
Y484002D02*
D03*
Y1500002D02*
D03*
X4986000Y738002D02*
D03*
Y2262002D02*
D03*
Y1754002D02*
D03*
D61*
X5087620Y9507220D02*
D03*
X3660140Y9060180D02*
D03*
X3679998Y7424999D02*
D03*
X3430001Y6869999D02*
D03*
X3880002Y6749999D02*
D03*
D62*
X1932854Y7380000D02*
D03*
X2879999Y7180001D02*
D03*
X2884998Y7255002D02*
D03*
X2839999Y8170001D02*
D03*
X2885003Y8235000D02*
D03*
X2939999Y8130002D02*
D03*
X2999999D02*
D03*
X3059999D02*
D03*
X2730002Y6760002D02*
D03*
X2607498Y8590001D02*
D03*
Y8670000D02*
D03*
X2692502Y9060002D02*
D03*
X2440000Y7200001D02*
D03*
X1800001Y8450001D02*
D03*
X1909999Y7840000D02*
D03*
X1867499Y7742499D02*
D03*
X1909999Y8279999D02*
D03*
X1880001Y8230001D02*
D03*
X1460002Y6720002D02*
D03*
X3259999Y6279998D02*
D03*
X3348553Y6288557D02*
D03*
X3480460Y6200049D02*
D03*
X3890000Y6410000D02*
D03*
X4200002Y8930000D02*
D03*
X4000002Y8699998D02*
D03*
X4309999Y8370001D02*
D03*
X4460001Y8359999D02*
D03*
X4069999Y8139999D02*
D03*
X3739998Y8079999D02*
D03*
X4071818Y8658179D02*
D03*
X2040001Y8270001D02*
D03*
X2309998Y8257499D02*
D03*
X2240001D02*
D03*
X2180001D02*
D03*
X1940001Y9140002D02*
D03*
X1070000Y9240002D02*
D03*
X2990002Y6179998D02*
D03*
D03*
X2879999Y5910001D02*
D03*
D03*
D63*
X999998Y6239998D02*
D03*
X1490000Y8350001D02*
D03*
Y8417499D02*
D03*
X2157486Y8819987D02*
D03*
X3619998Y8647501D02*
D03*
X2252502Y6174999D02*
D03*
Y6310000D02*
D03*
Y6242502D02*
D03*
X1760002Y6857502D02*
D03*
X1490000Y7127499D02*
D03*
Y7060001D02*
D03*
Y6992498D02*
D03*
Y8282498D02*
D03*
X1625001Y6857502D02*
D03*
X1692499D02*
D03*
X3619998Y8745002D02*
D03*
Y8677499D02*
D03*
X2117501Y8777498D02*
D03*
X1805000Y6159998D02*
D03*
D64*
X1949999Y7540000D02*
D03*
X2049998Y6190000D02*
D03*
X1179998Y8187304D02*
D03*
X1260003Y7067306D02*
D03*
X1949999Y8039999D02*
D03*
X2750002Y8870000D02*
D03*
X1829999Y8990000D02*
D03*
D65*
X1083884Y5238181D02*
D03*
X4653879Y4408180D02*
D03*
X3450001Y3290001D02*
D03*
X5480497Y4092986D02*
D03*
D66*
X960999Y7420000D02*
D03*
Y7830002D02*
D03*
D67*
X1732498Y7092498D02*
D03*
Y7142500D02*
D03*
Y7192503D02*
D03*
Y7242500D02*
D03*
Y7292503D02*
D03*
Y7392502D02*
D03*
Y7442500D02*
D03*
Y7492502D02*
D03*
Y7542500D02*
D03*
Y7642499D02*
D03*
Y7692502D02*
D03*
Y7742499D02*
D03*
Y7792502D02*
D03*
Y7842499D02*
D03*
Y7892501D02*
D03*
Y7942499D02*
D03*
Y8042499D02*
D03*
Y8192501D02*
D03*
Y8242498D02*
D03*
Y8292501D02*
D03*
X3247502D02*
D03*
Y8242498D02*
D03*
Y8192501D02*
D03*
Y8142498D02*
D03*
Y8092501D02*
D03*
Y8042499D02*
D03*
Y7992501D02*
D03*
Y7942499D02*
D03*
Y7892501D02*
D03*
Y7842499D02*
D03*
Y7792502D02*
D03*
Y7742499D02*
D03*
Y7692502D02*
D03*
Y7642499D02*
D03*
Y7592502D02*
D03*
Y7542500D02*
D03*
Y7492502D02*
D03*
Y7442500D02*
D03*
Y7392502D02*
D03*
Y7342500D02*
D03*
Y7292503D02*
D03*
Y7242500D02*
D03*
Y7192503D02*
D03*
Y7142500D02*
D03*
X1732498Y7992501D02*
D03*
Y7342500D02*
D03*
Y7592502D02*
D03*
Y8142498D02*
D03*
Y8092501D02*
D03*
X3247502Y7092498D02*
D03*
D68*
X1889999Y8450001D02*
D03*
X1940001D02*
D03*
X2040001D02*
D03*
X2089998D02*
D03*
X2140001D02*
D03*
X2189998D02*
D03*
X2240001D02*
D03*
X2289998D02*
D03*
X2340000D02*
D03*
X2390003D02*
D03*
X2440000D02*
D03*
X2490003D02*
D03*
X2540000D02*
D03*
X2590002D02*
D03*
X2640000D02*
D03*
X2690002D02*
D03*
X2740000D02*
D03*
X2790002D02*
D03*
X2839999D02*
D03*
X2890002D02*
D03*
X2939999D02*
D03*
X2990002D02*
D03*
X3039999D02*
D03*
X3090001Y6935003D02*
D03*
X3039999D02*
D03*
X2990002D02*
D03*
X2939999D02*
D03*
X2890002D02*
D03*
X2839999D02*
D03*
X2790002D02*
D03*
X2740000D02*
D03*
X2690002D02*
D03*
X2640000D02*
D03*
X2590002D02*
D03*
X2540000D02*
D03*
X2490003D02*
D03*
X2440000D02*
D03*
X2390003D02*
D03*
X2340000D02*
D03*
X2289998D02*
D03*
X2240001D02*
D03*
X2189998D02*
D03*
X2140001D02*
D03*
X2089998D02*
D03*
X2040001D02*
D03*
X1989999D02*
D03*
X1940001D02*
D03*
X1889999D02*
D03*
X1989999Y8450001D02*
D03*
X3090001D02*
D03*
%TF.MD5,5a5c847b9aea6d3a020861e73d356293*%
M02*
