M48
;Layer_Color=9474304
;FILE_FORMAT=4:4
METRIC,LZ
;TYPE=PLATED
T1F00S00C0.2000
T2F00S00C0.3000
T3F00S00C0.7112
;TYPE=NON_PLATED
%
T01
X00301Y00561
X00315Y0056
X00323Y00561
X00325644Y00556177
X00330761Y00554161
X00288Y00575
Y00582
Y00602
Y0061
X00319Y00628
X00239Y00752
X0026Y00917125
X00263Y00949
X00273Y00947
X00392Y0086
X00407Y00853
X00455Y00906
T02
X00327152Y0094488
X004645Y0089325
X00465Y0084775
T03
X00423Y007965
X0045675Y0097675
M30
