%TF.GenerationSoftware,Altium Limited,Altium Designer,20.1.12 (249)*%
G04 Layer_Color=32768*
%FSLAX45Y45*%
%MOMM*%
%TF.SameCoordinates,0418086A-757F-42B6-A3B9-695331E80F4B*%
%TF.FilePolarity,Positive*%
%TF.FileFunction,Other,Mechanical_15*%
%TF.Part,Single*%
G01*
G75*
%TA.AperFunction,NonConductor*%
%ADD91C,0.15240*%
%ADD120C,0.10000*%
%ADD122C,0.05000*%
G36*
X2645410Y3782330D02*
Y3676920D01*
X1431290D01*
Y4830080D01*
X2645410D01*
Y4724670D01*
X3056890D01*
Y3782330D01*
X2645410D01*
D02*
G37*
D91*
X2947060Y6212749D02*
X3004210D01*
Y6250849D01*
X3436010D01*
Y6212749D02*
Y6250849D01*
Y6212749D02*
X3493160D01*
Y6155599D02*
Y6212749D01*
Y6155599D02*
X3531260D01*
Y5723799D02*
Y6155599D01*
X3493160Y5723799D02*
X3531260D01*
X3493160Y5666649D02*
Y5723799D01*
X3436010Y5666649D02*
X3493160D01*
X3436010Y5628549D02*
Y5666649D01*
X3004210Y5628549D02*
X3436010D01*
X3004210D02*
Y5666649D01*
X2947060D02*
X3004210D01*
X2947060D02*
Y5723799D01*
X2908960D02*
X2947060D01*
X2908960D02*
Y6155599D01*
X2947060D01*
Y6212749D01*
X2645410Y3676919D02*
Y3782329D01*
X3056890D01*
Y4724669D01*
X2645410D02*
X3056890D01*
X2645410D02*
Y4830079D01*
X1431290D02*
X2645410D01*
X1431290Y3676919D02*
Y4830079D01*
Y3676919D02*
X2645410D01*
D120*
X2440000Y7692502D02*
X2540000D01*
X2490003Y7642499D02*
Y7742499D01*
X4409999Y8657499D02*
Y8757498D01*
X4360001Y8707501D02*
X4460001D01*
D122*
X3317611Y6894698D02*
X3617610D01*
Y7044700D01*
X3317611D02*
X3617610D01*
X3317611Y6894698D02*
Y7044700D01*
X4102501Y9014998D02*
X4717501D01*
X4102501Y8399998D02*
X4717501D01*
Y9014998D01*
X4102501Y8399998D02*
Y9014998D01*
%TF.MD5,f5580b5bfdaab9c850fbbebc8677b9c3*%
M02*
