%TF.GenerationSoftware,Altium Limited,Altium Designer,20.1.12 (249)*%
G04 Layer_Physical_Order=2*
G04 Layer_Color=36540*
%FSLAX45Y45*%
%MOMM*%
%TF.SameCoordinates,0418086A-757F-42B6-A3B9-695331E80F4B*%
%TF.FilePolarity,Positive*%
%TF.FileFunction,Copper,L2,Inr,Signal*%
%TF.Part,Single*%
G01*
G75*
%TA.AperFunction,Conductor*%
%ADD45C,1.00000*%
%ADD48C,0.20000*%
%ADD49C,0.15000*%
%TA.AperFunction,ComponentPad*%
%ADD52C,1.40000*%
%TA.AperFunction,WasherPad*%
%ADD54C,1.20000*%
%TA.AperFunction,ComponentPad*%
%ADD55C,2.50000*%
%ADD56C,1.50000*%
%ADD57R,1.50000X1.50000*%
%ADD58C,3.30000*%
%ADD59C,1.80000*%
%ADD60R,2.30000X2.30000*%
%TA.AperFunction,ViaPad*%
%ADD61C,0.60000*%
%ADD62C,0.40000*%
%ADD63C,0.50000*%
%ADD64C,1.27000*%
%ADD65C,2.50000*%
D45*
X4665000Y8477499D02*
Y8932499D01*
Y9669998D01*
Y8415000D02*
Y8477499D01*
X4074998Y5384998D02*
Y7312497D01*
X4567499Y9767499D02*
X4665000Y9669998D01*
X4229999Y7979999D02*
X4665000Y8415000D01*
X4229999Y7964998D02*
Y7979999D01*
Y7467498D02*
Y7964998D01*
X3450001Y3290001D02*
X4074998Y3914999D01*
Y5384998D01*
X304998Y7304999D02*
X412501D01*
X187498Y7187499D02*
X304998Y7304999D01*
X187498Y5472501D02*
Y7187499D01*
Y5472501D02*
X419999Y5240000D01*
X4074998Y7312497D02*
X4229999Y7467498D01*
X4074998Y7312497D02*
X5685003D01*
D48*
X3271520Y9448800D02*
X3660140Y9060180D01*
X2240001Y6660002D02*
Y8257499D01*
X2309998Y6669999D02*
Y8257499D01*
X2240001Y6660002D02*
X2879999Y6019998D01*
X2309998Y6669999D02*
X2879999Y6099998D01*
D49*
X2650002Y7400000D02*
Y9460001D01*
X2873238Y7180001D02*
X2879999D01*
X2863185Y7190054D02*
X2873238Y7180001D01*
X2859949Y7190054D02*
X2863185D01*
X2650002Y7400000D02*
X2859949Y7190054D01*
X2790002Y7349998D02*
X2884998Y7255002D01*
X2790002Y7349998D02*
Y9403237D01*
X2939999Y7190003D02*
Y8130002D01*
Y7190003D02*
X3610000Y6520002D01*
X2839999Y8350001D02*
X3089996Y8599998D01*
X2839999Y8170001D02*
Y8350001D01*
X3015107Y8235000D02*
X3130001Y8120106D01*
X2885003Y8235000D02*
X3015107D01*
X2730002Y9463237D02*
X2790002Y9403237D01*
X2999999Y7183328D02*
Y8130002D01*
X3059999D02*
X3070001Y8119999D01*
X3130001Y7305004D02*
Y8120106D01*
X2630002Y9480001D02*
X2650002Y9460001D01*
X2630002Y9480001D02*
Y9489999D01*
X2730002Y9463237D02*
Y9469999D01*
X2600000Y9169999D02*
Y9171249D01*
X2440000Y9010000D02*
X2600000Y9169999D01*
X2440000Y7200001D02*
Y9010000D01*
X1909999Y7840000D02*
X2089998Y7660000D01*
Y6059998D02*
Y7660000D01*
X1909999Y8279999D02*
X2129998Y8059999D01*
Y6500002D02*
Y8059999D01*
X3670000Y5912261D02*
Y6555755D01*
X3070001Y7155754D02*
Y8119999D01*
Y7155754D02*
X3670000Y6555755D01*
X3610000Y5943046D02*
Y6520002D01*
X2999999Y7183328D02*
X3639998Y6543330D01*
X3289381Y5579999D02*
X3639998Y5930616D01*
X3130001Y7305004D02*
X3699998Y6735008D01*
X3639998Y5930616D02*
Y6543330D01*
X3699998Y5619999D02*
Y6735008D01*
X3559998Y5802259D02*
X3670000Y5912261D01*
X3530295Y5450296D02*
X3699998Y5619999D01*
X3276956Y5610001D02*
X3610000Y5943046D01*
X4100002Y8079999D02*
X4227495Y8207497D01*
X4242501Y8972499D02*
X4329999Y9060002D01*
X4227495Y8859251D02*
X4242501Y8874252D01*
X4227495Y8207497D02*
Y8859251D01*
X4242501Y8874252D02*
Y8972499D01*
X4329999Y9060002D02*
X4549999D01*
X3739998Y8079999D02*
X4100002D01*
X4069999Y8139999D02*
Y8530001D01*
X3089996Y8599998D02*
X3920002D01*
X2180001Y6520002D02*
Y8257499D01*
X3265226Y5572282D02*
X3278180D01*
X3307608Y5541609D02*
Y5549864D01*
X3285896Y5579999D02*
X3289381D01*
X3307608Y5549864D02*
X3559998Y5802259D01*
X3256437Y5561772D02*
Y5563494D01*
X3265226Y5572282D01*
X3259704Y5450296D02*
X3530295D01*
X3278180Y5572282D02*
X3285896Y5579999D01*
X2089998Y6059998D02*
X2540000Y5610001D01*
X2129998Y6500002D02*
X2879999Y5750001D01*
X2540000Y5610001D02*
X3010002D01*
X2180001Y6520002D02*
X2879999Y5819999D01*
X2389998Y6929999D02*
Y7520000D01*
X3039999Y6279998D02*
X3190001D01*
X2389998Y6929999D02*
X3039999Y6279998D01*
X3150001Y5559999D02*
Y5599999D01*
Y5559999D02*
X3259704Y5450296D01*
X3230001Y5610001D02*
X3276956D01*
D52*
X4687809Y5736900D02*
D03*
X4370309Y6117900D02*
D03*
Y6371900D02*
D03*
X4687809Y5482900D02*
D03*
Y6244900D02*
D03*
X4370309Y5609900D02*
D03*
Y5863900D02*
D03*
X4687809Y5990900D02*
D03*
D54*
X5000000Y2999999D02*
D03*
X999998D02*
D03*
X5000000Y7000001D02*
D03*
X999998D02*
D03*
D55*
X5005309Y6689400D02*
D03*
Y5165400D02*
D03*
D56*
X5627502Y8585002D02*
D03*
Y8834999D02*
D03*
Y9085001D02*
D03*
D57*
Y8335000D02*
D03*
D58*
X5322809Y5355900D02*
D03*
Y6498900D02*
D03*
D59*
X5640309Y5546400D02*
D03*
Y6562400D02*
D03*
X5830809Y5292400D02*
D03*
Y6308400D02*
D03*
D60*
X414000Y2516002D02*
D03*
Y484002D02*
D03*
Y1500002D02*
D03*
X4986000Y738002D02*
D03*
Y2262002D02*
D03*
Y1754002D02*
D03*
D61*
X5087620Y9507220D02*
D03*
X3271520Y9448800D02*
D03*
X3660140Y9060180D02*
D03*
X2850002Y7700000D02*
D03*
X2387498Y7950002D02*
D03*
X4279997Y8837503D02*
D03*
X4540006Y8577499D02*
D03*
X2591481Y5730296D02*
D03*
X2480000Y5959998D02*
D03*
X3359323Y5799821D02*
D03*
X3430001Y6869999D02*
D03*
X3039999Y6749999D02*
D03*
X3330001Y6720002D02*
D03*
X3290001Y5870001D02*
D03*
X3360110Y5939699D02*
D03*
X3290001Y6010001D02*
D03*
X3360110Y6079698D02*
D03*
X3220110D02*
D03*
X2990002Y6700002D02*
D03*
X3880002Y6749999D02*
D03*
X3874999Y6580002D02*
D03*
X403753Y8545002D02*
D03*
Y9194998D02*
D03*
X1162502Y9627499D02*
D03*
X2427498Y9752498D02*
D03*
X3492500D02*
D03*
X4540001Y8707501D02*
D03*
X4475002Y8642497D02*
D03*
X4409999Y8837503D02*
D03*
X4540001D02*
D03*
X4279997Y8707501D02*
D03*
X4410004Y8577499D02*
D03*
X4279997D02*
D03*
X4344995Y8772505D02*
D03*
X4475002Y8772500D02*
D03*
X4345000Y8642497D02*
D03*
X4409999Y8707501D02*
D03*
X3079323Y5939820D02*
D03*
X3150001Y6010001D02*
D03*
X3219323Y5799821D02*
D03*
X3079323D02*
D03*
X3080111Y6079698D02*
D03*
X3150001Y5870001D02*
D03*
X3220110Y5939699D02*
D03*
X1649999Y6500002D02*
D03*
X1510000Y6070001D02*
D03*
X4209999Y3330001D02*
D03*
X4649998Y8477499D02*
D03*
X4645000Y8932499D02*
D03*
D62*
X2879999Y7180001D02*
D03*
X2884998Y7255002D02*
D03*
X2839999Y8170001D02*
D03*
X2885003Y8235000D02*
D03*
X2939999Y8130002D02*
D03*
X2999999D02*
D03*
X3059999D02*
D03*
X530001Y9010000D02*
D03*
X2630002Y9489999D02*
D03*
X2692502Y9060002D02*
D03*
X2607498Y8670000D02*
D03*
Y8590001D02*
D03*
X2600000Y9171249D02*
D03*
X2730002Y9469999D02*
D03*
X2440000Y7200001D02*
D03*
X2530003Y9489999D02*
D03*
X1800001Y8450001D02*
D03*
X1909999Y7840000D02*
D03*
Y8279999D02*
D03*
X1880001Y8230001D02*
D03*
X5110002Y7680000D02*
D03*
X1460002Y6720002D02*
D03*
X3259999Y6279998D02*
D03*
X3348553Y6288557D02*
D03*
X3480460Y6200049D02*
D03*
X3890000Y6410000D02*
D03*
X4200002Y8930000D02*
D03*
X4000002Y8699998D02*
D03*
X4549999Y9060002D02*
D03*
X4309999Y8370001D02*
D03*
X4460001Y8359999D02*
D03*
X4069999Y8139999D02*
D03*
X3739998Y8079999D02*
D03*
X3920002Y8599998D02*
D03*
X4071818Y8658179D02*
D03*
X2309998Y8257499D02*
D03*
X2240001D02*
D03*
X2180001D02*
D03*
X3990000Y8299999D02*
D03*
X4069999Y8530001D02*
D03*
X1940001Y9140002D02*
D03*
X1070000Y9240002D02*
D03*
X3010002Y5610001D02*
D03*
X2879999Y5750001D02*
D03*
Y5819999D02*
D03*
X2389998Y7520000D02*
D03*
X3190001Y6279998D02*
D03*
X2990002Y6179998D02*
D03*
X2879999Y5910001D02*
D03*
X3150001Y5599999D02*
D03*
X3230001Y5610001D02*
D03*
X3256437Y5561772D02*
D03*
X3307608Y5541609D02*
D03*
X2879999Y6019998D02*
D03*
Y6099998D02*
D03*
D63*
X999998Y6239998D02*
D03*
X1490000Y8350001D02*
D03*
Y8417499D02*
D03*
X2157486Y8819987D02*
D03*
X3619998Y8647501D02*
D03*
X2252502Y6174999D02*
D03*
Y6310000D02*
D03*
Y6242502D02*
D03*
X1760002Y6857502D02*
D03*
X1490000Y7127499D02*
D03*
Y7060001D02*
D03*
Y6992498D02*
D03*
Y8282498D02*
D03*
X1625001Y6857502D02*
D03*
X1692499D02*
D03*
X3619998Y8745002D02*
D03*
Y8677499D02*
D03*
X2117501Y8777498D02*
D03*
X839998Y4347500D02*
D03*
X760415D02*
D03*
X680832D02*
D03*
X601248D02*
D03*
X521665D02*
D03*
X442082D02*
D03*
X362499D02*
D03*
X1805000Y6159998D02*
D03*
D64*
X1580002Y5399999D02*
D03*
X1869999D02*
D03*
X1727500Y5404805D02*
D03*
X4040002Y9429999D02*
D03*
X4989998Y3350001D02*
D03*
X2899999Y3059999D02*
D03*
X1240003D02*
D03*
X1856669Y4106667D02*
D03*
X2153331D02*
D03*
Y4403334D02*
D03*
X2301667Y4254998D02*
D03*
X1708333D02*
D03*
Y4551665D02*
D03*
Y3958331D02*
D03*
X2005000Y4551665D02*
D03*
Y4254998D02*
D03*
Y3958331D02*
D03*
X2301667Y4551665D02*
D03*
Y3958331D02*
D03*
X1856669Y4700001D02*
D03*
X2153331D02*
D03*
X2449998D02*
D03*
X1856669Y4403334D02*
D03*
X2449998D02*
D03*
Y4106667D02*
D03*
X1856669Y3810000D02*
D03*
X2153331D02*
D03*
X2449998D02*
D03*
X1560002D02*
D03*
Y4106667D02*
D03*
Y4403334D02*
D03*
Y4700001D02*
D03*
X4555002Y7792502D02*
D03*
X5267498Y8962502D02*
D03*
X5282499Y8457499D02*
D03*
X4229999Y7964998D02*
D03*
X4567499Y9767499D02*
D03*
D65*
X1083884Y5238181D02*
D03*
X4653879Y4408180D02*
D03*
X3450001Y3290001D02*
D03*
X5480497Y4092986D02*
D03*
%TF.MD5,e9f81e326699a6bf3a58e45c9244fb81*%
M02*
