M48
;Layer_Color=9474304
;FILE_FORMAT=4:4
METRIC,LZ
;TYPE=PLATED
T1F00S00C0.2000
T2F00S00C0.3000
T3F00S00C0.7112
;TYPE=NON_PLATED
%
T01
X00146Y00672
X00193285Y00738
X0018675Y0077425
X00273Y00676
X00299Y00618
X00326Y00628
X00334855Y00628856
X00348046Y00620005
X00389Y00641
X00288Y00591
X0026075Y00859
Y00867
X0026925Y00906
X00194Y00914
X0018Y00845
X00188Y00823
X00204Y00827
X00107Y00924
X0042Y00893
X00407182Y00865818
X004Y0087
X00431Y00837
X00446Y00836
T02
X00368Y007425
T03
X00205Y00619
X00195Y00754
X00126Y00706731
X00118Y0081873
X00195Y00804
X00183Y00899
X00275Y00887
M30
