M48
;Layer_Color=9474304
;FILE_FORMAT=4:4
METRIC,LZ
;TYPE=PLATED
T1F00S00C0.2000
T2F00S00C0.3000
T4F00S00C0.8000
T5F00S00C0.9000
T6F00S00C1.0200
T7F00S00C1.5000
T8F00S00C1.8000
T9F00S00C2.0000
T10F00S00C3.3000
;TYPE=NON_PLATED
T11F00S00C2.5000
%
T01
X00288Y00591
X00299Y00618
T02
X001Y00624
X001805Y00616
X0022525Y006175
Y0062425
Y00631
X00176Y0068575
X0016925
X001625
X00149Y0069925
Y00706
Y0071275
X00343Y00687
X00388Y00675
X00362Y0086475
Y0086775
Y008745
X0021175Y0087775
X00215749Y00881999
X00149Y0084175
Y00835
Y0082825
X00508762Y00950722
T04
X0056Y0004
Y0006
X005685Y0073125
Y0075125
Y0077125
X0004125Y007705
Y007505
Y007305
Y007105
X00042Y00524
Y00504
T05
X00437031Y0056099
Y0058639
Y0061179
Y0063719
X00468781Y0062449
Y0059909
Y0057369
Y0054829
X0056275Y008335
Y008585
Y008835
Y009085
T06
X00583081Y0052924
X00564031Y0055464
X00583081Y0063084
X00564031Y0065624
T07
X000414Y000484
Y0015
Y002516
X004986Y002262
Y001754
Y000738
T08
X00500531Y0051654
Y0066894
T09
X00345Y00329
X00465388Y00440818
X0054805Y00409299
X00108388Y00523818
T10
X00532281Y0053559
Y0064989
T11
X001Y003
X005
Y007
X001
M30
