%TF.GenerationSoftware,Altium Limited,Altium Designer,20.1.12 (249)*%
G04 Layer_Color=0*
%FSLAX45Y45*%
%MOMM*%
%TF.SameCoordinates,0418086A-757F-42B6-A3B9-695331E80F4B*%
%TF.FilePolarity,Positive*%
%TF.FileFunction,Plated,1,4,PTH,Drill*%
%TF.Part,Single*%
G01*
G75*
%TA.AperFunction,ComponentDrill*%
%ADD128C,0.80000*%
%ADD129C,1.80000*%
%ADD130C,0.90000*%
%ADD131C,3.30000*%
%ADD132C,1.02000*%
%ADD133C,1.50000*%
%TA.AperFunction,ViaDrill,NotFilled*%
%ADD134C,0.30000*%
%ADD135C,0.20000*%
%ADD136C,2.00000*%
D128*
X412501Y7504999D02*
D03*
Y7704999D02*
D03*
Y7304999D02*
D03*
Y7105000D02*
D03*
X5599999Y599999D02*
D03*
Y399999D02*
D03*
X5685003Y7712502D02*
D03*
Y7312497D02*
D03*
Y7512502D02*
D03*
X419999Y5040000D02*
D03*
Y5240000D02*
D03*
D129*
X5005309Y6689400D02*
D03*
Y5165400D02*
D03*
D130*
X4687809Y5736900D02*
D03*
X4370309Y6117900D02*
D03*
X5627502Y8585002D02*
D03*
Y8834999D02*
D03*
Y9085001D02*
D03*
Y8335000D02*
D03*
X4370309Y6371900D02*
D03*
X4687809Y5482900D02*
D03*
Y6244900D02*
D03*
X4370309Y5609900D02*
D03*
Y5863900D02*
D03*
X4687809Y5990900D02*
D03*
D131*
X5322809Y5355900D02*
D03*
Y6498900D02*
D03*
D132*
X5640309Y5546400D02*
D03*
Y6562400D02*
D03*
X5830809Y5292400D02*
D03*
Y6308400D02*
D03*
D133*
X414000Y2516002D02*
D03*
Y484002D02*
D03*
Y1500002D02*
D03*
X4986000Y738002D02*
D03*
Y2262002D02*
D03*
Y1754002D02*
D03*
D134*
X5087620Y9507220D02*
D03*
X999998Y6239998D02*
D03*
X1490000Y8350001D02*
D03*
Y8417499D02*
D03*
X2157486Y8819987D02*
D03*
X3619998Y8647501D02*
D03*
X2252502Y6174999D02*
D03*
Y6310000D02*
D03*
Y6242502D02*
D03*
X1760002Y6857502D02*
D03*
X3430001Y6869999D02*
D03*
X1490000Y7127499D02*
D03*
Y7060001D02*
D03*
Y6992498D02*
D03*
Y8282498D02*
D03*
X3880002Y6749999D02*
D03*
X1625001Y6857502D02*
D03*
X1692499D02*
D03*
X3619998Y8745002D02*
D03*
Y8677499D02*
D03*
X2117501Y8777498D02*
D03*
X1805000Y6159998D02*
D03*
D135*
X2990002Y6179998D02*
D03*
X2879999Y5910001D02*
D03*
D136*
X1083884Y5238181D02*
D03*
X4653879Y4408180D02*
D03*
X3450001Y3290001D02*
D03*
X5480497Y4092986D02*
D03*
%TF.MD5,7ea7028bb3d2c7f9b42b9c869e0f2af9*%
M02*
