%TF.GenerationSoftware,Altium Limited,Altium Designer,20.1.12 (249)*%
G04 Layer_Color=8388736*
%FSLAX45Y45*%
%MOMM*%
%TF.SameCoordinates,0418086A-757F-42B6-A3B9-695331E80F4B*%
%TF.FilePolarity,Negative*%
%TF.FileFunction,Soldermask,Top*%
%TF.Part,Single*%
G01*
G75*
%TA.AperFunction,SMDPad,CuDef*%
%ADD24R,0.81280X0.25400*%
%ADD25R,0.25400X0.81280*%
%ADD42R,11.12520X10.51560*%
%ADD43R,2.97180X0.78740*%
%TA.AperFunction,ComponentPad*%
%ADD56C,1.50000*%
%ADD57R,1.50000X1.50000*%
%TA.AperFunction,ViaPad*%
%ADD63C,0.50000*%
%TA.AperFunction,SMDPad,CuDef*%
%ADD74R,1.05000X1.10000*%
%ADD77R,1.10000X1.05000*%
%ADD78R,1.50000X1.05000*%
%ADD79R,1.05000X1.50000*%
%TA.AperFunction,WasherPad*%
%ADD80C,1.30000*%
%TA.AperFunction,ComponentPad*%
%ADD81C,2.60000*%
%ADD82C,1.60000*%
%ADD83R,1.60000X1.60000*%
%ADD84C,3.40000*%
%ADD85C,1.90000*%
%ADD86R,2.40000X2.40000*%
%TA.AperFunction,ViaPad*%
%ADD87C,0.70000*%
%ADD88C,1.37000*%
%ADD89C,2.60000*%
%TA.AperFunction,SMDPad,SMDef*%
%ADD93R,0.02540X0.02540*%
%TA.AperFunction,ConnectorPad*%
%ADD94R,0.70000X1.65000*%
%ADD95R,1.30000X1.90000*%
%TA.AperFunction,SMDPad,CuDef*%
%ADD96R,1.65000X0.70000*%
%ADD97R,1.90000X1.30000*%
%ADD98R,1.90000X1.25000*%
%ADD99R,2.40000X2.55000*%
%ADD100R,4.10000X1.90000*%
%ADD101R,1.25000X1.90000*%
G04:AMPARAMS|DCode=102|XSize=1.1mm|YSize=0.7mm|CornerRadius=0.2mm|HoleSize=0mm|Usage=FLASHONLY|Rotation=0.000|XOffset=0mm|YOffset=0mm|HoleType=Round|Shape=RoundedRectangle|*
%AMROUNDEDRECTD102*
21,1,1.10000,0.30000,0,0,0.0*
21,1,0.70000,0.70000,0,0,0.0*
1,1,0.40000,0.35000,-0.15000*
1,1,0.40000,-0.35000,-0.15000*
1,1,0.40000,-0.35000,0.15000*
1,1,0.40000,0.35000,0.15000*
%
%ADD102ROUNDEDRECTD102*%
%ADD103R,2.55000X2.40000*%
%ADD104R,1.70000X2.80000*%
%ADD105R,0.75000X0.80000*%
%TA.AperFunction,ConnectorPad*%
%ADD106R,3.10000X1.70000*%
%ADD107R,5.90000X1.10000*%
%TA.AperFunction,SMDPad,CuDef*%
G04:AMPARAMS|DCode=108|XSize=1.1mm|YSize=3mm|CornerRadius=0.3mm|HoleSize=0mm|Usage=FLASHONLY|Rotation=180.000|XOffset=0mm|YOffset=0mm|HoleType=Round|Shape=RoundedRectangle|*
%AMROUNDEDRECTD108*
21,1,1.10000,2.40000,0,0,180.0*
21,1,0.50000,3.00000,0,0,180.0*
1,1,0.60000,-0.25000,1.20000*
1,1,0.60000,0.25000,1.20000*
1,1,0.60000,0.25000,-1.20000*
1,1,0.60000,-0.25000,-1.20000*
%
%ADD108ROUNDEDRECTD108*%
%ADD109R,1.00000X0.80000*%
%ADD110R,2.10000X3.10000*%
%ADD111R,0.35000X1.05000*%
%ADD112R,1.70000X1.90000*%
%ADD113R,0.70000X1.40000*%
G04:AMPARAMS|DCode=114|XSize=1.7mm|YSize=1.9mm|CornerRadius=0mm|HoleSize=0mm|Usage=FLASHONLY|Rotation=180.000|XOffset=0mm|YOffset=0mm|HoleType=Round|Shape=Octagon|*
%AMOCTAGOND114*
4,1,8,0.42500,-0.95000,-0.42500,-0.95000,-0.85000,-0.52500,-0.85000,0.52500,-0.42500,0.95000,0.42500,0.95000,0.85000,0.52500,0.85000,-0.52500,0.42500,-0.95000,0.0*
%
%ADD114OCTAGOND114*%

%ADD115R,1.05000X0.35000*%
%ADD116R,3.25000X3.25000*%
G04:AMPARAMS|DCode=117|XSize=1.1mm|YSize=3mm|CornerRadius=0.3mm|HoleSize=0mm|Usage=FLASHONLY|Rotation=90.000|XOffset=0mm|YOffset=0mm|HoleType=Round|Shape=RoundedRectangle|*
%AMROUNDEDRECTD117*
21,1,1.10000,2.40000,0,0,90.0*
21,1,0.50000,3.00000,0,0,90.0*
1,1,0.60000,1.20000,0.25000*
1,1,0.60000,1.20000,-0.25000*
1,1,0.60000,-1.20000,-0.25000*
1,1,0.60000,-1.20000,0.25000*
%
%ADD117ROUNDEDRECTD117*%
%ADD118R,1.30000X1.30000*%
%ADD119R,1.60000X1.00000*%
G36*
X3396640Y6077810D02*
Y6037810D01*
Y5999070D01*
Y5959070D01*
Y5920330D01*
Y5880330D01*
Y5841590D01*
Y5763170D01*
X3043580D01*
Y5801590D01*
Y5841590D01*
Y5880330D01*
Y5920330D01*
Y5959070D01*
Y5999070D01*
Y6037810D01*
Y6077810D01*
Y6116230D01*
X3396640D01*
Y6077810D01*
D02*
G37*
%LPC*%
G36*
X3358220D02*
X3318220D01*
Y6037810D01*
X3358220D01*
Y6077810D01*
D02*
G37*
G36*
X3279480D02*
X3239480D01*
Y6037810D01*
X3279480D01*
Y6077810D01*
D02*
G37*
G36*
X3200740D02*
X3160740D01*
Y6037810D01*
X3200740D01*
Y6077810D01*
D02*
G37*
G36*
X3122000D02*
X3082000D01*
Y6037810D01*
X3122000D01*
Y6077810D01*
D02*
G37*
G36*
X3358220Y5999070D02*
X3318220D01*
Y5959070D01*
X3358220D01*
Y5999070D01*
D02*
G37*
G36*
X3279480D02*
X3239480D01*
Y5959070D01*
X3279480D01*
Y5999070D01*
D02*
G37*
G36*
X3200740D02*
X3160740D01*
Y5959070D01*
X3200740D01*
Y5999070D01*
D02*
G37*
G36*
X3122000D02*
X3082000D01*
Y5959070D01*
X3122000D01*
Y5999070D01*
D02*
G37*
G36*
X3358220Y5920330D02*
X3318220D01*
Y5880330D01*
X3358220D01*
Y5920330D01*
D02*
G37*
G36*
X3279480D02*
X3239480D01*
Y5880330D01*
X3279480D01*
Y5920330D01*
D02*
G37*
G36*
X3200740D02*
X3160740D01*
Y5880330D01*
X3200740D01*
Y5920330D01*
D02*
G37*
G36*
X3122000D02*
X3082000D01*
Y5880330D01*
X3122000D01*
Y5920330D01*
D02*
G37*
G36*
X3358220Y5841590D02*
X3318220D01*
Y5801590D01*
X3358220D01*
Y5841590D01*
D02*
G37*
G36*
X3279480D02*
X3239480D01*
Y5801590D01*
X3279480D01*
Y5841590D01*
D02*
G37*
G36*
X3200740D02*
X3160740D01*
Y5801590D01*
X3200740D01*
Y5841590D01*
D02*
G37*
G36*
X3122000D02*
X3082000D01*
Y5801590D01*
X3122000D01*
Y5841590D01*
D02*
G37*
%LPD*%
D24*
X3465220Y5863499D02*
D03*
X2975000Y5965099D02*
D03*
X3465220Y6066699D02*
D03*
Y6015899D02*
D03*
X2975000Y6117499D02*
D03*
Y6066699D02*
D03*
Y6015899D02*
D03*
Y5914299D02*
D03*
Y5863499D02*
D03*
Y5812699D02*
D03*
Y5761899D02*
D03*
X3465220D02*
D03*
Y5812699D02*
D03*
Y5914299D02*
D03*
Y5965099D02*
D03*
Y6117499D02*
D03*
D25*
X3397910Y6184809D02*
D03*
X3347110D02*
D03*
X3296310D02*
D03*
X3245510D02*
D03*
X3194710D02*
D03*
X3143910D02*
D03*
X3093110D02*
D03*
X3042310D02*
D03*
Y5694589D02*
D03*
X3093110D02*
D03*
X3143910D02*
D03*
X3194710D02*
D03*
X3245510D02*
D03*
X3296310D02*
D03*
X3347110D02*
D03*
X3397910D02*
D03*
D42*
X2038350Y4253499D02*
D03*
D43*
X2857500Y4634499D02*
D03*
Y4507499D02*
D03*
Y4380499D02*
D03*
Y4253499D02*
D03*
Y4126499D02*
D03*
Y3999499D02*
D03*
Y3872499D02*
D03*
D56*
X412501Y7504999D02*
D03*
Y7304999D02*
D03*
Y7105000D02*
D03*
X5599999Y599999D02*
D03*
X5685003Y7712502D02*
D03*
Y7512502D02*
D03*
X4687809Y5736900D02*
D03*
X4370309Y6117900D02*
D03*
X419999Y5040000D02*
D03*
X4370309Y6371900D02*
D03*
X4687809Y5482900D02*
D03*
Y6244900D02*
D03*
X4370309Y5609900D02*
D03*
Y5863900D02*
D03*
X4687809Y5990900D02*
D03*
D57*
X412501Y7704999D02*
D03*
X5599999Y399999D02*
D03*
X5685003Y7312497D02*
D03*
X419999Y5240000D02*
D03*
D63*
X530001Y9010000D02*
D03*
X2630002Y9489999D02*
D03*
X2692502Y9060002D02*
D03*
X2607498Y8670000D02*
D03*
Y8590001D02*
D03*
X2600000Y9171249D02*
D03*
X2730002Y9469999D02*
D03*
X2530003Y9489999D02*
D03*
X1800001Y8450001D02*
D03*
X1880001Y8230001D02*
D03*
X5110002Y7680000D02*
D03*
X1460002Y6720002D02*
D03*
X3259999Y6279998D02*
D03*
X3348553Y6288557D02*
D03*
X3480460Y6200049D02*
D03*
X3890000Y6410000D02*
D03*
X4200002Y8930000D02*
D03*
X4000002Y8699998D02*
D03*
X4549999Y9060002D02*
D03*
X4309999Y8370001D02*
D03*
X4460001Y8359999D02*
D03*
X3920002Y8599998D02*
D03*
X4071818Y8658179D02*
D03*
X3990000Y8299999D02*
D03*
X4069999Y8530001D02*
D03*
X1940001Y9140002D02*
D03*
X1070000Y9240002D02*
D03*
X3010002Y5610001D02*
D03*
X2879999Y5750001D02*
D03*
Y5819999D02*
D03*
X2389998Y7520000D02*
D03*
X3190001Y6279998D02*
D03*
X2990002Y6179998D02*
D03*
X2879999Y5910001D02*
D03*
X3150001Y5599999D02*
D03*
X3230001Y5610001D02*
D03*
X3256437Y5561772D02*
D03*
X3307608Y5541609D02*
D03*
X2879999Y6019998D02*
D03*
Y6099998D02*
D03*
D74*
X1005002Y9392498D02*
D03*
X845002D02*
D03*
X3777498Y6580002D02*
D03*
X3617498D02*
D03*
X3965001Y8020004D02*
D03*
X3805001D02*
D03*
X3418830Y4520199D02*
D03*
X3258830D02*
D03*
X4242501Y3634999D02*
D03*
X4082501D02*
D03*
X4212499Y3099999D02*
D03*
X4052499D02*
D03*
X4542500D02*
D03*
X4382501D02*
D03*
X5477500Y6865000D02*
D03*
X5637500D02*
D03*
X3379998Y9319997D02*
D03*
X3210001D02*
D03*
X3550112Y5542199D02*
D03*
X5245313Y4817400D02*
D03*
X1520002Y6370000D02*
D03*
X1680002D02*
D03*
X1382502Y5887898D02*
D03*
X1542501D02*
D03*
X1865000D02*
D03*
X1705000D02*
D03*
X3050002Y9319997D02*
D03*
X3539998D02*
D03*
X3132496Y7902504D02*
D03*
X2747503Y5962498D02*
D03*
X2587498D02*
D03*
X5240000Y7840000D02*
D03*
X5399999D02*
D03*
X5405313Y4817400D02*
D03*
X3297611Y6409700D02*
D03*
X3137611D02*
D03*
X3390108Y5542199D02*
D03*
X2972496Y7902504D02*
D03*
D77*
X1587500Y9700001D02*
D03*
Y9540001D02*
D03*
X3972499Y6580002D02*
D03*
Y6420002D02*
D03*
X2982498Y7697500D02*
D03*
Y7537501D02*
D03*
X3442828Y3952900D02*
D03*
Y4112900D02*
D03*
X3097530Y4003299D02*
D03*
Y3843299D02*
D03*
X3270331Y3685398D02*
D03*
Y3845403D02*
D03*
X3922502Y3270001D02*
D03*
Y3430001D02*
D03*
X4827504Y9337502D02*
D03*
Y9497502D02*
D03*
X5240000Y7529998D02*
D03*
Y7689997D02*
D03*
X3625108Y5732201D02*
D03*
X3620110Y6227201D02*
D03*
X3480110Y6352200D02*
D03*
X3782609Y5759699D02*
D03*
X3785108Y6249700D02*
D03*
X1912498Y6225002D02*
D03*
Y6065002D02*
D03*
X1374999Y6525001D02*
D03*
Y6365001D02*
D03*
X1202497Y3275005D02*
D03*
Y3435005D02*
D03*
X3850000Y8459998D02*
D03*
X3295112Y6972198D02*
D03*
X3135112D02*
D03*
X2747503Y6097499D02*
D03*
Y6257503D02*
D03*
X2919999Y6452499D02*
D03*
Y6612499D02*
D03*
X3625108Y5892201D02*
D03*
X3782609Y5919699D02*
D03*
X3785108Y6089701D02*
D03*
X3620110Y6067201D02*
D03*
X3480110Y6512199D02*
D03*
X3295112Y6812199D02*
D03*
X3135112D02*
D03*
X4480001Y7979999D02*
D03*
Y8139999D02*
D03*
X4635002Y7979999D02*
D03*
Y8139999D02*
D03*
X4287500Y9257502D02*
D03*
Y9097498D02*
D03*
X3850000Y8299999D02*
D03*
X4457502Y9257502D02*
D03*
Y9097498D02*
D03*
X3415030Y4668799D02*
D03*
Y4828799D02*
D03*
X3275330Y4668799D02*
D03*
Y4828799D02*
D03*
X3122930Y4676399D02*
D03*
Y4516399D02*
D03*
Y4224299D02*
D03*
Y4384299D02*
D03*
X3275330Y4224299D02*
D03*
Y4384299D02*
D03*
D78*
X4827499Y3800003D02*
D03*
Y4000002D02*
D03*
D79*
X3537610Y6752199D02*
D03*
X3137611Y6582202D02*
D03*
X3337611D02*
D03*
X3737610Y6752199D02*
D03*
D80*
X5000000Y2999999D02*
D03*
X999998D02*
D03*
X5000000Y7000001D02*
D03*
X999998D02*
D03*
D81*
X5005309Y6689400D02*
D03*
Y5165400D02*
D03*
D82*
X5627502Y8585002D02*
D03*
Y8834999D02*
D03*
Y9085001D02*
D03*
D83*
Y8335000D02*
D03*
D84*
X5322809Y5355900D02*
D03*
Y6498900D02*
D03*
D85*
X5640309Y5546400D02*
D03*
Y6562400D02*
D03*
X5830809Y5292400D02*
D03*
Y6308400D02*
D03*
D86*
X414000Y2516002D02*
D03*
Y484002D02*
D03*
Y1500002D02*
D03*
X4986000Y738002D02*
D03*
Y2262002D02*
D03*
Y1754002D02*
D03*
D87*
X5087620Y9507220D02*
D03*
X3271520Y9448800D02*
D03*
X2850002Y7700000D02*
D03*
X2387498Y7950002D02*
D03*
X4279997Y8837503D02*
D03*
X4540006Y8577499D02*
D03*
X2591481Y5730296D02*
D03*
X2480000Y5959998D02*
D03*
X3359323Y5799821D02*
D03*
X3430001Y6869999D02*
D03*
X3039999Y6749999D02*
D03*
X3330001Y6720002D02*
D03*
X3290001Y5870001D02*
D03*
X3360110Y5939699D02*
D03*
X3290001Y6010001D02*
D03*
X3360110Y6079698D02*
D03*
X3220110D02*
D03*
X2990002Y6700002D02*
D03*
X3880002Y6749999D02*
D03*
X3874999Y6580002D02*
D03*
X403753Y8545002D02*
D03*
Y9194998D02*
D03*
X1162502Y9627499D02*
D03*
X2427498Y9752498D02*
D03*
X3492500D02*
D03*
X4540001Y8707501D02*
D03*
X4475002Y8642497D02*
D03*
X4409999Y8837503D02*
D03*
X4540001D02*
D03*
X4279997Y8707501D02*
D03*
X4410004Y8577499D02*
D03*
X4279997D02*
D03*
X4344995Y8772505D02*
D03*
X4475002Y8772500D02*
D03*
X4345000Y8642497D02*
D03*
X4409999Y8707501D02*
D03*
X3079323Y5939820D02*
D03*
X3150001Y6010001D02*
D03*
X3219323Y5799821D02*
D03*
X3079323D02*
D03*
X3080111Y6079698D02*
D03*
X3150001Y5870001D02*
D03*
X3220110Y5939699D02*
D03*
X1649999Y6500002D02*
D03*
X1510000Y6070001D02*
D03*
X4209999Y3330001D02*
D03*
X4649998Y8477499D02*
D03*
X4645000Y8932499D02*
D03*
D88*
X1580002Y5399999D02*
D03*
X1869999D02*
D03*
X1727500Y5404805D02*
D03*
X4040002Y9429999D02*
D03*
X4989998Y3350001D02*
D03*
X2899999Y3059999D02*
D03*
X1240003D02*
D03*
X1856669Y4106667D02*
D03*
X2153331D02*
D03*
Y4403334D02*
D03*
X2301667Y4254998D02*
D03*
X1708333D02*
D03*
Y4551665D02*
D03*
Y3958331D02*
D03*
X2005000Y4551665D02*
D03*
Y4254998D02*
D03*
Y3958331D02*
D03*
X2301667Y4551665D02*
D03*
Y3958331D02*
D03*
X1856669Y4700001D02*
D03*
X2153331D02*
D03*
X2449998D02*
D03*
X1856669Y4403334D02*
D03*
X2449998D02*
D03*
Y4106667D02*
D03*
X1856669Y3810000D02*
D03*
X2153331D02*
D03*
X2449998D02*
D03*
X1560002D02*
D03*
Y4106667D02*
D03*
Y4403334D02*
D03*
Y4700001D02*
D03*
X4555002Y7792502D02*
D03*
X5267498Y8962502D02*
D03*
X5282499Y8457499D02*
D03*
X4229999Y7964998D02*
D03*
X4567499Y9767499D02*
D03*
D89*
X1083884Y5238181D02*
D03*
X4653879Y4408180D02*
D03*
X3450001Y3290001D02*
D03*
X5480497Y4092986D02*
D03*
D93*
X3220110Y5939699D02*
D03*
D94*
X3292099Y9625000D02*
D03*
X3492099D02*
D03*
X3392099D02*
D03*
X2827503D02*
D03*
X2727503D02*
D03*
X2627498D02*
D03*
X2527498D02*
D03*
X2427498D02*
D03*
X2327499D02*
D03*
D95*
X3622101Y9877501D02*
D03*
X3162102D02*
D03*
X2957500D02*
D03*
X2197501D02*
D03*
D96*
X531251Y9194998D02*
D03*
Y9094998D02*
D03*
Y8545002D02*
D03*
Y8245003D02*
D03*
Y8445002D02*
D03*
Y8345002D02*
D03*
D97*
X278750Y8965001D02*
D03*
Y9325000D02*
D03*
Y8674999D02*
D03*
Y8115000D02*
D03*
D98*
X752500Y7412502D02*
D03*
Y7712502D02*
D03*
X3987500Y8927501D02*
D03*
Y9227500D02*
D03*
D99*
X2092498Y3070001D02*
D03*
X1472499D02*
D03*
X2924932Y5040899D02*
D03*
X2304928D02*
D03*
X3119999Y3070001D02*
D03*
X2500000D02*
D03*
D100*
X4437502Y3845001D02*
D03*
Y4154998D02*
D03*
D101*
X4837501Y3350001D02*
D03*
X4537502D02*
D03*
D102*
X4342501Y3255000D02*
D03*
Y3350001D02*
D03*
Y3445002D02*
D03*
X4082501Y3255000D02*
D03*
Y3350001D02*
D03*
Y3445002D02*
D03*
X1642501Y6042899D02*
D03*
Y6137900D02*
D03*
Y6232901D02*
D03*
X1382502Y6042899D02*
D03*
Y6137900D02*
D03*
Y6232901D02*
D03*
D103*
X5699999Y2926202D02*
D03*
Y2306198D02*
D03*
Y1834002D02*
D03*
Y1213998D02*
D03*
D104*
X4829998Y8957498D02*
D03*
X5110002D02*
D03*
X4829998Y8457499D02*
D03*
X5110002D02*
D03*
D105*
X3535111Y6969699D02*
D03*
X3400110D02*
D03*
D106*
X397500Y4685000D02*
D03*
Y3205002D02*
D03*
D107*
X617499Y4445000D02*
D03*
Y4245000D02*
D03*
Y4045001D02*
D03*
Y3845001D02*
D03*
Y3445002D02*
D03*
Y3645002D02*
D03*
D108*
X1387500Y5637901D02*
D03*
X1727500D02*
D03*
X4562500Y9505000D02*
D03*
X4222501D02*
D03*
D109*
X1745000Y6570000D02*
D03*
X1554998Y6505001D02*
D03*
Y6634998D02*
D03*
D110*
X375001Y6245001D02*
D03*
X1174999D02*
D03*
D111*
X4260002Y8472500D02*
D03*
X4460001D02*
D03*
X4509999Y8942502D02*
D03*
X4260002D02*
D03*
X4309999Y8472500D02*
D03*
X4460001Y8942502D02*
D03*
X4409999Y8472500D02*
D03*
X4560001Y8942502D02*
D03*
Y8472500D02*
D03*
X4409999Y8942502D02*
D03*
X4360001D02*
D03*
X4309999D02*
D03*
X4360001Y8472500D02*
D03*
X4509999D02*
D03*
D112*
X2752496Y7540000D02*
D03*
X2212497Y7899999D02*
D03*
Y7540000D02*
D03*
D113*
X4082501Y4125001D02*
D03*
Y3874999D02*
D03*
D114*
X2752496Y7899999D02*
D03*
D115*
X4174998Y8707501D02*
D03*
Y8657499D02*
D03*
Y8807501D02*
D03*
Y8757498D02*
D03*
Y8557499D02*
D03*
X4645000Y8657499D02*
D03*
Y8757498D02*
D03*
X4174998Y8857498D02*
D03*
Y8607501D02*
D03*
X4645000Y8557499D02*
D03*
Y8607501D02*
D03*
Y8707501D02*
D03*
Y8807501D02*
D03*
Y8857498D02*
D03*
D116*
X4409999Y8707501D02*
D03*
D117*
X4232499Y8137500D02*
D03*
Y7797500D02*
D03*
D118*
X4827499Y3599998D02*
D03*
X4547499D02*
D03*
D119*
X1007501Y9555002D02*
D03*
Y9700001D02*
D03*
X1317498Y9554997D02*
D03*
Y9700001D02*
D03*
%TF.MD5,125479789863738ffadbc0f6a2e323db*%
M02*
