%TF.GenerationSoftware,Altium Limited,Altium Designer,20.1.12 (249)*%
G04 Layer_Color=16711935*
%FSLAX45Y45*%
%MOMM*%
%TF.SameCoordinates,0418086A-757F-42B6-A3B9-695331E80F4B*%
%TF.FilePolarity,Positive*%
%TF.FileFunction,Other,Mechanical_13*%
%TF.Part,Single*%
G01*
G75*
%TA.AperFunction,NonConductor*%
%ADD92C,0.07620*%
%ADD120C,0.10000*%
%ADD121C,0.02540*%
D92*
X3465609Y6175920D02*
X3380970Y6091281D01*
Y6175920D02*
X3465609Y6091281D01*
X3423289Y6175920D02*
Y6091281D01*
X3380970Y6133600D02*
X3465609D01*
X2481191Y3840750D02*
X2565830Y3925389D01*
Y3840750D02*
X2481191Y3925389D01*
X2523511Y3840750D02*
Y3925389D01*
X2565830Y3883070D02*
X2481191D01*
D120*
X4620000Y8867500D02*
G03*
X4620000Y8867500I-50000J0D01*
G01*
X3387608Y6929699D02*
X3547608D01*
Y7009699D01*
X3387608D02*
X3547608D01*
X3387608Y6929699D02*
Y7009699D01*
X4160002Y8957498D02*
X4660001D01*
X4160002Y8457499D02*
X4660001D01*
Y8957498D01*
X4160002Y8457499D02*
Y8957498D01*
D121*
X3340760Y6187349D02*
X3467760Y6060349D01*
Y5746659D02*
Y5777139D01*
Y5746659D02*
X3475380D01*
Y5777139D01*
X3467760D02*
X3475380D01*
X3467760Y5797459D02*
Y5827939D01*
Y5797459D02*
X3475380D01*
Y5827939D01*
X3467760D02*
X3475380D01*
X3467760Y5848259D02*
Y5878739D01*
Y5848259D02*
X3475380D01*
Y5878739D01*
X3467760D02*
X3475380D01*
X3467760Y5899059D02*
Y5929539D01*
Y5899059D02*
X3475380D01*
Y5929539D01*
X3467760D02*
X3475380D01*
X3467760Y5949859D02*
Y5980339D01*
Y5949859D02*
X3475380D01*
Y5980339D01*
X3467760D02*
X3475380D01*
X3467760Y6000659D02*
Y6031139D01*
Y6000659D02*
X3475380D01*
Y6031139D01*
X3467760D02*
X3475380D01*
X3467760Y6051459D02*
Y6081939D01*
Y6051459D02*
X3475380D01*
Y6081939D01*
X3467760D02*
X3475380D01*
X3467760Y6102259D02*
Y6132739D01*
Y6102259D02*
X3475380D01*
Y6132739D01*
X3467760D02*
X3475380D01*
X3382670Y6187349D02*
X3413150D01*
Y6194969D01*
X3382670D02*
X3413150D01*
X3382670Y6187349D02*
Y6194969D01*
X3331870Y6187349D02*
X3362350D01*
Y6194969D01*
X3331870D02*
X3362350D01*
X3331870Y6187349D02*
Y6194969D01*
X3281070Y6187349D02*
X3311550D01*
Y6194969D01*
X3281070D02*
X3311550D01*
X3281070Y6187349D02*
Y6194969D01*
X3230270Y6187349D02*
X3260750D01*
Y6194969D01*
X3230270D02*
X3260750D01*
X3230270Y6187349D02*
Y6194969D01*
X3179470Y6187349D02*
X3209950D01*
Y6194969D01*
X3179470D02*
X3209950D01*
X3179470Y6187349D02*
Y6194969D01*
X3128670Y6187349D02*
X3159150D01*
Y6194969D01*
X3128670D02*
X3159150D01*
X3128670Y6187349D02*
Y6194969D01*
X3077870Y6187349D02*
X3108350D01*
Y6194969D01*
X3077870D02*
X3108350D01*
X3077870Y6187349D02*
Y6194969D01*
X3027070Y6187349D02*
X3057550D01*
Y6194969D01*
X3027070D02*
X3057550D01*
X3027070Y6187349D02*
Y6194969D01*
X2972460Y6102259D02*
Y6132739D01*
X2964840D02*
X2972460D01*
X2964840Y6102259D02*
Y6132739D01*
Y6102259D02*
X2972460D01*
Y6051459D02*
Y6081939D01*
X2964840D02*
X2972460D01*
X2964840Y6051459D02*
Y6081939D01*
Y6051459D02*
X2972460D01*
Y6000659D02*
Y6031139D01*
X2964840D02*
X2972460D01*
X2964840Y6000659D02*
Y6031139D01*
Y6000659D02*
X2972460D01*
Y5949859D02*
Y5980339D01*
X2964840D02*
X2972460D01*
X2964840Y5949859D02*
Y5980339D01*
Y5949859D02*
X2972460D01*
Y5899059D02*
Y5929539D01*
X2964840D02*
X2972460D01*
X2964840Y5899059D02*
Y5929539D01*
Y5899059D02*
X2972460D01*
Y5848259D02*
Y5878739D01*
X2964840D02*
X2972460D01*
X2964840Y5848259D02*
Y5878739D01*
Y5848259D02*
X2972460D01*
Y5797459D02*
Y5827939D01*
X2964840D02*
X2972460D01*
X2964840Y5797459D02*
Y5827939D01*
Y5797459D02*
X2972460D01*
Y5746659D02*
Y5777139D01*
X2964840D02*
X2972460D01*
X2964840Y5746659D02*
Y5777139D01*
Y5746659D02*
X2972460D01*
X3027070Y5692049D02*
X3057550D01*
X3027070Y5684429D02*
Y5692049D01*
Y5684429D02*
X3057550D01*
Y5692049D01*
X3077870D02*
X3108350D01*
X3077870Y5684429D02*
Y5692049D01*
Y5684429D02*
X3108350D01*
Y5692049D01*
X3128670D02*
X3159150D01*
X3128670Y5684429D02*
Y5692049D01*
Y5684429D02*
X3159150D01*
Y5692049D01*
X3179470D02*
X3209950D01*
X3179470Y5684429D02*
Y5692049D01*
Y5684429D02*
X3209950D01*
Y5692049D01*
X3230270D02*
X3260750D01*
X3230270Y5684429D02*
Y5692049D01*
Y5684429D02*
X3260750D01*
Y5692049D01*
X3281070D02*
X3311550D01*
X3281070Y5684429D02*
Y5692049D01*
Y5684429D02*
X3311550D01*
Y5692049D01*
X3331870D02*
X3362350D01*
X3331870Y5684429D02*
Y5692049D01*
Y5684429D02*
X3362350D01*
Y5692049D01*
X3382670D02*
X3413150D01*
X3382670Y5684429D02*
Y5692049D01*
Y5684429D02*
X3413150D01*
Y5692049D01*
X2972460D02*
Y6187349D01*
Y5692049D02*
X3467760D01*
Y6187349D01*
X2972460D02*
X3467760D01*
X1537970Y3732799D02*
X2548890D01*
X1537970D02*
Y4774199D01*
X2548890D01*
Y3732799D02*
Y4774199D01*
Y4671329D02*
X2950210D01*
Y4597669D02*
Y4671329D01*
X2548890Y4597669D02*
X2950210D01*
X2548890D02*
Y4671329D01*
Y4544329D02*
X2950210D01*
Y4470669D02*
Y4544329D01*
X2548890Y4470669D02*
X2950210D01*
X2548890D02*
Y4544329D01*
Y4417329D02*
X2950210D01*
Y4343669D02*
Y4417329D01*
X2548890Y4343669D02*
X2950210D01*
X2548890D02*
Y4417329D01*
Y4290329D02*
X2950210D01*
Y4216669D02*
Y4290329D01*
X2548890Y4216669D02*
X2950210D01*
X2548890D02*
Y4290329D01*
Y4163329D02*
X2950210D01*
Y4089669D02*
Y4163329D01*
X2548890Y4089669D02*
X2950210D01*
X2548890D02*
Y4163329D01*
Y4036329D02*
X2950210D01*
Y3962669D02*
Y4036329D01*
X2548890Y3962669D02*
X2950210D01*
X2548890D02*
Y4036329D01*
Y3909329D02*
X2950210D01*
Y3835669D02*
Y3909329D01*
X2548890Y3835669D02*
X2950210D01*
X2548890D02*
Y3909329D01*
%TF.MD5,0a781675eea60d18a07417aa95cac02b*%
M02*
