%TF.GenerationSoftware,Altium Limited,Altium Designer,20.1.12 (249)*%
G04 Layer_Physical_Order=3*
G04 Layer_Color=16440176*
%FSLAX45Y45*%
%MOMM*%
%TF.SameCoordinates,0418086A-757F-42B6-A3B9-695331E80F4B*%
%TF.FilePolarity,Positive*%
%TF.FileFunction,Copper,L3,Inr,Signal*%
%TF.Part,Single*%
G01*
G75*
%TA.AperFunction,Conductor*%
%ADD48C,0.20000*%
%ADD49C,0.15000*%
%TA.AperFunction,ComponentPad*%
%ADD52C,1.40000*%
%TA.AperFunction,WasherPad*%
%ADD54C,1.20000*%
%TA.AperFunction,ComponentPad*%
%ADD55C,2.50000*%
%ADD56C,1.50000*%
%ADD57R,1.50000X1.50000*%
%ADD58C,3.30000*%
%ADD59C,1.80000*%
%ADD60R,2.30000X2.30000*%
%TA.AperFunction,ViaPad*%
%ADD61C,0.60000*%
%ADD62C,0.40000*%
%ADD63C,0.50000*%
%ADD64C,1.27000*%
%ADD65C,2.50000*%
G36*
X5974512Y3100000D02*
X5111978D01*
X5106579Y3106578D01*
X5083739Y3125323D01*
X5057680Y3139252D01*
X5029405Y3147829D01*
X5000000Y3150725D01*
X4970595Y3147829D01*
X4942320Y3139252D01*
X4916261Y3125323D01*
X4893421Y3106578D01*
X4888022Y3100000D01*
X4200000D01*
Y25488D01*
X25488D01*
Y9974512D01*
X5974512D01*
Y3100000D01*
D02*
G37*
%LPC*%
G36*
X3505200Y9780092D02*
Y9765198D01*
X3520095D01*
X3514129Y9774127D01*
X3505200Y9780092D01*
D02*
G37*
G36*
X3479800D02*
X3470871Y9774127D01*
X3464905Y9765198D01*
X3479800D01*
Y9780092D01*
D02*
G37*
G36*
X2440198D02*
Y9765198D01*
X2455093D01*
X2449127Y9774127D01*
X2440198Y9780092D01*
D02*
G37*
G36*
X2414798D02*
X2405869Y9774127D01*
X2399904Y9765198D01*
X2414798D01*
Y9780092D01*
D02*
G37*
G36*
X3520095Y9739798D02*
X3505200D01*
Y9724903D01*
X3514129Y9730869D01*
X3520095Y9739798D01*
D02*
G37*
G36*
X3479800D02*
X3464905D01*
X3470871Y9730869D01*
X3479800Y9724903D01*
Y9739798D01*
D02*
G37*
G36*
X2455093D02*
X2440198D01*
Y9724903D01*
X2449127Y9730869D01*
X2455093Y9739798D01*
D02*
G37*
G36*
X2414798D02*
X2399904D01*
X2405869Y9730869D01*
X2414798Y9724903D01*
Y9739798D01*
D02*
G37*
G36*
X1175202Y9655094D02*
Y9640199D01*
X1190097D01*
X1184131Y9649128D01*
X1175202Y9655094D01*
D02*
G37*
G36*
X1149802D02*
X1140873Y9649128D01*
X1134907Y9640199D01*
X1149802D01*
Y9655094D01*
D02*
G37*
G36*
X1190097Y9614799D02*
X1175202D01*
Y9599904D01*
X1184131Y9605870D01*
X1190097Y9614799D01*
D02*
G37*
G36*
X1149802D02*
X1134907D01*
X1140873Y9605870D01*
X1149802Y9599904D01*
Y9614799D01*
D02*
G37*
G36*
X5087620Y9558200D02*
X5068111Y9554319D01*
X5051572Y9543268D01*
X5040521Y9526729D01*
X5036640Y9507220D01*
X5040521Y9487711D01*
X5051572Y9471172D01*
X5068111Y9460121D01*
X5087620Y9456240D01*
X5107129Y9460121D01*
X5123668Y9471172D01*
X5134719Y9487711D01*
X5138600Y9507220D01*
X5134719Y9526729D01*
X5123668Y9543268D01*
X5107129Y9554319D01*
X5087620Y9558200D01*
D02*
G37*
G36*
X2530003Y9530782D02*
X2514395Y9527678D01*
X2501164Y9518837D01*
X2492323Y9505606D01*
X2489219Y9489999D01*
X2489407Y9489056D01*
X2408387Y9408040D01*
X1949999D01*
X1939269Y9405906D01*
X1930172Y9399828D01*
X1670173Y9139828D01*
X1664095Y9130732D01*
X1661961Y9120002D01*
Y7919999D01*
X1664095Y7909269D01*
X1670173Y7900173D01*
X1826904Y7743442D01*
X1826716Y7742499D01*
X1829820Y7726892D01*
X1838661Y7713661D01*
X1851892Y7704820D01*
X1867499Y7701716D01*
X1883107Y7704820D01*
X1896338Y7713661D01*
X1905179Y7726892D01*
X1908283Y7742499D01*
X1905179Y7758106D01*
X1896338Y7771338D01*
X1883107Y7780178D01*
X1867499Y7783283D01*
X1866556Y7783095D01*
X1718038Y7931613D01*
Y9108388D01*
X1961613Y9351963D01*
X2420000D01*
X2430730Y9354097D01*
X2439826Y9360175D01*
X2529058Y9449403D01*
X2530003Y9449215D01*
X2545610Y9452320D01*
X2558841Y9461160D01*
X2567682Y9474392D01*
X2570786Y9489999D01*
X2567682Y9505606D01*
X2558841Y9518837D01*
X2545610Y9527678D01*
X2530003Y9530782D01*
D02*
G37*
G36*
X4052702Y9492217D02*
Y9442699D01*
X4102220D01*
X4099818Y9454775D01*
X4085783Y9475780D01*
X4064779Y9489815D01*
X4052702Y9492217D01*
D02*
G37*
G36*
X4027302D02*
X4015226Y9489815D01*
X3994221Y9475780D01*
X3980186Y9454775D01*
X3977784Y9442699D01*
X4027302D01*
Y9492217D01*
D02*
G37*
G36*
X4102220Y9417299D02*
X4052702D01*
Y9367781D01*
X4064779Y9370183D01*
X4085783Y9384218D01*
X4099818Y9405222D01*
X4102220Y9417299D01*
D02*
G37*
G36*
X4027302D02*
X3977784D01*
X3980186Y9405222D01*
X3994221Y9384218D01*
X4015226Y9370183D01*
X4027302Y9367781D01*
Y9417299D01*
D02*
G37*
G36*
X416453Y9222593D02*
Y9207698D01*
X431348D01*
X425382Y9216627D01*
X416453Y9222593D01*
D02*
G37*
G36*
X391053D02*
X382124Y9216627D01*
X376159Y9207698D01*
X391053D01*
Y9222593D01*
D02*
G37*
G36*
X1070000Y9280785D02*
X1054393Y9277681D01*
X1041162Y9268840D01*
X1032321Y9255609D01*
X1029217Y9240002D01*
X1032321Y9224395D01*
X1041162Y9211163D01*
X1054393Y9202323D01*
X1070000Y9199218D01*
X1085608Y9202323D01*
X1098839Y9211163D01*
X1107680Y9224395D01*
X1110784Y9240002D01*
X1107680Y9255609D01*
X1098839Y9268840D01*
X1085608Y9277681D01*
X1070000Y9280785D01*
D02*
G37*
G36*
X431348Y9182298D02*
X416453D01*
Y9167403D01*
X425382Y9173369D01*
X431348Y9182298D01*
D02*
G37*
G36*
X391053D02*
X376159D01*
X382124Y9173369D01*
X391053Y9167403D01*
Y9182298D01*
D02*
G37*
G36*
X1940001Y9180786D02*
X1924394Y9177681D01*
X1911163Y9168840D01*
X1902322Y9155609D01*
X1899218Y9140002D01*
X1902322Y9124395D01*
X1911163Y9111164D01*
X1924394Y9102323D01*
X1940001Y9099219D01*
X1955608Y9102323D01*
X1968840Y9111164D01*
X1977680Y9124395D01*
X1980785Y9140002D01*
X1977680Y9155609D01*
X1968840Y9168840D01*
X1955608Y9177681D01*
X1940001Y9180786D01*
D02*
G37*
G36*
X2692502Y9100786D02*
X2676894Y9097681D01*
X2663663Y9088841D01*
X2654822Y9075609D01*
X2651718Y9060002D01*
X2654822Y9044395D01*
X2663663Y9031164D01*
X2676894Y9022323D01*
X2692502Y9019219D01*
X2708109Y9022323D01*
X2721340Y9031164D01*
X2730181Y9044395D01*
X2733285Y9060002D01*
X2730181Y9075609D01*
X2721340Y9088841D01*
X2708109Y9097681D01*
X2692502Y9100786D01*
D02*
G37*
G36*
X3660140Y9111160D02*
X3640631Y9107279D01*
X3624092Y9096228D01*
X3613041Y9079689D01*
X3609160Y9060180D01*
X3613041Y9040671D01*
X3624092Y9024132D01*
X3640631Y9013081D01*
X3660140Y9009200D01*
X3679649Y9013081D01*
X3696188Y9024132D01*
X3707239Y9040671D01*
X3711120Y9060180D01*
X3707239Y9079689D01*
X3696188Y9096228D01*
X3679649Y9107279D01*
X3660140Y9111160D01*
D02*
G37*
G36*
X1842699Y9052218D02*
Y9002700D01*
X1892217D01*
X1889815Y9014776D01*
X1875780Y9035781D01*
X1854775Y9049816D01*
X1842699Y9052218D01*
D02*
G37*
G36*
X1817299D02*
X1805222Y9049816D01*
X1784218Y9035781D01*
X1770183Y9014776D01*
X1767781Y9002700D01*
X1817299D01*
Y9052218D01*
D02*
G37*
G36*
X5627502Y9180820D02*
X5602702Y9177555D01*
X5579592Y9167983D01*
X5559748Y9152755D01*
X5544520Y9132911D01*
X5534948Y9109801D01*
X5531683Y9085001D01*
X5534948Y9060201D01*
X5544520Y9037091D01*
X5559748Y9017246D01*
X5579592Y9002019D01*
X5602702Y8992446D01*
X5627502Y8989181D01*
X5652302Y8992446D01*
X5675412Y9002019D01*
X5695257Y9017246D01*
X5710484Y9037091D01*
X5720057Y9060201D01*
X5723322Y9085001D01*
X5720057Y9109801D01*
X5710484Y9132911D01*
X5695257Y9152755D01*
X5675412Y9167983D01*
X5652302Y9177555D01*
X5627502Y9180820D01*
D02*
G37*
G36*
X5280198Y9024720D02*
Y8975202D01*
X5329716D01*
X5327313Y8987278D01*
X5313279Y9008283D01*
X5292274Y9022317D01*
X5280198Y9024720D01*
D02*
G37*
G36*
X5254798D02*
X5242721Y9022317D01*
X5221717Y9008283D01*
X5207682Y8987278D01*
X5205280Y8975202D01*
X5254798D01*
Y9024720D01*
D02*
G37*
G36*
X1892217Y8977300D02*
X1842699D01*
Y8927782D01*
X1854775Y8930184D01*
X1875780Y8944219D01*
X1889815Y8965223D01*
X1892217Y8977300D01*
D02*
G37*
G36*
X1817299D02*
X1767781D01*
X1770183Y8965223D01*
X1784218Y8944219D01*
X1805222Y8930184D01*
X1817299Y8927782D01*
Y8977300D01*
D02*
G37*
G36*
X5329716Y8949802D02*
X5280198D01*
Y8900284D01*
X5292274Y8902686D01*
X5313279Y8916721D01*
X5327313Y8937725D01*
X5329716Y8949802D01*
D02*
G37*
G36*
X5254798D02*
X5205280D01*
X5207682Y8937725D01*
X5221717Y8916721D01*
X5242721Y8902686D01*
X5254798Y8900284D01*
Y8949802D01*
D02*
G37*
G36*
X4200002Y8970783D02*
X4184394Y8967679D01*
X4171163Y8958838D01*
X4162323Y8945607D01*
X4159218Y8930000D01*
X4162323Y8914393D01*
X4171163Y8901162D01*
X4184394Y8892321D01*
X4200002Y8889216D01*
X4215609Y8892321D01*
X4228840Y8901162D01*
X4237681Y8914393D01*
X4240785Y8930000D01*
X4237681Y8945607D01*
X4228840Y8958838D01*
X4215609Y8967679D01*
X4200002Y8970783D01*
D02*
G37*
G36*
X2762702Y8932218D02*
Y8882700D01*
X2812220D01*
X2809818Y8894776D01*
X2795783Y8915781D01*
X2774779Y8929816D01*
X2762702Y8932218D01*
D02*
G37*
G36*
X2737302D02*
X2725226Y8929816D01*
X2704221Y8915781D01*
X2690186Y8894776D01*
X2687784Y8882700D01*
X2737302D01*
Y8932218D01*
D02*
G37*
G36*
X4552701Y8865098D02*
Y8850203D01*
X4567596D01*
X4561630Y8859132D01*
X4552701Y8865098D01*
D02*
G37*
G36*
X4527301D02*
X4518372Y8859132D01*
X4512406Y8850203D01*
X4527301D01*
Y8865098D01*
D02*
G37*
G36*
X4422699D02*
Y8850203D01*
X4437594D01*
X4431628Y8859132D01*
X4422699Y8865098D01*
D02*
G37*
G36*
X4397299D02*
X4388370Y8859132D01*
X4382404Y8850203D01*
X4397299D01*
Y8865098D01*
D02*
G37*
G36*
X4292697D02*
Y8850203D01*
X4307591D01*
X4301625Y8859132D01*
X4292697Y8865098D01*
D02*
G37*
G36*
X4267297D02*
X4258368Y8859132D01*
X4252402Y8850203D01*
X4267297D01*
Y8865098D01*
D02*
G37*
G36*
X4567596Y8824803D02*
X4552701D01*
Y8809908D01*
X4561630Y8815874D01*
X4567596Y8824803D01*
D02*
G37*
G36*
X4527301D02*
X4512406D01*
X4518372Y8815874D01*
X4527301Y8809908D01*
Y8824803D01*
D02*
G37*
G36*
X4437594D02*
X4422699D01*
Y8809908D01*
X4431628Y8815874D01*
X4437594Y8824803D01*
D02*
G37*
G36*
X4397299D02*
X4382404D01*
X4388370Y8815874D01*
X4397299Y8809908D01*
Y8824803D01*
D02*
G37*
G36*
X4307591D02*
X4292697D01*
Y8809908D01*
X4301625Y8815874D01*
X4307591Y8824803D01*
D02*
G37*
G36*
X4267297D02*
X4252402D01*
X4258368Y8815874D01*
X4267297Y8809908D01*
Y8824803D01*
D02*
G37*
G36*
X2812220Y8857300D02*
X2762702D01*
Y8807782D01*
X2774779Y8810184D01*
X2795783Y8824219D01*
X2809818Y8845224D01*
X2812220Y8857300D01*
D02*
G37*
G36*
X2737302D02*
X2687784D01*
X2690186Y8845224D01*
X2704221Y8824219D01*
X2725226Y8810184D01*
X2737302Y8807782D01*
Y8857300D01*
D02*
G37*
G36*
X4357695Y8800099D02*
Y8785205D01*
X4372590D01*
X4366624Y8794134D01*
X4357695Y8800099D01*
D02*
G37*
G36*
X4332295D02*
X4323366Y8794134D01*
X4317400Y8785205D01*
X4332295D01*
Y8800099D01*
D02*
G37*
G36*
X4487702Y8800094D02*
Y8785200D01*
X4502597D01*
X4496631Y8794128D01*
X4487702Y8800094D01*
D02*
G37*
G36*
X4462302D02*
X4453374Y8794128D01*
X4447408Y8785200D01*
X4462302D01*
Y8800094D01*
D02*
G37*
G36*
X4372590Y8759805D02*
X4357695D01*
Y8744910D01*
X4366624Y8750876D01*
X4372590Y8759805D01*
D02*
G37*
G36*
X4332295D02*
X4317400D01*
X4323366Y8750876D01*
X4332295Y8744910D01*
Y8759805D01*
D02*
G37*
G36*
X4502597Y8759800D02*
X4487702D01*
Y8744905D01*
X4496631Y8750871D01*
X4502597Y8759800D01*
D02*
G37*
G36*
X4462302D02*
X4447408D01*
X4453374Y8750871D01*
X4462302Y8744905D01*
Y8759800D01*
D02*
G37*
G36*
X5627502Y8930818D02*
X5602702Y8927553D01*
X5579592Y8917981D01*
X5559748Y8902753D01*
X5544520Y8882909D01*
X5534948Y8859799D01*
X5531683Y8834999D01*
X5534948Y8810199D01*
X5544520Y8787089D01*
X5559748Y8767244D01*
X5579592Y8752017D01*
X5602702Y8742444D01*
X5627502Y8739179D01*
X5652302Y8742444D01*
X5675412Y8752017D01*
X5695257Y8767244D01*
X5710484Y8787089D01*
X5720057Y8810199D01*
X5723322Y8834999D01*
X5720057Y8859799D01*
X5710484Y8882909D01*
X5695257Y8902753D01*
X5675412Y8917981D01*
X5652302Y8927553D01*
X5627502Y8930818D01*
D02*
G37*
G36*
X2157486Y8865869D02*
X2139928Y8862376D01*
X2125043Y8852431D01*
X2115097Y8837545D01*
X2112064Y8822298D01*
X2099943Y8819887D01*
X2085058Y8809941D01*
X2075112Y8795056D01*
X2071620Y8777498D01*
X2075112Y8759940D01*
X2085058Y8745055D01*
X2099943Y8735109D01*
X2117501Y8731617D01*
X2135059Y8735109D01*
X2149945Y8745055D01*
X2159891Y8759940D01*
X2162923Y8775187D01*
X2175044Y8777598D01*
X2189929Y8787544D01*
X2199875Y8802429D01*
X2203368Y8819987D01*
X2199875Y8837545D01*
X2189929Y8852431D01*
X2175044Y8862376D01*
X2157486Y8865869D01*
D02*
G37*
G36*
X4552701Y8735096D02*
Y8720201D01*
X4567596D01*
X4561630Y8729130D01*
X4552701Y8735096D01*
D02*
G37*
G36*
X4527301D02*
X4518372Y8729130D01*
X4512406Y8720201D01*
X4527301D01*
Y8735096D01*
D02*
G37*
G36*
X4422699D02*
Y8720201D01*
X4437594D01*
X4431628Y8729130D01*
X4422699Y8735096D01*
D02*
G37*
G36*
X4397299D02*
X4388370Y8729130D01*
X4382404Y8720201D01*
X4397299D01*
Y8735096D01*
D02*
G37*
G36*
X4292697D02*
Y8720201D01*
X4307591D01*
X4301625Y8729130D01*
X4292697Y8735096D01*
D02*
G37*
G36*
X4267297D02*
X4258368Y8729130D01*
X4252402Y8720201D01*
X4267297D01*
Y8735096D01*
D02*
G37*
G36*
X4567596Y8694801D02*
X4552701D01*
Y8679906D01*
X4561630Y8685872D01*
X4567596Y8694801D01*
D02*
G37*
G36*
X4527301D02*
X4512406D01*
X4518372Y8685872D01*
X4527301Y8679906D01*
Y8694801D01*
D02*
G37*
G36*
X4437594D02*
X4422699D01*
Y8679906D01*
X4431628Y8685872D01*
X4437594Y8694801D01*
D02*
G37*
G36*
X4397299D02*
X4382404D01*
X4388370Y8685872D01*
X4397299Y8679906D01*
Y8694801D01*
D02*
G37*
G36*
X4307591D02*
X4292697D01*
Y8679906D01*
X4301625Y8685872D01*
X4307591Y8694801D01*
D02*
G37*
G36*
X4267297D02*
X4252402D01*
X4258368Y8685872D01*
X4267297Y8679906D01*
Y8694801D01*
D02*
G37*
G36*
X4487702Y8670092D02*
Y8655197D01*
X4502597D01*
X4496631Y8664126D01*
X4487702Y8670092D01*
D02*
G37*
G36*
X4462302D02*
X4453374Y8664126D01*
X4447408Y8655197D01*
X4462302D01*
Y8670092D01*
D02*
G37*
G36*
X4357700D02*
Y8655197D01*
X4372595D01*
X4366629Y8664126D01*
X4357700Y8670092D01*
D02*
G37*
G36*
X4332300D02*
X4323371Y8664126D01*
X4317405Y8655197D01*
X4332300D01*
Y8670092D01*
D02*
G37*
G36*
X4000002Y8740781D02*
X3984395Y8737677D01*
X3971164Y8728836D01*
X3962323Y8715605D01*
X3959219Y8699998D01*
X3962323Y8684391D01*
X3971164Y8671159D01*
X3984395Y8662319D01*
X4000002Y8659214D01*
X4015609Y8662319D01*
X4019415Y8664861D01*
X4031035Y8658179D01*
X4034139Y8642572D01*
X4042980Y8629341D01*
X4056211Y8620500D01*
X4071818Y8617396D01*
X4087425Y8620500D01*
X4100657Y8629341D01*
X4109497Y8642572D01*
X4112602Y8658179D01*
X4109497Y8673787D01*
X4100657Y8687018D01*
X4087425Y8695858D01*
X4071818Y8698963D01*
X4056211Y8695858D01*
X4052405Y8693316D01*
X4040786Y8699998D01*
X4037681Y8715605D01*
X4028841Y8728836D01*
X4015609Y8737677D01*
X4000002Y8740781D01*
D02*
G37*
G36*
X4502597Y8629797D02*
X4487702D01*
Y8614903D01*
X4496631Y8620868D01*
X4502597Y8629797D01*
D02*
G37*
G36*
X4462302D02*
X4447408D01*
X4453374Y8620868D01*
X4462302Y8614903D01*
Y8629797D01*
D02*
G37*
G36*
X4372595D02*
X4357700D01*
Y8614903D01*
X4366629Y8620868D01*
X4372595Y8629797D01*
D02*
G37*
G36*
X4332300D02*
X4317405D01*
X4323371Y8620868D01*
X4332300Y8614903D01*
Y8629797D01*
D02*
G37*
G36*
X3619998Y8790883D02*
X3602440Y8787391D01*
X3587555Y8777445D01*
X3577609Y8762560D01*
X3574116Y8745002D01*
X3577609Y8727444D01*
X3587555Y8712559D01*
Y8709941D01*
X3577609Y8695057D01*
X3574116Y8677499D01*
X3577100Y8662500D01*
X3574116Y8647501D01*
X3577609Y8629943D01*
X3587555Y8615058D01*
X3602440Y8605112D01*
X3619998Y8601620D01*
X3637556Y8605112D01*
X3652441Y8615058D01*
X3662387Y8629943D01*
X3665879Y8647501D01*
X3662896Y8662500D01*
X3665879Y8677499D01*
X3662387Y8695057D01*
X3652441Y8709941D01*
Y8712559D01*
X3662387Y8727444D01*
X3665879Y8745002D01*
X3662387Y8762560D01*
X3652441Y8777445D01*
X3637556Y8787391D01*
X3619998Y8790883D01*
D02*
G37*
G36*
X4552706Y8605094D02*
Y8590199D01*
X4567601D01*
X4561635Y8599128D01*
X4552706Y8605094D01*
D02*
G37*
G36*
X4527306D02*
X4518377Y8599128D01*
X4512411Y8590199D01*
X4527306D01*
Y8605094D01*
D02*
G37*
G36*
X4422704D02*
Y8590199D01*
X4437599D01*
X4431633Y8599128D01*
X4422704Y8605094D01*
D02*
G37*
G36*
X4397304D02*
X4388375Y8599128D01*
X4382409Y8590199D01*
X4397304D01*
Y8605094D01*
D02*
G37*
G36*
X4292697D02*
Y8590199D01*
X4307591D01*
X4301625Y8599128D01*
X4292697Y8605094D01*
D02*
G37*
G36*
X4267297D02*
X4258368Y8599128D01*
X4252402Y8590199D01*
X4267297D01*
Y8605094D01*
D02*
G37*
G36*
X416453Y8572597D02*
Y8557702D01*
X431348D01*
X425382Y8566631D01*
X416453Y8572597D01*
D02*
G37*
G36*
X391053D02*
X382124Y8566631D01*
X376159Y8557702D01*
X391053D01*
Y8572597D01*
D02*
G37*
G36*
X4567601Y8564799D02*
X4552706D01*
Y8549904D01*
X4561635Y8555870D01*
X4567601Y8564799D01*
D02*
G37*
G36*
X4527306D02*
X4512411D01*
X4518377Y8555870D01*
X4527306Y8549904D01*
Y8564799D01*
D02*
G37*
G36*
X4437599D02*
X4422704D01*
Y8549904D01*
X4431633Y8555870D01*
X4437599Y8564799D01*
D02*
G37*
G36*
X4397304D02*
X4382409D01*
X4388375Y8555870D01*
X4397304Y8549904D01*
Y8564799D01*
D02*
G37*
G36*
X4307591D02*
X4292697D01*
Y8549904D01*
X4301625Y8555870D01*
X4307591Y8564799D01*
D02*
G37*
G36*
X4267297D02*
X4252402D01*
X4258368Y8555870D01*
X4267297Y8549904D01*
Y8564799D01*
D02*
G37*
G36*
X2607498Y8710784D02*
X2591891Y8707680D01*
X2578660Y8698839D01*
X2569819Y8685608D01*
X2566714Y8670000D01*
X2569819Y8654393D01*
X2578660Y8641162D01*
X2583934Y8637638D01*
Y8622363D01*
X2578660Y8618839D01*
X2569819Y8605608D01*
X2566714Y8590001D01*
X2569819Y8574393D01*
X2578660Y8561162D01*
X2591891Y8552321D01*
X2607498Y8549217D01*
X2623105Y8552321D01*
X2636336Y8561162D01*
X2645177Y8574393D01*
X2648281Y8590001D01*
X2645177Y8605608D01*
X2636336Y8618839D01*
X2631062Y8622363D01*
Y8637638D01*
X2636336Y8641162D01*
X2645177Y8654393D01*
X2648281Y8670000D01*
X2645177Y8685608D01*
X2636336Y8698839D01*
X2623105Y8707680D01*
X2607498Y8710784D01*
D02*
G37*
G36*
X431348Y8532302D02*
X416453D01*
Y8517407D01*
X425382Y8523373D01*
X431348Y8532302D01*
D02*
G37*
G36*
X391053D02*
X376159D01*
X382124Y8523373D01*
X391053Y8517407D01*
Y8532302D01*
D02*
G37*
G36*
X5627502Y8680821D02*
X5602702Y8677556D01*
X5579592Y8667984D01*
X5559748Y8652756D01*
X5544520Y8632912D01*
X5534948Y8609802D01*
X5531683Y8585002D01*
X5534948Y8560202D01*
X5544520Y8537092D01*
X5559748Y8517247D01*
X5579592Y8502020D01*
X5602702Y8492447D01*
X5627502Y8489182D01*
X5652302Y8492447D01*
X5675412Y8502020D01*
X5695257Y8517247D01*
X5710484Y8537092D01*
X5720057Y8560202D01*
X5723322Y8585002D01*
X5720057Y8609802D01*
X5710484Y8632912D01*
X5695257Y8652756D01*
X5675412Y8667984D01*
X5652302Y8677556D01*
X5627502Y8680821D01*
D02*
G37*
G36*
X5295199Y8519717D02*
Y8470199D01*
X5344717D01*
X5342315Y8482275D01*
X5328280Y8503280D01*
X5307275Y8517315D01*
X5295199Y8519717D01*
D02*
G37*
G36*
X5269799D02*
X5257723Y8517315D01*
X5236718Y8503280D01*
X5222683Y8482275D01*
X5220281Y8470199D01*
X5269799D01*
Y8519717D01*
D02*
G37*
G36*
X1800001Y8490784D02*
X1784394Y8487680D01*
X1771163Y8478839D01*
X1762322Y8465608D01*
X1759218Y8450001D01*
X1762322Y8434394D01*
X1771163Y8421162D01*
X1784394Y8412322D01*
X1800001Y8409217D01*
X1815609Y8412322D01*
X1828840Y8421162D01*
X1837681Y8434394D01*
X1840785Y8450001D01*
X1837681Y8465608D01*
X1828840Y8478839D01*
X1815609Y8487680D01*
X1800001Y8490784D01*
D02*
G37*
G36*
X5344717Y8444799D02*
X5295199D01*
Y8395281D01*
X5307275Y8397683D01*
X5328280Y8411718D01*
X5342315Y8432723D01*
X5344717Y8444799D01*
D02*
G37*
G36*
X5269799D02*
X5220281D01*
X5222683Y8432723D01*
X5236718Y8411718D01*
X5257723Y8397683D01*
X5269799Y8395281D01*
Y8444799D01*
D02*
G37*
G36*
X4309999Y8410785D02*
X4294392Y8407680D01*
X4281161Y8398839D01*
X4272320Y8385608D01*
X4269215Y8370001D01*
X4272320Y8354394D01*
X4281161Y8341163D01*
X4294392Y8332322D01*
X4309999Y8329218D01*
X4325606Y8332322D01*
X4338837Y8341163D01*
X4347678Y8354394D01*
X4350783Y8370001D01*
X4347678Y8385608D01*
X4338837Y8398839D01*
X4325606Y8407680D01*
X4309999Y8410785D01*
D02*
G37*
G36*
X4460001Y8400782D02*
X4444394Y8397678D01*
X4431163Y8388837D01*
X4422322Y8375606D01*
X4419218Y8359999D01*
X4422322Y8344391D01*
X4431163Y8331160D01*
X4444394Y8322319D01*
X4460001Y8319215D01*
X4475609Y8322319D01*
X4488840Y8331160D01*
X4497680Y8344391D01*
X4500785Y8359999D01*
X4497680Y8375606D01*
X4488840Y8388837D01*
X4475609Y8397678D01*
X4460001Y8400782D01*
D02*
G37*
G36*
X3990000Y8340782D02*
X3974392Y8337678D01*
X3961161Y8328837D01*
X3960627Y8328037D01*
X2089998D01*
X2079269Y8325903D01*
X2070172Y8319825D01*
X2057059Y8306711D01*
X2055608Y8307680D01*
X2040001Y8310785D01*
X2024394Y8307680D01*
X2011163Y8298840D01*
X2002322Y8285609D01*
X1999217Y8270001D01*
X2002322Y8254394D01*
X2011163Y8241163D01*
X2024394Y8232322D01*
X2040001Y8229218D01*
X2055608Y8232322D01*
X2068839Y8241163D01*
X2070856Y8244180D01*
X2079827Y8250175D01*
X2101612Y8271960D01*
X2132084D01*
X2140141Y8262143D01*
X2139217Y8257499D01*
X2142322Y8241892D01*
X2151162Y8228661D01*
X2164393Y8219820D01*
X2180001Y8216716D01*
X2195608Y8219820D01*
X2199885Y8222678D01*
X2210001Y8228045D01*
X2220116Y8222678D01*
X2224393Y8219820D01*
X2240001Y8216716D01*
X2255608Y8219820D01*
X2266797Y8227296D01*
X2274999Y8228555D01*
X2283202Y8227296D01*
X2294391Y8219820D01*
X2309998Y8216716D01*
X2325605Y8219820D01*
X2338836Y8228661D01*
X2347677Y8241892D01*
X2350781Y8257499D01*
X2349858Y8262143D01*
X2357915Y8271960D01*
X2847200D01*
X2853106Y8259260D01*
X2847324Y8250607D01*
X2844220Y8235000D01*
X2846727Y8222396D01*
X2841982Y8214207D01*
X2838059Y8210399D01*
X2824392Y8207681D01*
X2811161Y8198840D01*
X2802320Y8185609D01*
X2799216Y8170001D01*
X2802320Y8154394D01*
X2811161Y8141163D01*
X2824392Y8132322D01*
X2839999Y8129218D01*
X2855607Y8132322D01*
X2868838Y8141163D01*
X2877679Y8154394D01*
X2880783Y8170001D01*
X2878276Y8182606D01*
X2883020Y8190794D01*
X2886943Y8194602D01*
X2900610Y8197321D01*
X2913842Y8206162D01*
X2922682Y8219393D01*
X2925787Y8235000D01*
X2922682Y8250607D01*
X2916901Y8259260D01*
X2922806Y8271960D01*
X3960627D01*
X3961161Y8271160D01*
X3974392Y8262320D01*
X3990000Y8259215D01*
X4005607Y8262320D01*
X4018838Y8271160D01*
X4027679Y8284391D01*
X4030783Y8299999D01*
X4027679Y8315606D01*
X4018838Y8328837D01*
X4005607Y8337678D01*
X3990000Y8340782D01*
D02*
G37*
G36*
X5722502Y8430000D02*
X5532502D01*
Y8240000D01*
X5722502D01*
Y8430000D01*
D02*
G37*
G36*
X1490000Y8463381D02*
X1472442Y8459888D01*
X1457556Y8449942D01*
X1447611Y8435057D01*
X1444118Y8417499D01*
X1447611Y8399941D01*
X1451707Y8393810D01*
X1456884Y8383750D01*
X1451707Y8373690D01*
X1447611Y8367559D01*
X1444118Y8350001D01*
X1447611Y8332443D01*
X1457556Y8317558D01*
Y8314941D01*
X1447611Y8300056D01*
X1444118Y8282498D01*
X1447611Y8264940D01*
X1457556Y8250055D01*
X1472442Y8240109D01*
X1490000Y8236616D01*
X1507558Y8240109D01*
X1522443Y8250055D01*
X1532389Y8264940D01*
X1535881Y8282498D01*
X1532389Y8300056D01*
X1522443Y8314941D01*
Y8317558D01*
X1532389Y8332443D01*
X1535881Y8350001D01*
X1532389Y8367559D01*
X1528292Y8373690D01*
X1523115Y8383750D01*
X1528292Y8393810D01*
X1532389Y8399941D01*
X1535881Y8417499D01*
X1532389Y8435057D01*
X1522443Y8449942D01*
X1507558Y8459888D01*
X1490000Y8463381D01*
D02*
G37*
G36*
X1192698Y8249522D02*
Y8200004D01*
X1242215D01*
X1239813Y8212080D01*
X1225779Y8233085D01*
X1204774Y8247120D01*
X1192698Y8249522D01*
D02*
G37*
G36*
X1167298D02*
X1155221Y8247120D01*
X1134217Y8233085D01*
X1120182Y8212080D01*
X1117780Y8200004D01*
X1167298D01*
Y8249522D01*
D02*
G37*
G36*
X1909999Y8320782D02*
X1894391Y8317678D01*
X1881160Y8308837D01*
X1872320Y8295606D01*
X1869215Y8279999D01*
X1871389Y8269072D01*
X1864394Y8267680D01*
X1851163Y8258840D01*
X1842322Y8245609D01*
X1839218Y8230001D01*
X1842322Y8214394D01*
X1851163Y8201163D01*
X1864394Y8192322D01*
X1880001Y8189218D01*
X1895609Y8192322D01*
X1908840Y8201163D01*
X1917680Y8214394D01*
X1920785Y8230001D01*
X1918611Y8240928D01*
X1925606Y8242320D01*
X1938837Y8251160D01*
X1947678Y8264391D01*
X1950782Y8279999D01*
X1947678Y8295606D01*
X1938837Y8308837D01*
X1925606Y8317678D01*
X1909999Y8320782D01*
D02*
G37*
G36*
X3059999Y8170785D02*
X3044392Y8167681D01*
X3040114Y8164823D01*
X3029999Y8159456D01*
X3019884Y8164823D01*
X3015606Y8167681D01*
X2999999Y8170785D01*
X2984392Y8167681D01*
X2980114Y8164823D01*
X2969999Y8159456D01*
X2959884Y8164823D01*
X2955606Y8167681D01*
X2939999Y8170785D01*
X2924392Y8167681D01*
X2911161Y8158840D01*
X2902320Y8145609D01*
X2899216Y8130002D01*
X2902320Y8114394D01*
X2911161Y8101163D01*
X2924392Y8092322D01*
X2939999Y8089218D01*
X2955606Y8092322D01*
X2959884Y8095180D01*
X2969999Y8100547D01*
X2980114Y8095180D01*
X2984392Y8092322D01*
X2999999Y8089218D01*
X3015606Y8092322D01*
X3019884Y8095180D01*
X3029999Y8100547D01*
X3040114Y8095180D01*
X3044392Y8092322D01*
X3059999Y8089218D01*
X3075606Y8092322D01*
X3088837Y8101163D01*
X3097678Y8114394D01*
X3100782Y8130002D01*
X3097678Y8145609D01*
X3088837Y8158840D01*
X3075606Y8167681D01*
X3059999Y8170785D01*
D02*
G37*
G36*
X1242215Y8174604D02*
X1192698D01*
Y8125086D01*
X1204774Y8127488D01*
X1225779Y8141523D01*
X1239813Y8162527D01*
X1242215Y8174604D01*
D02*
G37*
G36*
X1167298D02*
X1117780D01*
X1120182Y8162527D01*
X1134217Y8141523D01*
X1155221Y8127488D01*
X1167298Y8125086D01*
Y8174604D01*
D02*
G37*
G36*
X4069999Y8180782D02*
X4054392Y8177678D01*
X4041161Y8168837D01*
X4032320Y8155606D01*
X4029216Y8139999D01*
X4032320Y8124392D01*
X4041161Y8111161D01*
X4054392Y8102320D01*
X4069999Y8099215D01*
X4085607Y8102320D01*
X4098838Y8111161D01*
X4107679Y8124392D01*
X4110783Y8139999D01*
X4107679Y8155606D01*
X4098838Y8168837D01*
X4085607Y8177678D01*
X4069999Y8180782D01*
D02*
G37*
G36*
X1962699Y8102217D02*
Y8052699D01*
X2012216D01*
X2009814Y8064776D01*
X1995780Y8085780D01*
X1974775Y8099815D01*
X1962699Y8102217D01*
D02*
G37*
G36*
X1937299D02*
X1925222Y8099815D01*
X1904218Y8085780D01*
X1890183Y8064776D01*
X1887781Y8052699D01*
X1937299D01*
Y8102217D01*
D02*
G37*
G36*
X3739998Y8120783D02*
X3724390Y8117678D01*
X3711159Y8108837D01*
X3702318Y8095606D01*
X3699214Y8079999D01*
X3702318Y8064392D01*
X3711159Y8051161D01*
X3724390Y8042320D01*
X3739998Y8039216D01*
X3755605Y8042320D01*
X3768836Y8051161D01*
X3777677Y8064392D01*
X3780781Y8079999D01*
X3777677Y8095606D01*
X3768836Y8108837D01*
X3755605Y8117678D01*
X3739998Y8120783D01*
D02*
G37*
G36*
X2012216Y8027299D02*
X1962699D01*
Y7977781D01*
X1974775Y7980183D01*
X1995780Y7994218D01*
X2009814Y8015223D01*
X2012216Y8027299D01*
D02*
G37*
G36*
X1937299D02*
X1887781D01*
X1890183Y8015223D01*
X1904218Y7994218D01*
X1925222Y7980183D01*
X1937299Y7977781D01*
Y8027299D01*
D02*
G37*
G36*
X2400198Y7977597D02*
Y7962702D01*
X2415093D01*
X2409127Y7971631D01*
X2400198Y7977597D01*
D02*
G37*
G36*
X2374798D02*
X2365870Y7971631D01*
X2359904Y7962702D01*
X2374798D01*
Y7977597D01*
D02*
G37*
G36*
X2415093Y7937302D02*
X2400198D01*
Y7922407D01*
X2409127Y7928373D01*
X2415093Y7937302D01*
D02*
G37*
G36*
X2374798D02*
X2359904D01*
X2365870Y7928373D01*
X2374798Y7922407D01*
Y7937302D01*
D02*
G37*
G36*
X4567702Y7854719D02*
Y7805202D01*
X4617220D01*
X4614818Y7817278D01*
X4600783Y7838283D01*
X4579779Y7852317D01*
X4567702Y7854719D01*
D02*
G37*
G36*
X4542302D02*
X4530226Y7852317D01*
X4509221Y7838283D01*
X4495187Y7817278D01*
X4492785Y7805202D01*
X4542302D01*
Y7854719D01*
D02*
G37*
G36*
X1909999Y7880783D02*
X1894391Y7877679D01*
X1881160Y7868838D01*
X1872320Y7855607D01*
X1869215Y7840000D01*
X1872320Y7824392D01*
X1881160Y7811161D01*
X1894391Y7802320D01*
X1909999Y7799216D01*
X1925606Y7802320D01*
X1938837Y7811161D01*
X1947678Y7824392D01*
X1950782Y7840000D01*
X1947678Y7855607D01*
X1938837Y7868838D01*
X1925606Y7877679D01*
X1909999Y7880783D01*
D02*
G37*
G36*
X4617220Y7779802D02*
X4567702D01*
Y7730284D01*
X4579779Y7732686D01*
X4600783Y7746721D01*
X4614818Y7767725D01*
X4617220Y7779802D01*
D02*
G37*
G36*
X4542302D02*
X4492785D01*
X4495187Y7767725D01*
X4509221Y7746721D01*
X4530226Y7732686D01*
X4542302Y7730284D01*
Y7779802D01*
D02*
G37*
G36*
X5697703Y7750759D02*
Y7725202D01*
X5723260D01*
X5722682Y7728109D01*
X5713841Y7741340D01*
X5700610Y7750181D01*
X5697703Y7750759D01*
D02*
G37*
G36*
X5672303D02*
X5669395Y7750181D01*
X5656164Y7741340D01*
X5647323Y7728109D01*
X5646745Y7725202D01*
X5672303D01*
Y7750759D01*
D02*
G37*
G36*
X2862702Y7727595D02*
Y7712700D01*
X2877597D01*
X2871631Y7721629D01*
X2862702Y7727595D01*
D02*
G37*
G36*
X2837302D02*
X2828373Y7721629D01*
X2822407Y7712700D01*
X2837302D01*
Y7727595D01*
D02*
G37*
G36*
X5723260Y7699802D02*
X5697703D01*
Y7674244D01*
X5700610Y7674823D01*
X5713841Y7683663D01*
X5722682Y7696894D01*
X5723260Y7699802D01*
D02*
G37*
G36*
X5672303D02*
X5646745D01*
X5647323Y7696894D01*
X5656164Y7683663D01*
X5669395Y7674823D01*
X5672303Y7674244D01*
Y7699802D01*
D02*
G37*
G36*
X2877597Y7687300D02*
X2862702D01*
Y7672405D01*
X2871631Y7678371D01*
X2877597Y7687300D01*
D02*
G37*
G36*
X2837302D02*
X2822407D01*
X2828373Y7678371D01*
X2837302Y7672405D01*
Y7687300D01*
D02*
G37*
G36*
X412501Y7770559D02*
X395533Y7768325D01*
X379721Y7761776D01*
X366143Y7751357D01*
X355724Y7737779D01*
X349174Y7721967D01*
X346940Y7704999D01*
X349174Y7688030D01*
X355724Y7672218D01*
X366143Y7658640D01*
X379721Y7648221D01*
X395533Y7641672D01*
X412501Y7639438D01*
X429470Y7641672D01*
X445281Y7648221D01*
X458859Y7658640D01*
X469278Y7672218D01*
X475828Y7688030D01*
X478062Y7704999D01*
X475828Y7721967D01*
X469278Y7737779D01*
X458859Y7751357D01*
X445281Y7761776D01*
X429470Y7768325D01*
X412501Y7770559D01*
D02*
G37*
G36*
X1962699Y7602218D02*
Y7552700D01*
X2012216D01*
X2009814Y7564777D01*
X1995780Y7585781D01*
X1974775Y7599816D01*
X1962699Y7602218D01*
D02*
G37*
G36*
X1937299D02*
X1925222Y7599816D01*
X1904218Y7585781D01*
X1890183Y7564777D01*
X1887781Y7552700D01*
X1937299D01*
Y7602218D01*
D02*
G37*
G36*
X425201Y7543256D02*
Y7517699D01*
X450759D01*
X450180Y7520606D01*
X441339Y7533837D01*
X428108Y7542678D01*
X425201Y7543256D01*
D02*
G37*
G36*
X399801D02*
X396894Y7542678D01*
X383663Y7533837D01*
X374822Y7520606D01*
X374244Y7517699D01*
X399801D01*
Y7543256D01*
D02*
G37*
G36*
X2012216Y7527300D02*
X1962699D01*
Y7477782D01*
X1974775Y7480184D01*
X1995780Y7494219D01*
X2009814Y7515224D01*
X2012216Y7527300D01*
D02*
G37*
G36*
X1937299D02*
X1887781D01*
X1890183Y7515224D01*
X1904218Y7494219D01*
X1925222Y7480184D01*
X1937299Y7477782D01*
Y7527300D01*
D02*
G37*
G36*
X450759Y7492299D02*
X425201D01*
Y7466741D01*
X428108Y7467320D01*
X441339Y7476161D01*
X450180Y7489392D01*
X450759Y7492299D01*
D02*
G37*
G36*
X399801D02*
X374244D01*
X374822Y7489392D01*
X383663Y7476161D01*
X396894Y7467320D01*
X399801Y7466741D01*
Y7492299D01*
D02*
G37*
G36*
X5685003Y7578063D02*
X5668034Y7575829D01*
X5652222Y7569279D01*
X5638644Y7558860D01*
X5628225Y7545282D01*
X5621676Y7529471D01*
X5619442Y7512502D01*
X5621676Y7495534D01*
X5628225Y7479722D01*
X5638644Y7466144D01*
X5652222Y7455725D01*
X5668034Y7449175D01*
X5685003Y7446941D01*
X5701971Y7449175D01*
X5717783Y7455725D01*
X5731361Y7466144D01*
X5741780Y7479722D01*
X5748329Y7495534D01*
X5750563Y7512502D01*
X5748329Y7529471D01*
X5741780Y7545282D01*
X5731361Y7558860D01*
X5717783Y7569279D01*
X5701971Y7575829D01*
X5685003Y7578063D01*
D02*
G37*
G36*
X3692698Y7452594D02*
Y7437699D01*
X3707593D01*
X3701627Y7446628D01*
X3692698Y7452594D01*
D02*
G37*
G36*
X3667298D02*
X3658369Y7446628D01*
X3652403Y7437699D01*
X3667298D01*
Y7452594D01*
D02*
G37*
G36*
X5110002Y7720783D02*
X5094395Y7717679D01*
X5081164Y7708838D01*
X5072323Y7695607D01*
X5069833Y7683088D01*
X4787331Y7400586D01*
X3715040D01*
X3708779Y7412299D01*
X3651216D01*
X3644955Y7400586D01*
X1967207D01*
X1961692Y7408839D01*
X1948461Y7417680D01*
X1932854Y7420784D01*
X1917246Y7417680D01*
X1904015Y7408839D01*
X1895175Y7395608D01*
X1892070Y7380000D01*
X1895175Y7364393D01*
X1904015Y7351162D01*
X1917246Y7342321D01*
X1932854Y7339217D01*
X1938337Y7340308D01*
X1942843Y7339410D01*
X1942848Y7339411D01*
X1942851Y7339410D01*
X4799999D01*
X4800001Y7339410D01*
X4811706Y7341739D01*
X4821629Y7348369D01*
X5113091Y7639831D01*
X5125610Y7642321D01*
X5138841Y7651161D01*
X5147682Y7664393D01*
X5150786Y7680000D01*
X5147682Y7695607D01*
X5138841Y7708838D01*
X5125610Y7717679D01*
X5110002Y7720783D01*
D02*
G37*
G36*
X5685003Y7378058D02*
X5668034Y7375824D01*
X5652222Y7369275D01*
X5638644Y7358856D01*
X5628225Y7345278D01*
X5621676Y7329466D01*
X5619442Y7312497D01*
X5621676Y7295529D01*
X5628225Y7279717D01*
X5638644Y7266139D01*
X5652222Y7255720D01*
X5668034Y7249171D01*
X5685003Y7246937D01*
X5701971Y7249171D01*
X5717783Y7255720D01*
X5731361Y7266139D01*
X5741780Y7279717D01*
X5748329Y7295529D01*
X5750563Y7312497D01*
X5748329Y7329466D01*
X5741780Y7345278D01*
X5731361Y7358856D01*
X5717783Y7369275D01*
X5701971Y7375824D01*
X5685003Y7378058D01*
D02*
G37*
G36*
X412501Y7370560D02*
X395533Y7368326D01*
X379721Y7361776D01*
X366143Y7351358D01*
X355724Y7337780D01*
X349174Y7321968D01*
X346940Y7304999D01*
X349174Y7288031D01*
X355724Y7272219D01*
X366143Y7258641D01*
X379721Y7248222D01*
X395533Y7241673D01*
X412501Y7239439D01*
X429470Y7241673D01*
X445281Y7248222D01*
X458859Y7258641D01*
X469278Y7272219D01*
X475828Y7288031D01*
X478062Y7304999D01*
X475828Y7321968D01*
X469278Y7337780D01*
X458859Y7351358D01*
X445281Y7361776D01*
X429470Y7368326D01*
X412501Y7370560D01*
D02*
G37*
G36*
X2440000Y7240784D02*
X2424393Y7237680D01*
X2411162Y7228839D01*
X2402321Y7215608D01*
X2399217Y7200001D01*
X2402321Y7184394D01*
X2411162Y7171162D01*
X2424393Y7162322D01*
X2440000Y7159217D01*
X2455607Y7162322D01*
X2468839Y7171162D01*
X2477679Y7184394D01*
X2480784Y7200001D01*
X2477679Y7215608D01*
X2468839Y7228839D01*
X2455607Y7237680D01*
X2440000Y7240784D01*
D02*
G37*
G36*
X2884998Y7295786D02*
X2869391Y7292681D01*
X2856160Y7283840D01*
X2847319Y7270609D01*
X2844215Y7255002D01*
X2847319Y7239395D01*
X2856160Y7226164D01*
X2855194Y7211534D01*
X2851161Y7208839D01*
X2842320Y7195608D01*
X2839216Y7180001D01*
X2842320Y7164394D01*
X2851161Y7151162D01*
X2864392Y7142322D01*
X2879999Y7139217D01*
X2895607Y7142322D01*
X2908838Y7151162D01*
X2917678Y7164394D01*
X2920783Y7180001D01*
X2917678Y7195608D01*
X2908838Y7208839D01*
X2909803Y7223469D01*
X2913836Y7226164D01*
X2922677Y7239395D01*
X2925782Y7255002D01*
X2922677Y7270609D01*
X2913836Y7283840D01*
X2900605Y7292681D01*
X2884998Y7295786D01*
D02*
G37*
G36*
X425201Y7143257D02*
Y7117700D01*
X450759D01*
X450180Y7120607D01*
X441339Y7133838D01*
X428108Y7142679D01*
X425201Y7143257D01*
D02*
G37*
G36*
X399801D02*
X396894Y7142679D01*
X383663Y7133838D01*
X374822Y7120607D01*
X374244Y7117700D01*
X399801D01*
Y7143257D01*
D02*
G37*
G36*
X1272703Y7129524D02*
Y7080006D01*
X1322220D01*
X1319818Y7092083D01*
X1305784Y7113087D01*
X1284779Y7127122D01*
X1272703Y7129524D01*
D02*
G37*
G36*
X1247303D02*
X1235226Y7127122D01*
X1214222Y7113087D01*
X1200187Y7092083D01*
X1197785Y7080006D01*
X1247303D01*
Y7129524D01*
D02*
G37*
G36*
X450759Y7092300D02*
X425201D01*
Y7066742D01*
X428108Y7067321D01*
X441339Y7076161D01*
X450180Y7089392D01*
X450759Y7092300D01*
D02*
G37*
G36*
X399801D02*
X374244D01*
X374822Y7089392D01*
X383663Y7076161D01*
X396894Y7067321D01*
X399801Y7066742D01*
Y7092300D01*
D02*
G37*
G36*
X1322220Y7054606D02*
X1272703D01*
Y7005088D01*
X1284779Y7007490D01*
X1305784Y7021525D01*
X1319818Y7042530D01*
X1322220Y7054606D01*
D02*
G37*
G36*
X1247303D02*
X1197785D01*
X1200187Y7042530D01*
X1214222Y7021525D01*
X1235226Y7007490D01*
X1247303Y7005088D01*
Y7054606D01*
D02*
G37*
G36*
X1490000Y7173381D02*
X1472442Y7169888D01*
X1457556Y7159942D01*
X1447611Y7145057D01*
X1444118Y7127499D01*
X1447611Y7109941D01*
X1451707Y7103810D01*
X1456884Y7093750D01*
X1451707Y7083690D01*
X1447611Y7077559D01*
X1444118Y7060001D01*
X1447611Y7042443D01*
X1457556Y7027558D01*
Y7024941D01*
X1447611Y7010056D01*
X1444118Y6992498D01*
X1447611Y6974940D01*
X1457556Y6960055D01*
X1472442Y6950109D01*
X1490000Y6946617D01*
X1507558Y6950109D01*
X1522443Y6960055D01*
X1532389Y6974940D01*
X1535881Y6992498D01*
X1532389Y7010056D01*
X1522443Y7024941D01*
Y7027558D01*
X1532389Y7042443D01*
X1535881Y7060001D01*
X1532389Y7077559D01*
X1528292Y7083690D01*
X1523115Y7093750D01*
X1528292Y7103810D01*
X1532389Y7109941D01*
X1535881Y7127499D01*
X1532389Y7145057D01*
X1522443Y7159942D01*
X1507558Y7169888D01*
X1490000Y7173381D01*
D02*
G37*
G36*
X1760002Y6903384D02*
X1742444Y6899891D01*
X1727559Y6889945D01*
X1724941D01*
X1710057Y6899891D01*
X1692499Y6903384D01*
X1674941Y6899891D01*
X1660056Y6889945D01*
X1657443D01*
X1642559Y6899891D01*
X1625001Y6903384D01*
X1607443Y6899891D01*
X1592557Y6889945D01*
X1582612Y6875060D01*
X1579119Y6857502D01*
X1582612Y6839944D01*
X1592557Y6825059D01*
X1607443Y6815113D01*
X1625001Y6811621D01*
X1642559Y6815113D01*
X1657443Y6825059D01*
X1660056D01*
X1674941Y6815113D01*
X1692499Y6811621D01*
X1710057Y6815113D01*
X1724941Y6825059D01*
X1727559D01*
X1742444Y6815113D01*
X1760002Y6811621D01*
X1777560Y6815113D01*
X1792445Y6825059D01*
X1802391Y6839944D01*
X1805883Y6857502D01*
X1802391Y6875060D01*
X1792445Y6889945D01*
X1777560Y6899891D01*
X1760002Y6903384D01*
D02*
G37*
G36*
X5000000Y7150727D02*
X4970595Y7147831D01*
X4942320Y7139254D01*
X4916261Y7125325D01*
X4893421Y7106580D01*
X4874676Y7083740D01*
X4860748Y7057681D01*
X4852171Y7029406D01*
X4849275Y7000001D01*
X4852171Y6970596D01*
X4860748Y6942321D01*
X4874676Y6916263D01*
X4893421Y6893422D01*
X4916261Y6874677D01*
X4942320Y6860749D01*
X4970595Y6852172D01*
X5000000Y6849276D01*
X5029405Y6852172D01*
X5057680Y6860749D01*
X5083739Y6874677D01*
X5106579Y6893422D01*
X5125324Y6916263D01*
X5139253Y6942321D01*
X5147830Y6970596D01*
X5150726Y7000001D01*
X5147830Y7029406D01*
X5139253Y7057681D01*
X5125324Y7083740D01*
X5106579Y7106580D01*
X5083739Y7125325D01*
X5057680Y7139254D01*
X5029405Y7147831D01*
X5000000Y7150727D01*
D02*
G37*
G36*
X999998D02*
X970593Y7147831D01*
X942318Y7139254D01*
X916259Y7125325D01*
X893419Y7106580D01*
X874674Y7083740D01*
X860746Y7057681D01*
X852168Y7029406D01*
X849272Y7000001D01*
X852168Y6970596D01*
X860746Y6942321D01*
X874674Y6916263D01*
X893419Y6893422D01*
X916259Y6874677D01*
X942318Y6860749D01*
X970593Y6852172D01*
X999998Y6849276D01*
X1029403Y6852172D01*
X1057678Y6860749D01*
X1083737Y6874677D01*
X1106577Y6893422D01*
X1125322Y6916263D01*
X1139250Y6942321D01*
X1147828Y6970596D01*
X1150724Y7000001D01*
X1147828Y7029406D01*
X1139250Y7057681D01*
X1125322Y7083740D01*
X1106577Y7106580D01*
X1083737Y7125325D01*
X1057678Y7139254D01*
X1029403Y7147831D01*
X999998Y7150727D01*
D02*
G37*
G36*
X3430001Y6920979D02*
X3410492Y6917098D01*
X3393953Y6906047D01*
X3382902Y6889508D01*
X3379021Y6869999D01*
X3382902Y6850490D01*
X3393953Y6833951D01*
X3410492Y6822900D01*
X3430001Y6819019D01*
X3449510Y6822900D01*
X3466049Y6833951D01*
X3477100Y6850490D01*
X3480980Y6869999D01*
X3477100Y6889508D01*
X3466049Y6906047D01*
X3449510Y6917098D01*
X3430001Y6920979D01*
D02*
G37*
G36*
X3892702Y6777594D02*
Y6762699D01*
X3907597D01*
X3901631Y6771628D01*
X3892702Y6777594D01*
D02*
G37*
G36*
X3867302D02*
X3858374Y6771628D01*
X3852408Y6762699D01*
X3867302D01*
Y6777594D01*
D02*
G37*
G36*
X3052699D02*
Y6762699D01*
X3067594D01*
X3061628Y6771628D01*
X3052699Y6777594D01*
D02*
G37*
G36*
X3027299D02*
X3018370Y6771628D01*
X3012404Y6762699D01*
X3027299D01*
Y6777594D01*
D02*
G37*
G36*
X3342701Y6747597D02*
Y6732702D01*
X3357596D01*
X3351630Y6741631D01*
X3342701Y6747597D01*
D02*
G37*
G36*
X3317301D02*
X3308372Y6741631D01*
X3302406Y6732702D01*
X3317301D01*
Y6747597D01*
D02*
G37*
G36*
X3027299Y6737299D02*
X3012404D01*
X3013505Y6735653D01*
X3004348Y6726496D01*
X3002702Y6727597D01*
Y6712702D01*
X3017596D01*
X3016496Y6714348D01*
X3025653Y6723505D01*
X3027299Y6722404D01*
Y6737299D01*
D02*
G37*
G36*
X3907597D02*
X3892702D01*
Y6722404D01*
X3901631Y6728370D01*
X3907597Y6737299D01*
D02*
G37*
G36*
X3867302D02*
X3852408D01*
X3858374Y6728370D01*
X3867302Y6722404D01*
Y6737299D01*
D02*
G37*
G36*
X3067594D02*
X3052699D01*
Y6722404D01*
X3061628Y6728370D01*
X3067594Y6737299D01*
D02*
G37*
G36*
X530001Y9050783D02*
X514394Y9047679D01*
X501163Y9038838D01*
X492322Y9025607D01*
X489218Y9010000D01*
X492322Y8994392D01*
X501163Y8981161D01*
X501963Y8980627D01*
Y8390001D01*
X504097Y8379271D01*
X510175Y8370175D01*
X2140175Y6740175D01*
X2149271Y6734098D01*
X2160001Y6731963D01*
X2700629D01*
X2701164Y6731163D01*
X2714395Y6722323D01*
X2730002Y6719218D01*
X2745609Y6722323D01*
X2758841Y6731163D01*
X2767681Y6744394D01*
X2770786Y6760002D01*
X2767681Y6775609D01*
X2758841Y6788840D01*
X2745609Y6797681D01*
X2730002Y6800785D01*
X2714395Y6797681D01*
X2701164Y6788840D01*
X2700629Y6788040D01*
X2171615D01*
X558040Y8401615D01*
Y8980627D01*
X558840Y8981161D01*
X567681Y8994392D01*
X570785Y9010000D01*
X567681Y9025607D01*
X558840Y9038838D01*
X545609Y9047679D01*
X530001Y9050783D01*
D02*
G37*
G36*
X2977302Y6727597D02*
X2968373Y6721631D01*
X2962407Y6712702D01*
X2977302D01*
Y6727597D01*
D02*
G37*
G36*
X5018009Y6813807D02*
Y6702100D01*
X5129716D01*
X5127092Y6722032D01*
X5114496Y6752439D01*
X5094460Y6778551D01*
X5068348Y6798587D01*
X5037940Y6811183D01*
X5018009Y6813807D01*
D02*
G37*
G36*
X4992609D02*
X4972677Y6811183D01*
X4942270Y6798587D01*
X4916158Y6778551D01*
X4896121Y6752439D01*
X4883526Y6722032D01*
X4880902Y6702100D01*
X4992609D01*
Y6813807D01*
D02*
G37*
G36*
X3357596Y6707302D02*
X3342701D01*
Y6692407D01*
X3351630Y6698373D01*
X3357596Y6707302D01*
D02*
G37*
G36*
X3317301D02*
X3302406D01*
X3308372Y6698373D01*
X3317301Y6692407D01*
Y6707302D01*
D02*
G37*
G36*
X1460002Y6760785D02*
X1444395Y6757681D01*
X1431164Y6748840D01*
X1422323Y6735609D01*
X1419219Y6720002D01*
X1422323Y6704395D01*
X1431164Y6691163D01*
X1444395Y6682323D01*
X1460002Y6679218D01*
X1475609Y6682323D01*
X1488841Y6691163D01*
X1497681Y6704395D01*
X1500786Y6720002D01*
X1497681Y6735609D01*
X1488841Y6748840D01*
X1475609Y6757681D01*
X1460002Y6760785D01*
D02*
G37*
G36*
X3017596Y6687302D02*
X3002702D01*
Y6672407D01*
X3011631Y6678373D01*
X3017596Y6687302D01*
D02*
G37*
G36*
X2977302D02*
X2962407D01*
X2968373Y6678373D01*
X2977302Y6672407D01*
Y6687302D01*
D02*
G37*
G36*
X3887699Y6607597D02*
Y6592702D01*
X3902593D01*
X3896627Y6601631D01*
X3887699Y6607597D01*
D02*
G37*
G36*
X3862299D02*
X3853370Y6601631D01*
X3847404Y6592702D01*
X3862299D01*
Y6607597D01*
D02*
G37*
G36*
X5129716Y6676700D02*
X5018009D01*
Y6564993D01*
X5037940Y6567617D01*
X5068348Y6580212D01*
X5094460Y6600249D01*
X5114496Y6626361D01*
X5127092Y6656768D01*
X5129716Y6676700D01*
D02*
G37*
G36*
X4992609D02*
X4880902D01*
X4883526Y6656768D01*
X4896121Y6626361D01*
X4916158Y6600249D01*
X4942270Y6580212D01*
X4972677Y6567617D01*
X4992609Y6564993D01*
Y6676700D01*
D02*
G37*
G36*
X3902593Y6567302D02*
X3887699D01*
Y6552407D01*
X3896627Y6558373D01*
X3902593Y6567302D01*
D02*
G37*
G36*
X3862299D02*
X3847404D01*
X3853370Y6558373D01*
X3862299Y6552407D01*
Y6567302D01*
D02*
G37*
G36*
X1662699Y6527597D02*
Y6512702D01*
X1677594D01*
X1671628Y6521631D01*
X1662699Y6527597D01*
D02*
G37*
G36*
X1637299D02*
X1628370Y6521631D01*
X1622404Y6512702D01*
X1637299D01*
Y6527597D01*
D02*
G37*
G36*
X1677594Y6487302D02*
X1662699D01*
Y6472407D01*
X1671628Y6478373D01*
X1677594Y6487302D01*
D02*
G37*
G36*
X1637299D02*
X1622404D01*
X1628370Y6478373D01*
X1637299Y6472407D01*
Y6487302D01*
D02*
G37*
G36*
X5640309Y6673349D02*
X5611593Y6669568D01*
X5584834Y6658485D01*
X5561856Y6640853D01*
X5544224Y6617874D01*
X5533140Y6591116D01*
X5529360Y6562400D01*
X5533140Y6533684D01*
X5544224Y6506925D01*
X5561856Y6483947D01*
X5584834Y6466315D01*
X5611593Y6455231D01*
X5640309Y6451451D01*
X5669024Y6455231D01*
X5695783Y6466315D01*
X5718761Y6483947D01*
X5736393Y6506925D01*
X5747477Y6533684D01*
X5751258Y6562400D01*
X5747477Y6591116D01*
X5736393Y6617874D01*
X5718761Y6640853D01*
X5695783Y6658485D01*
X5669024Y6669568D01*
X5640309Y6673349D01*
D02*
G37*
G36*
X3890000Y6450783D02*
X3874393Y6447679D01*
X3861161Y6438838D01*
X3852321Y6425607D01*
X3849216Y6410000D01*
X3852321Y6394393D01*
X3861161Y6381161D01*
X3874393Y6372321D01*
X3890000Y6369216D01*
X3905607Y6372321D01*
X3918838Y6381161D01*
X3927679Y6394393D01*
X3930783Y6410000D01*
X3927679Y6425607D01*
X3918838Y6438838D01*
X3905607Y6447679D01*
X3890000Y6450783D01*
D02*
G37*
G36*
X5322809Y6689819D02*
X5285562Y6686150D01*
X5249747Y6675286D01*
X5216740Y6657643D01*
X5187809Y6633900D01*
X5164065Y6604969D01*
X5146423Y6571961D01*
X5135558Y6536146D01*
X5131890Y6498900D01*
X5135558Y6461653D01*
X5146423Y6425838D01*
X5164065Y6392831D01*
X5187809Y6363900D01*
X5216740Y6340156D01*
X5249747Y6322514D01*
X5285562Y6311649D01*
X5322809Y6307981D01*
X5360055Y6311649D01*
X5395870Y6322514D01*
X5428878Y6340156D01*
X5457809Y6363900D01*
X5481552Y6392831D01*
X5499195Y6425838D01*
X5510059Y6461653D01*
X5513728Y6498900D01*
X5510059Y6536146D01*
X5499195Y6571961D01*
X5481552Y6604969D01*
X5457809Y6633900D01*
X5428878Y6657643D01*
X5395870Y6675286D01*
X5360055Y6686150D01*
X5322809Y6689819D01*
D02*
G37*
G36*
X3348553Y6329341D02*
X3332946Y6326237D01*
X3319715Y6317396D01*
X3310874Y6304165D01*
X3309772Y6298624D01*
X3303346Y6297020D01*
X3296556Y6297283D01*
X3288837Y6308836D01*
X3275606Y6317677D01*
X3259999Y6320781D01*
X3244391Y6317677D01*
X3231160Y6308836D01*
X3222319Y6295605D01*
X3219215Y6279998D01*
X3222319Y6264390D01*
X3231160Y6251159D01*
X3244391Y6242318D01*
X3259999Y6239214D01*
X3275606Y6242318D01*
X3288837Y6251159D01*
X3297678Y6264390D01*
X3298780Y6269931D01*
X3305206Y6271535D01*
X3311995Y6271272D01*
X3319715Y6259719D01*
X3332946Y6250878D01*
X3348553Y6247774D01*
X3364160Y6250878D01*
X3377392Y6259719D01*
X3386232Y6272950D01*
X3389337Y6288557D01*
X3386232Y6304165D01*
X3377392Y6317396D01*
X3364160Y6326237D01*
X3348553Y6329341D01*
D02*
G37*
G36*
X4370309Y6462676D02*
X4346814Y6459583D01*
X4324920Y6450514D01*
X4306120Y6436088D01*
X4291694Y6417288D01*
X4282626Y6395395D01*
X4279532Y6371900D01*
X4282626Y6348405D01*
X4291694Y6326512D01*
X4306120Y6307711D01*
X4324920Y6293285D01*
X4346814Y6284217D01*
X4370309Y6281124D01*
X4393804Y6284217D01*
X4415697Y6293285D01*
X4434497Y6307711D01*
X4448923Y6326512D01*
X4457992Y6348405D01*
X4461085Y6371900D01*
X4457992Y6395395D01*
X4448923Y6417288D01*
X4434497Y6436088D01*
X4415697Y6450514D01*
X4393804Y6459583D01*
X4370309Y6462676D01*
D02*
G37*
G36*
X2062698Y6252218D02*
Y6202700D01*
X2112216D01*
X2109814Y6214777D01*
X2095779Y6235781D01*
X2074775Y6249816D01*
X2062698Y6252218D01*
D02*
G37*
G36*
X2037298D02*
X2025222Y6249816D01*
X2004217Y6235781D01*
X1990183Y6214777D01*
X1987781Y6202700D01*
X2037298D01*
Y6252218D01*
D02*
G37*
G36*
X5830809Y6419349D02*
X5802093Y6415568D01*
X5775334Y6404485D01*
X5752356Y6386853D01*
X5734724Y6363874D01*
X5723640Y6337116D01*
X5719860Y6308400D01*
X5723640Y6279684D01*
X5734724Y6252925D01*
X5752356Y6229947D01*
X5775334Y6212315D01*
X5802093Y6201231D01*
X5830809Y6197451D01*
X5859524Y6201231D01*
X5886283Y6212315D01*
X5909261Y6229947D01*
X5926893Y6252925D01*
X5937977Y6279684D01*
X5941758Y6308400D01*
X5937977Y6337116D01*
X5926893Y6363874D01*
X5909261Y6386853D01*
X5886283Y6404485D01*
X5859524Y6415568D01*
X5830809Y6419349D01*
D02*
G37*
G36*
X999998Y6285879D02*
X982440Y6282387D01*
X967555Y6272441D01*
X957609Y6257556D01*
X954116Y6239998D01*
X957609Y6222440D01*
X967555Y6207555D01*
X982440Y6197609D01*
X999998Y6194116D01*
X1017556Y6197609D01*
X1032441Y6207555D01*
X1042387Y6222440D01*
X1045880Y6239998D01*
X1042387Y6257556D01*
X1032441Y6272441D01*
X1017556Y6282387D01*
X999998Y6285879D01*
D02*
G37*
G36*
X3480460Y6240832D02*
X3464853Y6237728D01*
X3451622Y6228887D01*
X3442781Y6215656D01*
X3439677Y6200049D01*
X3442781Y6184441D01*
X3451622Y6171210D01*
X3464853Y6162369D01*
X3480460Y6159265D01*
X3496068Y6162369D01*
X3509299Y6171210D01*
X3518140Y6184441D01*
X3521244Y6200049D01*
X3518140Y6215656D01*
X3509299Y6228887D01*
X3496068Y6237728D01*
X3480460Y6240832D01*
D02*
G37*
G36*
X4687809Y6335676D02*
X4664314Y6332583D01*
X4642420Y6323514D01*
X4623620Y6309088D01*
X4609194Y6290288D01*
X4600126Y6268395D01*
X4597032Y6244900D01*
X4600126Y6221405D01*
X4609194Y6199512D01*
X4623620Y6180711D01*
X4642420Y6166285D01*
X4664314Y6157217D01*
X4687809Y6154124D01*
X4711304Y6157217D01*
X4733197Y6166285D01*
X4751997Y6180711D01*
X4766423Y6199512D01*
X4775492Y6221405D01*
X4778585Y6244900D01*
X4775492Y6268395D01*
X4766423Y6290288D01*
X4751997Y6309088D01*
X4733197Y6323514D01*
X4711304Y6332583D01*
X4687809Y6335676D01*
D02*
G37*
G36*
X2990002Y6220781D02*
X2974394Y6217677D01*
X2961163Y6208836D01*
X2952323Y6195605D01*
X2949218Y6179998D01*
X2952323Y6164391D01*
X2961163Y6151159D01*
X2974394Y6142319D01*
X2990002Y6139214D01*
X3005609Y6142319D01*
X3018840Y6151159D01*
X3027681Y6164391D01*
X3030785Y6179998D01*
X3027681Y6195605D01*
X3018840Y6208836D01*
X3005609Y6217677D01*
X2990002Y6220781D01*
D02*
G37*
G36*
X2252502Y6355882D02*
X2234944Y6352389D01*
X2220059Y6342443D01*
X2210113Y6327558D01*
X2206621Y6310000D01*
X2210113Y6292442D01*
X2220059Y6277557D01*
Y6274945D01*
X2210113Y6260060D01*
X2206621Y6242502D01*
X2210113Y6224944D01*
X2220059Y6210059D01*
Y6207442D01*
X2210113Y6192557D01*
X2206621Y6174999D01*
X2210113Y6157441D01*
X2220059Y6142556D01*
X2234944Y6132610D01*
X2252502Y6129118D01*
X2270060Y6132610D01*
X2284946Y6142556D01*
X2294892Y6157441D01*
X2298384Y6174999D01*
X2294892Y6192557D01*
X2284946Y6207442D01*
Y6210059D01*
X2294892Y6224944D01*
X2298384Y6242502D01*
X2294892Y6260060D01*
X2284946Y6274945D01*
Y6277557D01*
X2294892Y6292442D01*
X2298384Y6310000D01*
X2294892Y6327558D01*
X2284946Y6342443D01*
X2270060Y6352389D01*
X2252502Y6355882D01*
D02*
G37*
G36*
X2112216Y6177300D02*
X2062698D01*
Y6127783D01*
X2074775Y6130185D01*
X2095779Y6144219D01*
X2109814Y6165224D01*
X2112216Y6177300D01*
D02*
G37*
G36*
X2037298D02*
X1987781D01*
X1990183Y6165224D01*
X2004217Y6144219D01*
X2025222Y6130185D01*
X2037298Y6127783D01*
Y6177300D01*
D02*
G37*
G36*
X1805000Y6205879D02*
X1787442Y6202387D01*
X1772557Y6192441D01*
X1762611Y6177556D01*
X1759119Y6159998D01*
X1762611Y6142440D01*
X1772557Y6127555D01*
X1787442Y6117609D01*
X1805000Y6114116D01*
X1822558Y6117609D01*
X1837443Y6127555D01*
X1847389Y6142440D01*
X1850882Y6159998D01*
X1847389Y6177556D01*
X1837443Y6192441D01*
X1822558Y6202387D01*
X1805000Y6205879D01*
D02*
G37*
G36*
X3372810Y6107293D02*
Y6092398D01*
X3387705D01*
X3381739Y6101327D01*
X3372810Y6107293D01*
D02*
G37*
G36*
X3347410D02*
X3338481Y6101327D01*
X3332515Y6092398D01*
X3347410D01*
Y6107293D01*
D02*
G37*
G36*
X3232810D02*
Y6092398D01*
X3247705D01*
X3241739Y6101327D01*
X3232810Y6107293D01*
D02*
G37*
G36*
X3207410D02*
X3198482Y6101327D01*
X3192516Y6092398D01*
X3207410D01*
Y6107293D01*
D02*
G37*
G36*
X3092811D02*
Y6092398D01*
X3107705D01*
X3101740Y6101327D01*
X3092811Y6107293D01*
D02*
G37*
G36*
X3067411D02*
X3058482Y6101327D01*
X3052516Y6092398D01*
X3067411D01*
Y6107293D01*
D02*
G37*
G36*
X1522700Y6097595D02*
Y6082701D01*
X1537594D01*
X1531628Y6091629D01*
X1522700Y6097595D01*
D02*
G37*
G36*
X1497300D02*
X1488371Y6091629D01*
X1482405Y6082701D01*
X1497300D01*
Y6097595D01*
D02*
G37*
G36*
X3387705Y6066998D02*
X3372810D01*
Y6052103D01*
X3381739Y6058069D01*
X3387705Y6066998D01*
D02*
G37*
G36*
X3347410D02*
X3332515D01*
X3338481Y6058069D01*
X3347410Y6052103D01*
Y6066998D01*
D02*
G37*
G36*
X3247705D02*
X3232810D01*
Y6052103D01*
X3241739Y6058069D01*
X3247705Y6066998D01*
D02*
G37*
G36*
X3207410D02*
X3192516D01*
X3198482Y6058069D01*
X3207410Y6052103D01*
Y6066998D01*
D02*
G37*
G36*
X3107705D02*
X3092811D01*
Y6052103D01*
X3101740Y6058069D01*
X3107705Y6066998D01*
D02*
G37*
G36*
X3067411D02*
X3052516D01*
X3058482Y6058069D01*
X3067411Y6052103D01*
Y6066998D01*
D02*
G37*
G36*
X1537594Y6057301D02*
X1522700D01*
Y6042406D01*
X1531628Y6048372D01*
X1537594Y6057301D01*
D02*
G37*
G36*
X1497300D02*
X1482405D01*
X1488371Y6048372D01*
X1497300Y6042406D01*
Y6057301D01*
D02*
G37*
G36*
X4370309Y6208676D02*
X4346814Y6205583D01*
X4324920Y6196514D01*
X4306120Y6182088D01*
X4291694Y6163288D01*
X4282626Y6141395D01*
X4279532Y6117900D01*
X4282626Y6094405D01*
X4291694Y6072512D01*
X4306120Y6053711D01*
X4324920Y6039285D01*
X4346814Y6030217D01*
X4370309Y6027124D01*
X4393804Y6030217D01*
X4415697Y6039285D01*
X4434497Y6053711D01*
X4448923Y6072512D01*
X4457992Y6094405D01*
X4461085Y6117900D01*
X4457992Y6141395D01*
X4448923Y6163288D01*
X4434497Y6182088D01*
X4415697Y6196514D01*
X4393804Y6205583D01*
X4370309Y6208676D01*
D02*
G37*
G36*
X3302701Y6037595D02*
Y6022701D01*
X3317596D01*
X3311630Y6031630D01*
X3302701Y6037595D01*
D02*
G37*
G36*
X3277301D02*
X3268372Y6031630D01*
X3262406Y6022701D01*
X3277301D01*
Y6037595D01*
D02*
G37*
G36*
X3162701D02*
Y6022701D01*
X3177596D01*
X3171630Y6031630D01*
X3162701Y6037595D01*
D02*
G37*
G36*
X3137301D02*
X3128372Y6031630D01*
X3122407Y6022701D01*
X3137301D01*
Y6037595D01*
D02*
G37*
G36*
X3317596Y5997301D02*
X3302701D01*
Y5982406D01*
X3311630Y5988372D01*
X3317596Y5997301D01*
D02*
G37*
G36*
X3277301D02*
X3262406D01*
X3268372Y5988372D01*
X3277301Y5982406D01*
Y5997301D01*
D02*
G37*
G36*
X3177596D02*
X3162701D01*
Y5982406D01*
X3171630Y5988372D01*
X3177596Y5997301D01*
D02*
G37*
G36*
X3137301D02*
X3122407D01*
X3128372Y5988372D01*
X3137301Y5982406D01*
Y5997301D01*
D02*
G37*
G36*
X2492700Y5987593D02*
Y5972698D01*
X2507595D01*
X2501629Y5981627D01*
X2492700Y5987593D01*
D02*
G37*
G36*
X2467300D02*
X2458371Y5981627D01*
X2452405Y5972698D01*
X2467300D01*
Y5987593D01*
D02*
G37*
G36*
X3092023Y5967415D02*
Y5952520D01*
X3106918D01*
X3100952Y5961449D01*
X3092023Y5967415D01*
D02*
G37*
G36*
X3066623D02*
X3057694Y5961449D01*
X3051728Y5952520D01*
X3066623D01*
Y5967415D01*
D02*
G37*
G36*
X3372810Y5967293D02*
Y5952399D01*
X3387705D01*
X3381739Y5961327D01*
X3372810Y5967293D01*
D02*
G37*
G36*
X3347410D02*
X3338481Y5961327D01*
X3332515Y5952399D01*
X3347410D01*
Y5967293D01*
D02*
G37*
G36*
X3232810D02*
Y5952399D01*
X3247705D01*
X3241739Y5961327D01*
X3232810Y5967293D01*
D02*
G37*
G36*
X3207410D02*
X3198482Y5961327D01*
X3192516Y5952399D01*
X3207410D01*
Y5967293D01*
D02*
G37*
G36*
X2507595Y5947298D02*
X2492700D01*
Y5932403D01*
X2501629Y5938369D01*
X2507595Y5947298D01*
D02*
G37*
G36*
X2467300D02*
X2452405D01*
X2458371Y5938369D01*
X2467300Y5932403D01*
Y5947298D01*
D02*
G37*
G36*
X3106918Y5927120D02*
X3092023D01*
Y5912226D01*
X3100952Y5918192D01*
X3106918Y5927120D01*
D02*
G37*
G36*
X3066623D02*
X3051728D01*
X3057694Y5918192D01*
X3066623Y5912226D01*
Y5927120D01*
D02*
G37*
G36*
X3387705Y5926999D02*
X3372810D01*
Y5912104D01*
X3381739Y5918070D01*
X3387705Y5926999D01*
D02*
G37*
G36*
X3347410D02*
X3332515D01*
X3338481Y5918070D01*
X3347410Y5912104D01*
Y5926999D01*
D02*
G37*
G36*
X3247705D02*
X3232810D01*
Y5912104D01*
X3241739Y5918070D01*
X3247705Y5926999D01*
D02*
G37*
G36*
X3207410D02*
X3192516D01*
X3198482Y5918070D01*
X3207410Y5912104D01*
Y5926999D01*
D02*
G37*
G36*
X4687809Y6081676D02*
X4664314Y6078583D01*
X4642420Y6069514D01*
X4623620Y6055088D01*
X4609194Y6036288D01*
X4600126Y6014395D01*
X4597032Y5990900D01*
X4600126Y5967405D01*
X4609194Y5945512D01*
X4623620Y5926711D01*
X4642420Y5912285D01*
X4664314Y5903217D01*
X4687809Y5900124D01*
X4711304Y5903217D01*
X4733197Y5912285D01*
X4751997Y5926711D01*
X4766423Y5945512D01*
X4775492Y5967405D01*
X4778585Y5990900D01*
X4775492Y6014395D01*
X4766423Y6036288D01*
X4751997Y6055088D01*
X4733197Y6069514D01*
X4711304Y6078583D01*
X4687809Y6081676D01*
D02*
G37*
G36*
X3302701Y5897596D02*
Y5882701D01*
X3317596D01*
X3311630Y5891630D01*
X3302701Y5897596D01*
D02*
G37*
G36*
X3277301D02*
X3268372Y5891630D01*
X3262406Y5882701D01*
X3277301D01*
Y5897596D01*
D02*
G37*
G36*
X3162701D02*
Y5882701D01*
X3177596D01*
X3171630Y5891630D01*
X3162701Y5897596D01*
D02*
G37*
G36*
X3137301D02*
X3128372Y5891630D01*
X3122407Y5882701D01*
X3137301D01*
Y5897596D01*
D02*
G37*
G36*
X2879999Y5950784D02*
X2864392Y5947680D01*
X2851161Y5938839D01*
X2842320Y5925608D01*
X2839216Y5910001D01*
X2842320Y5894394D01*
X2851161Y5881162D01*
X2864392Y5872322D01*
X2879999Y5869217D01*
X2895607Y5872322D01*
X2908838Y5881162D01*
X2917678Y5894394D01*
X2920783Y5910001D01*
X2917678Y5925608D01*
X2908838Y5938839D01*
X2895607Y5947680D01*
X2879999Y5950784D01*
D02*
G37*
G36*
X3317596Y5857301D02*
X3302701D01*
Y5842406D01*
X3311630Y5848372D01*
X3317596Y5857301D01*
D02*
G37*
G36*
X3277301D02*
X3262406D01*
X3268372Y5848372D01*
X3277301Y5842406D01*
Y5857301D01*
D02*
G37*
G36*
X3177596D02*
X3162701D01*
Y5842406D01*
X3171630Y5848372D01*
X3177596Y5857301D01*
D02*
G37*
G36*
X3137301D02*
X3122407D01*
X3128372Y5848372D01*
X3137301Y5842406D01*
Y5857301D01*
D02*
G37*
G36*
X3372023Y5827416D02*
Y5812521D01*
X3386918D01*
X3380952Y5821450D01*
X3372023Y5827416D01*
D02*
G37*
G36*
X3346623D02*
X3337694Y5821450D01*
X3331728Y5812521D01*
X3346623D01*
Y5827416D01*
D02*
G37*
G36*
X3232023D02*
Y5812521D01*
X3246918D01*
X3240952Y5821450D01*
X3232023Y5827416D01*
D02*
G37*
G36*
X3206623D02*
X3197694Y5821450D01*
X3191728Y5812521D01*
X3206623D01*
Y5827416D01*
D02*
G37*
G36*
X3092023D02*
Y5812521D01*
X3106918D01*
X3100952Y5821450D01*
X3092023Y5827416D01*
D02*
G37*
G36*
X3066623D02*
X3057694Y5821450D01*
X3051728Y5812521D01*
X3066623D01*
Y5827416D01*
D02*
G37*
G36*
X4370309Y5954676D02*
X4346814Y5951583D01*
X4324920Y5942514D01*
X4306120Y5928088D01*
X4291694Y5909288D01*
X4282626Y5887395D01*
X4279532Y5863900D01*
X4282626Y5840405D01*
X4291694Y5818512D01*
X4306120Y5799711D01*
X4324920Y5785285D01*
X4346814Y5776217D01*
X4370309Y5773124D01*
X4393804Y5776217D01*
X4415697Y5785285D01*
X4434497Y5799711D01*
X4448923Y5818512D01*
X4457992Y5840405D01*
X4461085Y5863900D01*
X4457992Y5887395D01*
X4448923Y5909288D01*
X4434497Y5928088D01*
X4415697Y5942514D01*
X4393804Y5951583D01*
X4370309Y5954676D01*
D02*
G37*
G36*
X3386918Y5787121D02*
X3372023D01*
Y5772226D01*
X3380952Y5778192D01*
X3386918Y5787121D01*
D02*
G37*
G36*
X3346623D02*
X3331728D01*
X3337694Y5778192D01*
X3346623Y5772226D01*
Y5787121D01*
D02*
G37*
G36*
X3246918D02*
X3232023D01*
Y5772226D01*
X3240952Y5778192D01*
X3246918Y5787121D01*
D02*
G37*
G36*
X3206623D02*
X3191728D01*
X3197694Y5778192D01*
X3206623Y5772226D01*
Y5787121D01*
D02*
G37*
G36*
X3106918D02*
X3092023D01*
Y5772226D01*
X3100952Y5778192D01*
X3106918Y5787121D01*
D02*
G37*
G36*
X3066623D02*
X3051728D01*
X3057694Y5778192D01*
X3066623Y5772226D01*
Y5787121D01*
D02*
G37*
G36*
X2604181Y5757891D02*
Y5742996D01*
X2619076D01*
X2613110Y5751925D01*
X2604181Y5757891D01*
D02*
G37*
G36*
X2578781D02*
X2569852Y5751925D01*
X2563886Y5742996D01*
X2578781D01*
Y5757891D01*
D02*
G37*
G36*
X2619076Y5717596D02*
X2604181D01*
Y5702701D01*
X2613110Y5708667D01*
X2619076Y5717596D01*
D02*
G37*
G36*
X2578781D02*
X2563886D01*
X2569852Y5708667D01*
X2578781Y5702701D01*
Y5717596D01*
D02*
G37*
G36*
X4687809Y5827676D02*
X4664314Y5824583D01*
X4642420Y5815514D01*
X4623620Y5801088D01*
X4609194Y5782288D01*
X4600126Y5760395D01*
X4597032Y5736900D01*
X4600126Y5713405D01*
X4609194Y5691512D01*
X4623620Y5672711D01*
X4642420Y5658285D01*
X4664314Y5649217D01*
X4687809Y5646124D01*
X4711304Y5649217D01*
X4733197Y5658285D01*
X4751997Y5672711D01*
X4766423Y5691512D01*
X4775492Y5713405D01*
X4778585Y5736900D01*
X4775492Y5760395D01*
X4766423Y5782288D01*
X4751997Y5801088D01*
X4733197Y5815514D01*
X4711304Y5824583D01*
X4687809Y5827676D01*
D02*
G37*
G36*
X4370309Y5700676D02*
X4346814Y5697583D01*
X4324920Y5688514D01*
X4306120Y5674088D01*
X4291694Y5655288D01*
X4282626Y5633395D01*
X4279532Y5609900D01*
X4282626Y5586405D01*
X4291694Y5564512D01*
X4306120Y5545711D01*
X4324920Y5531285D01*
X4346814Y5522217D01*
X4370309Y5519124D01*
X4393804Y5522217D01*
X4415697Y5531285D01*
X4434497Y5545711D01*
X4448923Y5564512D01*
X4457992Y5586405D01*
X4461085Y5609900D01*
X4457992Y5633395D01*
X4448923Y5655288D01*
X4434497Y5674088D01*
X4415697Y5688514D01*
X4393804Y5697583D01*
X4370309Y5700676D01*
D02*
G37*
G36*
X5640309Y5657349D02*
X5611593Y5653568D01*
X5584834Y5642485D01*
X5561856Y5624853D01*
X5544224Y5601874D01*
X5533140Y5575116D01*
X5529360Y5546400D01*
X5533140Y5517684D01*
X5544224Y5490925D01*
X5561856Y5467947D01*
X5584834Y5450315D01*
X5611593Y5439231D01*
X5640309Y5435451D01*
X5669024Y5439231D01*
X5695783Y5450315D01*
X5718761Y5467947D01*
X5736393Y5490925D01*
X5747477Y5517684D01*
X5751258Y5546400D01*
X5747477Y5575116D01*
X5736393Y5601874D01*
X5718761Y5624853D01*
X5695783Y5642485D01*
X5669024Y5653568D01*
X5640309Y5657349D01*
D02*
G37*
G36*
X1740200Y5467023D02*
Y5417505D01*
X1789718D01*
X1787315Y5429581D01*
X1773281Y5450586D01*
X1752276Y5464621D01*
X1740200Y5467023D01*
D02*
G37*
G36*
X1714800D02*
X1702723Y5464621D01*
X1681719Y5450586D01*
X1667684Y5429581D01*
X1665282Y5417505D01*
X1714800D01*
Y5467023D01*
D02*
G37*
G36*
X1882699Y5462217D02*
Y5412699D01*
X1932217D01*
X1929815Y5424776D01*
X1915780Y5445780D01*
X1894775Y5459815D01*
X1882699Y5462217D01*
D02*
G37*
G36*
X1857299D02*
X1845222Y5459815D01*
X1824218Y5445780D01*
X1810183Y5424776D01*
X1807781Y5412699D01*
X1857299D01*
Y5462217D01*
D02*
G37*
G36*
X1592702D02*
Y5412699D01*
X1642220D01*
X1639818Y5424776D01*
X1625783Y5445780D01*
X1604778Y5459815D01*
X1592702Y5462217D01*
D02*
G37*
G36*
X1567302D02*
X1555225Y5459815D01*
X1534221Y5445780D01*
X1520186Y5424776D01*
X1517784Y5412699D01*
X1567302D01*
Y5462217D01*
D02*
G37*
G36*
X4687809Y5573676D02*
X4664314Y5570583D01*
X4642420Y5561514D01*
X4623620Y5547088D01*
X4609194Y5528288D01*
X4600126Y5506395D01*
X4597032Y5482900D01*
X4600126Y5459405D01*
X4609194Y5437512D01*
X4623620Y5418711D01*
X4642420Y5404285D01*
X4664314Y5395217D01*
X4687809Y5392124D01*
X4711304Y5395217D01*
X4733197Y5404285D01*
X4751997Y5418711D01*
X4766423Y5437512D01*
X4775492Y5459405D01*
X4778585Y5482900D01*
X4775492Y5506395D01*
X4766423Y5528288D01*
X4751997Y5547088D01*
X4733197Y5561514D01*
X4711304Y5570583D01*
X4687809Y5573676D01*
D02*
G37*
G36*
X1789718Y5392105D02*
X1740200D01*
Y5342587D01*
X1752276Y5344989D01*
X1773281Y5359024D01*
X1787315Y5380029D01*
X1789718Y5392105D01*
D02*
G37*
G36*
X1714800D02*
X1665282D01*
X1667684Y5380029D01*
X1681719Y5359024D01*
X1702723Y5344989D01*
X1714800Y5342587D01*
Y5392105D01*
D02*
G37*
G36*
X1932217Y5387299D02*
X1882699D01*
Y5337782D01*
X1894775Y5340184D01*
X1915780Y5354218D01*
X1929815Y5375223D01*
X1932217Y5387299D01*
D02*
G37*
G36*
X1857299D02*
X1807781D01*
X1810183Y5375223D01*
X1824218Y5354218D01*
X1845222Y5340184D01*
X1857299Y5337782D01*
Y5387299D01*
D02*
G37*
G36*
X1642220D02*
X1592702D01*
Y5337782D01*
X1604778Y5340184D01*
X1625783Y5354218D01*
X1639818Y5375223D01*
X1642220Y5387299D01*
D02*
G37*
G36*
X1567302D02*
X1517784D01*
X1520186Y5375223D01*
X1534221Y5354218D01*
X1555225Y5340184D01*
X1567302Y5337782D01*
Y5387299D01*
D02*
G37*
G36*
X5830809Y5403349D02*
X5802093Y5399568D01*
X5775334Y5388485D01*
X5752356Y5370853D01*
X5734724Y5347874D01*
X5723640Y5321116D01*
X5719860Y5292400D01*
X5723640Y5263684D01*
X5734724Y5236925D01*
X5752356Y5213947D01*
X5775334Y5196315D01*
X5802093Y5185231D01*
X5830809Y5181451D01*
X5859524Y5185231D01*
X5886283Y5196315D01*
X5909261Y5213947D01*
X5926893Y5236925D01*
X5937977Y5263684D01*
X5941758Y5292400D01*
X5937977Y5321116D01*
X5926893Y5347874D01*
X5909261Y5370853D01*
X5886283Y5388485D01*
X5859524Y5399568D01*
X5830809Y5403349D01*
D02*
G37*
G36*
X5018009Y5289807D02*
Y5178100D01*
X5129716D01*
X5127092Y5198032D01*
X5114496Y5228439D01*
X5094460Y5254551D01*
X5068348Y5274587D01*
X5037940Y5287183D01*
X5018009Y5289807D01*
D02*
G37*
G36*
X4992609D02*
X4972677Y5287183D01*
X4942270Y5274587D01*
X4916158Y5254551D01*
X4896121Y5228439D01*
X4883526Y5198032D01*
X4880902Y5178100D01*
X4992609D01*
Y5289807D01*
D02*
G37*
G36*
X419999Y5305560D02*
X403031Y5303326D01*
X387219Y5296777D01*
X373641Y5286358D01*
X363222Y5272780D01*
X356672Y5256968D01*
X354438Y5240000D01*
X356672Y5223031D01*
X363222Y5207219D01*
X373641Y5193641D01*
X387219Y5183223D01*
X403031Y5176673D01*
X419999Y5174439D01*
X436968Y5176673D01*
X452779Y5183223D01*
X466357Y5193641D01*
X476776Y5207219D01*
X483326Y5223031D01*
X485560Y5240000D01*
X483326Y5256968D01*
X476776Y5272780D01*
X466357Y5286358D01*
X452779Y5296777D01*
X436968Y5303326D01*
X419999Y5305560D01*
D02*
G37*
G36*
X5322809Y5546819D02*
X5285562Y5543150D01*
X5249747Y5532286D01*
X5216740Y5514643D01*
X5187809Y5490900D01*
X5164065Y5461969D01*
X5146423Y5428961D01*
X5135558Y5393146D01*
X5131890Y5355900D01*
X5135558Y5318653D01*
X5146423Y5282838D01*
X5164065Y5249831D01*
X5187809Y5220900D01*
X5216740Y5197156D01*
X5249747Y5179514D01*
X5285562Y5168649D01*
X5322809Y5164981D01*
X5360055Y5168649D01*
X5395870Y5179514D01*
X5428878Y5197156D01*
X5457809Y5220900D01*
X5481552Y5249831D01*
X5499195Y5282838D01*
X5510059Y5318653D01*
X5513728Y5355900D01*
X5510059Y5393146D01*
X5499195Y5428961D01*
X5481552Y5461969D01*
X5457809Y5490900D01*
X5428878Y5514643D01*
X5395870Y5532286D01*
X5360055Y5543150D01*
X5322809Y5546819D01*
D02*
G37*
G36*
X1083884Y5384432D02*
X1046031Y5379449D01*
X1010758Y5364838D01*
X980469Y5341596D01*
X957227Y5311307D01*
X942616Y5276034D01*
X937633Y5238181D01*
X942616Y5200328D01*
X957227Y5165055D01*
X980469Y5134766D01*
X1010758Y5111524D01*
X1046031Y5096913D01*
X1083884Y5091930D01*
X1121737Y5096913D01*
X1157010Y5111524D01*
X1187299Y5134766D01*
X1210541Y5165055D01*
X1225152Y5200328D01*
X1230135Y5238181D01*
X1225152Y5276034D01*
X1210541Y5311307D01*
X1187299Y5341596D01*
X1157010Y5364838D01*
X1121737Y5379449D01*
X1083884Y5384432D01*
D02*
G37*
G36*
X432699Y5078258D02*
Y5052700D01*
X458257D01*
X457678Y5055607D01*
X448838Y5068838D01*
X435606Y5077679D01*
X432699Y5078258D01*
D02*
G37*
G36*
X407299D02*
X404392Y5077679D01*
X391161Y5068838D01*
X382320Y5055607D01*
X381742Y5052700D01*
X407299D01*
Y5078258D01*
D02*
G37*
G36*
X5129716Y5152700D02*
X5018009D01*
Y5040993D01*
X5037940Y5043617D01*
X5068348Y5056212D01*
X5094460Y5076249D01*
X5114496Y5102361D01*
X5127092Y5132768D01*
X5129716Y5152700D01*
D02*
G37*
G36*
X4992609D02*
X4880902D01*
X4883526Y5132768D01*
X4896121Y5102361D01*
X4916158Y5076249D01*
X4942270Y5056212D01*
X4972677Y5043617D01*
X4992609Y5040993D01*
Y5152700D01*
D02*
G37*
G36*
X458257Y5027300D02*
X432699D01*
Y5001743D01*
X435606Y5002321D01*
X448838Y5011162D01*
X457678Y5024393D01*
X458257Y5027300D01*
D02*
G37*
G36*
X407299D02*
X381742D01*
X382320Y5024393D01*
X391161Y5011162D01*
X404392Y5002321D01*
X407299Y5001743D01*
Y5027300D01*
D02*
G37*
G36*
X2462698Y4762219D02*
Y4712701D01*
X2512215D01*
X2509813Y4724777D01*
X2495779Y4745782D01*
X2474774Y4759816D01*
X2462698Y4762219D01*
D02*
G37*
G36*
X2437298D02*
X2425221Y4759816D01*
X2404217Y4745782D01*
X2390182Y4724777D01*
X2387780Y4712701D01*
X2437298D01*
Y4762219D01*
D02*
G37*
G36*
X2166031D02*
Y4712701D01*
X2215549D01*
X2213146Y4724777D01*
X2199112Y4745782D01*
X2178107Y4759816D01*
X2166031Y4762219D01*
D02*
G37*
G36*
X2140631D02*
X2128554Y4759816D01*
X2107550Y4745782D01*
X2093515Y4724777D01*
X2091113Y4712701D01*
X2140631D01*
Y4762219D01*
D02*
G37*
G36*
X1869369D02*
Y4712701D01*
X1918887D01*
X1916485Y4724777D01*
X1902450Y4745782D01*
X1881445Y4759816D01*
X1869369Y4762219D01*
D02*
G37*
G36*
X1843969D02*
X1831892Y4759816D01*
X1810888Y4745782D01*
X1796853Y4724777D01*
X1794451Y4712701D01*
X1843969D01*
Y4762219D01*
D02*
G37*
G36*
X1572702D02*
Y4712701D01*
X1622220D01*
X1619818Y4724777D01*
X1605783Y4745782D01*
X1584778Y4759816D01*
X1572702Y4762219D01*
D02*
G37*
G36*
X1547302D02*
X1535226Y4759816D01*
X1514221Y4745782D01*
X1500186Y4724777D01*
X1497784Y4712701D01*
X1547302D01*
Y4762219D01*
D02*
G37*
G36*
X2512215Y4687301D02*
X2462698D01*
Y4637783D01*
X2474774Y4640185D01*
X2495779Y4654220D01*
X2509813Y4675224D01*
X2512215Y4687301D01*
D02*
G37*
G36*
X2437298D02*
X2387780D01*
X2390182Y4675224D01*
X2404217Y4654220D01*
X2425221Y4640185D01*
X2437298Y4637783D01*
Y4687301D01*
D02*
G37*
G36*
X2215549D02*
X2166031D01*
Y4637783D01*
X2178107Y4640185D01*
X2199112Y4654220D01*
X2213146Y4675224D01*
X2215549Y4687301D01*
D02*
G37*
G36*
X2140631D02*
X2091113D01*
X2093515Y4675224D01*
X2107550Y4654220D01*
X2128554Y4640185D01*
X2140631Y4637783D01*
Y4687301D01*
D02*
G37*
G36*
X1918887D02*
X1869369D01*
Y4637783D01*
X1881445Y4640185D01*
X1902450Y4654220D01*
X1916485Y4675224D01*
X1918887Y4687301D01*
D02*
G37*
G36*
X1843969D02*
X1794451D01*
X1796853Y4675224D01*
X1810888Y4654220D01*
X1831892Y4640185D01*
X1843969Y4637783D01*
Y4687301D01*
D02*
G37*
G36*
X1622220D02*
X1572702D01*
Y4637783D01*
X1584778Y4640185D01*
X1605783Y4654220D01*
X1619818Y4675224D01*
X1622220Y4687301D01*
D02*
G37*
G36*
X1547302D02*
X1497784D01*
X1500186Y4675224D01*
X1514221Y4654220D01*
X1535226Y4640185D01*
X1547302Y4637783D01*
Y4687301D01*
D02*
G37*
G36*
X2314367Y4613883D02*
Y4564365D01*
X2363885D01*
X2361482Y4576441D01*
X2347448Y4597446D01*
X2326443Y4611480D01*
X2314367Y4613883D01*
D02*
G37*
G36*
X2288967D02*
X2276890Y4611480D01*
X2255886Y4597446D01*
X2241851Y4576441D01*
X2239449Y4564365D01*
X2288967D01*
Y4613883D01*
D02*
G37*
G36*
X2017700D02*
Y4564365D01*
X2067218D01*
X2064816Y4576441D01*
X2050781Y4597446D01*
X2029776Y4611480D01*
X2017700Y4613883D01*
D02*
G37*
G36*
X1992300D02*
X1980223Y4611480D01*
X1959219Y4597446D01*
X1945184Y4576441D01*
X1942782Y4564365D01*
X1992300D01*
Y4613883D01*
D02*
G37*
G36*
X1721033D02*
Y4564365D01*
X1770551D01*
X1768149Y4576441D01*
X1754114Y4597446D01*
X1733109Y4611480D01*
X1721033Y4613883D01*
D02*
G37*
G36*
X1695633D02*
X1683556Y4611480D01*
X1662552Y4597446D01*
X1648517Y4576441D01*
X1646115Y4564365D01*
X1695633D01*
Y4613883D01*
D02*
G37*
G36*
X2363885Y4538965D02*
X2314367D01*
Y4489447D01*
X2326443Y4491849D01*
X2347448Y4505884D01*
X2361482Y4526888D01*
X2363885Y4538965D01*
D02*
G37*
G36*
X2288967D02*
X2239449D01*
X2241851Y4526888D01*
X2255886Y4505884D01*
X2276890Y4491849D01*
X2288967Y4489447D01*
Y4538965D01*
D02*
G37*
G36*
X2067218D02*
X2017700D01*
Y4489447D01*
X2029776Y4491849D01*
X2050781Y4505884D01*
X2064816Y4526888D01*
X2067218Y4538965D01*
D02*
G37*
G36*
X1992300D02*
X1942782D01*
X1945184Y4526888D01*
X1959219Y4505884D01*
X1980223Y4491849D01*
X1992300Y4489447D01*
Y4538965D01*
D02*
G37*
G36*
X1770551D02*
X1721033D01*
Y4489447D01*
X1733109Y4491849D01*
X1754114Y4505884D01*
X1768149Y4526888D01*
X1770551Y4538965D01*
D02*
G37*
G36*
X1695633D02*
X1646115D01*
X1648517Y4526888D01*
X1662552Y4505884D01*
X1683556Y4491849D01*
X1695633Y4489447D01*
Y4538965D01*
D02*
G37*
G36*
X2462698Y4465552D02*
Y4416034D01*
X2512215D01*
X2509813Y4428110D01*
X2495779Y4449115D01*
X2474774Y4463150D01*
X2462698Y4465552D01*
D02*
G37*
G36*
X2437298D02*
X2425221Y4463150D01*
X2404217Y4449115D01*
X2390182Y4428110D01*
X2387780Y4416034D01*
X2437298D01*
Y4465552D01*
D02*
G37*
G36*
X2166031D02*
Y4416034D01*
X2215549D01*
X2213146Y4428110D01*
X2199112Y4449115D01*
X2178107Y4463150D01*
X2166031Y4465552D01*
D02*
G37*
G36*
X2140631D02*
X2128554Y4463150D01*
X2107550Y4449115D01*
X2093515Y4428110D01*
X2091113Y4416034D01*
X2140631D01*
Y4465552D01*
D02*
G37*
G36*
X1869369D02*
Y4416034D01*
X1918887D01*
X1916485Y4428110D01*
X1902450Y4449115D01*
X1881445Y4463150D01*
X1869369Y4465552D01*
D02*
G37*
G36*
X1843969D02*
X1831892Y4463150D01*
X1810888Y4449115D01*
X1796853Y4428110D01*
X1794451Y4416034D01*
X1843969D01*
Y4465552D01*
D02*
G37*
G36*
X1572702D02*
Y4416034D01*
X1622220D01*
X1619818Y4428110D01*
X1605783Y4449115D01*
X1584778Y4463150D01*
X1572702Y4465552D01*
D02*
G37*
G36*
X1547302D02*
X1535226Y4463150D01*
X1514221Y4449115D01*
X1500186Y4428110D01*
X1497784Y4416034D01*
X1547302D01*
Y4465552D01*
D02*
G37*
G36*
X852698Y4369081D02*
Y4360200D01*
X861579D01*
X858022Y4365523D01*
X852698Y4369081D01*
D02*
G37*
G36*
X827298D02*
X821974Y4365523D01*
X818417Y4360200D01*
X827298D01*
Y4369081D01*
D02*
G37*
G36*
X773115D02*
Y4360200D01*
X781996D01*
X778439Y4365523D01*
X773115Y4369081D01*
D02*
G37*
G36*
X747715D02*
X742391Y4365523D01*
X738834Y4360200D01*
X747715D01*
Y4369081D01*
D02*
G37*
G36*
X693532D02*
Y4360200D01*
X702413D01*
X698856Y4365523D01*
X693532Y4369081D01*
D02*
G37*
G36*
X668132D02*
X662808Y4365523D01*
X659251Y4360200D01*
X668132D01*
Y4369081D01*
D02*
G37*
G36*
X613948D02*
Y4360200D01*
X622830D01*
X619272Y4365523D01*
X613948Y4369081D01*
D02*
G37*
G36*
X588548D02*
X583225Y4365523D01*
X579667Y4360200D01*
X588548D01*
Y4369081D01*
D02*
G37*
G36*
X534365D02*
Y4360200D01*
X543246D01*
X539689Y4365523D01*
X534365Y4369081D01*
D02*
G37*
G36*
X508965D02*
X503641Y4365523D01*
X500084Y4360200D01*
X508965D01*
Y4369081D01*
D02*
G37*
G36*
X454782D02*
Y4360200D01*
X463663D01*
X460106Y4365523D01*
X454782Y4369081D01*
D02*
G37*
G36*
X429382D02*
X424058Y4365523D01*
X420501Y4360200D01*
X429382D01*
Y4369081D01*
D02*
G37*
G36*
X375199D02*
Y4360200D01*
X384080D01*
X380522Y4365523D01*
X375199Y4369081D01*
D02*
G37*
G36*
X349799D02*
X344475Y4365523D01*
X340918Y4360200D01*
X349799D01*
Y4369081D01*
D02*
G37*
G36*
X2512215Y4390634D02*
X2462698D01*
Y4341116D01*
X2474774Y4343518D01*
X2495779Y4357553D01*
X2509813Y4378557D01*
X2512215Y4390634D01*
D02*
G37*
G36*
X2437298D02*
X2387780D01*
X2390182Y4378557D01*
X2404217Y4357553D01*
X2425221Y4343518D01*
X2437298Y4341116D01*
Y4390634D01*
D02*
G37*
G36*
X2215549D02*
X2166031D01*
Y4341116D01*
X2178107Y4343518D01*
X2199112Y4357553D01*
X2213146Y4378557D01*
X2215549Y4390634D01*
D02*
G37*
G36*
X2140631D02*
X2091113D01*
X2093515Y4378557D01*
X2107550Y4357553D01*
X2128554Y4343518D01*
X2140631Y4341116D01*
Y4390634D01*
D02*
G37*
G36*
X1918887D02*
X1869369D01*
Y4341116D01*
X1881445Y4343518D01*
X1902450Y4357553D01*
X1916485Y4378557D01*
X1918887Y4390634D01*
D02*
G37*
G36*
X1843969D02*
X1794451D01*
X1796853Y4378557D01*
X1810888Y4357553D01*
X1831892Y4343518D01*
X1843969Y4341116D01*
Y4390634D01*
D02*
G37*
G36*
X1622220D02*
X1572702D01*
Y4341116D01*
X1584778Y4343518D01*
X1605783Y4357553D01*
X1619818Y4378557D01*
X1622220Y4390634D01*
D02*
G37*
G36*
X1547302D02*
X1497784D01*
X1500186Y4378557D01*
X1514221Y4357553D01*
X1535226Y4343518D01*
X1547302Y4341116D01*
Y4390634D01*
D02*
G37*
G36*
X861579Y4334800D02*
X852698D01*
Y4325918D01*
X858022Y4329476D01*
X861579Y4334800D01*
D02*
G37*
G36*
X827298D02*
X818417D01*
X821974Y4329476D01*
X827298Y4325918D01*
Y4334800D01*
D02*
G37*
G36*
X781996D02*
X773115D01*
Y4325918D01*
X778439Y4329476D01*
X781996Y4334800D01*
D02*
G37*
G36*
X747715D02*
X738834D01*
X742391Y4329476D01*
X747715Y4325918D01*
Y4334800D01*
D02*
G37*
G36*
X702413D02*
X693532D01*
Y4325918D01*
X698856Y4329476D01*
X702413Y4334800D01*
D02*
G37*
G36*
X668132D02*
X659251D01*
X662808Y4329476D01*
X668132Y4325918D01*
Y4334800D01*
D02*
G37*
G36*
X622830D02*
X613948D01*
Y4325918D01*
X619272Y4329476D01*
X622830Y4334800D01*
D02*
G37*
G36*
X588548D02*
X579667D01*
X583225Y4329476D01*
X588548Y4325918D01*
Y4334800D01*
D02*
G37*
G36*
X543246D02*
X534365D01*
Y4325918D01*
X539689Y4329476D01*
X543246Y4334800D01*
D02*
G37*
G36*
X508965D02*
X500084D01*
X503641Y4329476D01*
X508965Y4325918D01*
Y4334800D01*
D02*
G37*
G36*
X463663D02*
X454782D01*
Y4325918D01*
X460106Y4329476D01*
X463663Y4334800D01*
D02*
G37*
G36*
X429382D02*
X420501D01*
X424058Y4329476D01*
X429382Y4325918D01*
Y4334800D01*
D02*
G37*
G36*
X384080D02*
X375199D01*
Y4325918D01*
X380522Y4329476D01*
X384080Y4334800D01*
D02*
G37*
G36*
X349799D02*
X340918D01*
X344475Y4329476D01*
X349799Y4325918D01*
Y4334800D01*
D02*
G37*
G36*
X2314367Y4317216D02*
Y4267698D01*
X2363885D01*
X2361482Y4279774D01*
X2347448Y4300779D01*
X2326443Y4314814D01*
X2314367Y4317216D01*
D02*
G37*
G36*
X2288967D02*
X2276890Y4314814D01*
X2255886Y4300779D01*
X2241851Y4279774D01*
X2239449Y4267698D01*
X2288967D01*
Y4317216D01*
D02*
G37*
G36*
X2017700D02*
Y4267698D01*
X2067218D01*
X2064816Y4279774D01*
X2050781Y4300779D01*
X2029776Y4314814D01*
X2017700Y4317216D01*
D02*
G37*
G36*
X1992300D02*
X1980223Y4314814D01*
X1959219Y4300779D01*
X1945184Y4279774D01*
X1942782Y4267698D01*
X1992300D01*
Y4317216D01*
D02*
G37*
G36*
X1721033D02*
Y4267698D01*
X1770551D01*
X1768149Y4279774D01*
X1754114Y4300779D01*
X1733109Y4314814D01*
X1721033Y4317216D01*
D02*
G37*
G36*
X1695633D02*
X1683556Y4314814D01*
X1662552Y4300779D01*
X1648517Y4279774D01*
X1646115Y4267698D01*
X1695633D01*
Y4317216D01*
D02*
G37*
G36*
X4653879Y4554431D02*
X4616027Y4549448D01*
X4580754Y4534837D01*
X4550464Y4511595D01*
X4527222Y4481306D01*
X4512612Y4446033D01*
X4507628Y4408180D01*
X4512612Y4370328D01*
X4527222Y4335055D01*
X4550464Y4304765D01*
X4580754Y4281523D01*
X4616027Y4266912D01*
X4653879Y4261929D01*
X4691732Y4266912D01*
X4727005Y4281523D01*
X4757295Y4304765D01*
X4780537Y4335055D01*
X4795147Y4370328D01*
X4800131Y4408180D01*
X4795147Y4446033D01*
X4780537Y4481306D01*
X4757295Y4511595D01*
X4727005Y4534837D01*
X4691732Y4549448D01*
X4653879Y4554431D01*
D02*
G37*
G36*
X2363885Y4242298D02*
X2314367D01*
Y4192780D01*
X2326443Y4195182D01*
X2347448Y4209217D01*
X2361482Y4230221D01*
X2363885Y4242298D01*
D02*
G37*
G36*
X2288967D02*
X2239449D01*
X2241851Y4230221D01*
X2255886Y4209217D01*
X2276890Y4195182D01*
X2288967Y4192780D01*
Y4242298D01*
D02*
G37*
G36*
X2067218D02*
X2017700D01*
Y4192780D01*
X2029776Y4195182D01*
X2050781Y4209217D01*
X2064816Y4230221D01*
X2067218Y4242298D01*
D02*
G37*
G36*
X1992300D02*
X1942782D01*
X1945184Y4230221D01*
X1959219Y4209217D01*
X1980223Y4195182D01*
X1992300Y4192780D01*
Y4242298D01*
D02*
G37*
G36*
X1770551D02*
X1721033D01*
Y4192780D01*
X1733109Y4195182D01*
X1754114Y4209217D01*
X1768149Y4230221D01*
X1770551Y4242298D01*
D02*
G37*
G36*
X1695633D02*
X1646115D01*
X1648517Y4230221D01*
X1662552Y4209217D01*
X1683556Y4195182D01*
X1695633Y4192780D01*
Y4242298D01*
D02*
G37*
G36*
X2462698Y4168885D02*
Y4119367D01*
X2512215D01*
X2509813Y4131443D01*
X2495779Y4152448D01*
X2474774Y4166483D01*
X2462698Y4168885D01*
D02*
G37*
G36*
X2437298D02*
X2425221Y4166483D01*
X2404217Y4152448D01*
X2390182Y4131443D01*
X2387780Y4119367D01*
X2437298D01*
Y4168885D01*
D02*
G37*
G36*
X2166031D02*
Y4119367D01*
X2215549D01*
X2213146Y4131443D01*
X2199112Y4152448D01*
X2178107Y4166483D01*
X2166031Y4168885D01*
D02*
G37*
G36*
X2140631D02*
X2128554Y4166483D01*
X2107550Y4152448D01*
X2093515Y4131443D01*
X2091113Y4119367D01*
X2140631D01*
Y4168885D01*
D02*
G37*
G36*
X1869369D02*
Y4119367D01*
X1918887D01*
X1916485Y4131443D01*
X1902450Y4152448D01*
X1881445Y4166483D01*
X1869369Y4168885D01*
D02*
G37*
G36*
X1843969D02*
X1831892Y4166483D01*
X1810888Y4152448D01*
X1796853Y4131443D01*
X1794451Y4119367D01*
X1843969D01*
Y4168885D01*
D02*
G37*
G36*
X1572702D02*
Y4119367D01*
X1622220D01*
X1619818Y4131443D01*
X1605783Y4152448D01*
X1584778Y4166483D01*
X1572702Y4168885D01*
D02*
G37*
G36*
X1547302D02*
X1535226Y4166483D01*
X1514221Y4152448D01*
X1500186Y4131443D01*
X1497784Y4119367D01*
X1547302D01*
Y4168885D01*
D02*
G37*
G36*
X5493197Y4217393D02*
Y4105686D01*
X5604904D01*
X5602280Y4125618D01*
X5589685Y4156026D01*
X5569648Y4182138D01*
X5543536Y4202174D01*
X5513129Y4214769D01*
X5493197Y4217393D01*
D02*
G37*
G36*
X5467797D02*
X5447865Y4214769D01*
X5417458Y4202174D01*
X5391346Y4182138D01*
X5371310Y4156026D01*
X5358714Y4125618D01*
X5356090Y4105686D01*
X5467797D01*
Y4217393D01*
D02*
G37*
G36*
X2512215Y4093967D02*
X2462698D01*
Y4044449D01*
X2474774Y4046851D01*
X2495779Y4060886D01*
X2509813Y4081890D01*
X2512215Y4093967D01*
D02*
G37*
G36*
X2437298D02*
X2387780D01*
X2390182Y4081890D01*
X2404217Y4060886D01*
X2425221Y4046851D01*
X2437298Y4044449D01*
Y4093967D01*
D02*
G37*
G36*
X2215549D02*
X2166031D01*
Y4044449D01*
X2178107Y4046851D01*
X2199112Y4060886D01*
X2213146Y4081890D01*
X2215549Y4093967D01*
D02*
G37*
G36*
X2140631D02*
X2091113D01*
X2093515Y4081890D01*
X2107550Y4060886D01*
X2128554Y4046851D01*
X2140631Y4044449D01*
Y4093967D01*
D02*
G37*
G36*
X1918887D02*
X1869369D01*
Y4044449D01*
X1881445Y4046851D01*
X1902450Y4060886D01*
X1916485Y4081890D01*
X1918887Y4093967D01*
D02*
G37*
G36*
X1843969D02*
X1794451D01*
X1796853Y4081890D01*
X1810888Y4060886D01*
X1831892Y4046851D01*
X1843969Y4044449D01*
Y4093967D01*
D02*
G37*
G36*
X1622220D02*
X1572702D01*
Y4044449D01*
X1584778Y4046851D01*
X1605783Y4060886D01*
X1619818Y4081890D01*
X1622220Y4093967D01*
D02*
G37*
G36*
X1547302D02*
X1497784D01*
X1500186Y4081890D01*
X1514221Y4060886D01*
X1535226Y4046851D01*
X1547302Y4044449D01*
Y4093967D01*
D02*
G37*
G36*
X2314367Y4020549D02*
Y3971031D01*
X2363885D01*
X2361482Y3983107D01*
X2347448Y4004112D01*
X2326443Y4018147D01*
X2314367Y4020549D01*
D02*
G37*
G36*
X2288967D02*
X2276890Y4018147D01*
X2255886Y4004112D01*
X2241851Y3983107D01*
X2239449Y3971031D01*
X2288967D01*
Y4020549D01*
D02*
G37*
G36*
X2017700D02*
Y3971031D01*
X2067218D01*
X2064816Y3983107D01*
X2050781Y4004112D01*
X2029776Y4018147D01*
X2017700Y4020549D01*
D02*
G37*
G36*
X1992300D02*
X1980223Y4018147D01*
X1959219Y4004112D01*
X1945184Y3983107D01*
X1942782Y3971031D01*
X1992300D01*
Y4020549D01*
D02*
G37*
G36*
X1721033D02*
Y3971031D01*
X1770551D01*
X1768149Y3983107D01*
X1754114Y4004112D01*
X1733109Y4018147D01*
X1721033Y4020549D01*
D02*
G37*
G36*
X1695633D02*
X1683556Y4018147D01*
X1662552Y4004112D01*
X1648517Y3983107D01*
X1646115Y3971031D01*
X1695633D01*
Y4020549D01*
D02*
G37*
G36*
X5604904Y4080286D02*
X5493197D01*
Y3968580D01*
X5513129Y3971204D01*
X5543536Y3983799D01*
X5569648Y4003835D01*
X5589685Y4029947D01*
X5602280Y4060355D01*
X5604904Y4080286D01*
D02*
G37*
G36*
X5467797D02*
X5356090D01*
X5358714Y4060355D01*
X5371310Y4029947D01*
X5391346Y4003835D01*
X5417458Y3983799D01*
X5447865Y3971204D01*
X5467797Y3968580D01*
Y4080286D01*
D02*
G37*
G36*
X2363885Y3945631D02*
X2314367D01*
Y3896113D01*
X2326443Y3898515D01*
X2347448Y3912550D01*
X2361482Y3933554D01*
X2363885Y3945631D01*
D02*
G37*
G36*
X2288967D02*
X2239449D01*
X2241851Y3933554D01*
X2255886Y3912550D01*
X2276890Y3898515D01*
X2288967Y3896113D01*
Y3945631D01*
D02*
G37*
G36*
X2067218D02*
X2017700D01*
Y3896113D01*
X2029776Y3898515D01*
X2050781Y3912550D01*
X2064816Y3933554D01*
X2067218Y3945631D01*
D02*
G37*
G36*
X1992300D02*
X1942782D01*
X1945184Y3933554D01*
X1959219Y3912550D01*
X1980223Y3898515D01*
X1992300Y3896113D01*
Y3945631D01*
D02*
G37*
G36*
X1770551D02*
X1721033D01*
Y3896113D01*
X1733109Y3898515D01*
X1754114Y3912550D01*
X1768149Y3933554D01*
X1770551Y3945631D01*
D02*
G37*
G36*
X1695633D02*
X1646115D01*
X1648517Y3933554D01*
X1662552Y3912550D01*
X1683556Y3898515D01*
X1695633Y3896113D01*
Y3945631D01*
D02*
G37*
G36*
X2462698Y3872218D02*
Y3822700D01*
X2512215D01*
X2509813Y3834776D01*
X2495779Y3855781D01*
X2474774Y3869816D01*
X2462698Y3872218D01*
D02*
G37*
G36*
X2437298D02*
X2425221Y3869816D01*
X2404217Y3855781D01*
X2390182Y3834776D01*
X2387780Y3822700D01*
X2437298D01*
Y3872218D01*
D02*
G37*
G36*
X2166031D02*
Y3822700D01*
X2215549D01*
X2213146Y3834776D01*
X2199112Y3855781D01*
X2178107Y3869816D01*
X2166031Y3872218D01*
D02*
G37*
G36*
X2140631D02*
X2128554Y3869816D01*
X2107550Y3855781D01*
X2093515Y3834776D01*
X2091113Y3822700D01*
X2140631D01*
Y3872218D01*
D02*
G37*
G36*
X1869369D02*
Y3822700D01*
X1918887D01*
X1916485Y3834776D01*
X1902450Y3855781D01*
X1881445Y3869816D01*
X1869369Y3872218D01*
D02*
G37*
G36*
X1843969D02*
X1831892Y3869816D01*
X1810888Y3855781D01*
X1796853Y3834776D01*
X1794451Y3822700D01*
X1843969D01*
Y3872218D01*
D02*
G37*
G36*
X1572702D02*
Y3822700D01*
X1622220D01*
X1619818Y3834776D01*
X1605783Y3855781D01*
X1584778Y3869816D01*
X1572702Y3872218D01*
D02*
G37*
G36*
X1547302D02*
X1535226Y3869816D01*
X1514221Y3855781D01*
X1500186Y3834776D01*
X1497784Y3822700D01*
X1547302D01*
Y3872218D01*
D02*
G37*
G36*
X2512215Y3797300D02*
X2462698D01*
Y3747782D01*
X2474774Y3750184D01*
X2495779Y3764219D01*
X2509813Y3785224D01*
X2512215Y3797300D01*
D02*
G37*
G36*
X2437298D02*
X2387780D01*
X2390182Y3785224D01*
X2404217Y3764219D01*
X2425221Y3750184D01*
X2437298Y3747782D01*
Y3797300D01*
D02*
G37*
G36*
X2215549D02*
X2166031D01*
Y3747782D01*
X2178107Y3750184D01*
X2199112Y3764219D01*
X2213146Y3785224D01*
X2215549Y3797300D01*
D02*
G37*
G36*
X2140631D02*
X2091113D01*
X2093515Y3785224D01*
X2107550Y3764219D01*
X2128554Y3750184D01*
X2140631Y3747782D01*
Y3797300D01*
D02*
G37*
G36*
X1918887D02*
X1869369D01*
Y3747782D01*
X1881445Y3750184D01*
X1902450Y3764219D01*
X1916485Y3785224D01*
X1918887Y3797300D01*
D02*
G37*
G36*
X1843969D02*
X1794451D01*
X1796853Y3785224D01*
X1810888Y3764219D01*
X1831892Y3750184D01*
X1843969Y3747782D01*
Y3797300D01*
D02*
G37*
G36*
X1622220D02*
X1572702D01*
Y3747782D01*
X1584778Y3750184D01*
X1605783Y3764219D01*
X1619818Y3785224D01*
X1622220Y3797300D01*
D02*
G37*
G36*
X1547302D02*
X1497784D01*
X1500186Y3785224D01*
X1514221Y3764219D01*
X1535226Y3750184D01*
X1547302Y3747782D01*
Y3797300D01*
D02*
G37*
G36*
X5002698Y3412219D02*
Y3362701D01*
X5052215D01*
X5049813Y3374777D01*
X5035779Y3395782D01*
X5014774Y3409817D01*
X5002698Y3412219D01*
D02*
G37*
G36*
X4977298D02*
X4965221Y3409817D01*
X4944217Y3395782D01*
X4930182Y3374777D01*
X4927780Y3362701D01*
X4977298D01*
Y3412219D01*
D02*
G37*
G36*
X4222699Y3357596D02*
Y3342701D01*
X4237594D01*
X4231628Y3351630D01*
X4222699Y3357596D01*
D02*
G37*
G36*
X4197299D02*
X4188370Y3351630D01*
X4182404Y3342701D01*
X4197299D01*
Y3357596D01*
D02*
G37*
G36*
X4237594Y3317301D02*
X4222699D01*
Y3302406D01*
X4231628Y3308372D01*
X4237594Y3317301D01*
D02*
G37*
G36*
X4197299D02*
X4182404D01*
X4188370Y3308372D01*
X4197299Y3302406D01*
Y3317301D01*
D02*
G37*
G36*
X5052215Y3337301D02*
X5002698D01*
Y3287783D01*
X5014774Y3290185D01*
X5035779Y3304220D01*
X5049813Y3325224D01*
X5052215Y3337301D01*
D02*
G37*
G36*
X4977298D02*
X4927780D01*
X4930182Y3325224D01*
X4944217Y3304220D01*
X4965221Y3290185D01*
X4977298Y3287783D01*
Y3337301D01*
D02*
G37*
G36*
X3450001Y3436252D02*
X3412148Y3431269D01*
X3376875Y3416658D01*
X3346586Y3393416D01*
X3323344Y3363127D01*
X3308733Y3327854D01*
X3303750Y3290001D01*
X3308733Y3252148D01*
X3323344Y3216875D01*
X3346586Y3186586D01*
X3376875Y3163344D01*
X3412148Y3148733D01*
X3450001Y3143750D01*
X3487853Y3148733D01*
X3523126Y3163344D01*
X3553416Y3186586D01*
X3576658Y3216875D01*
X3591268Y3252148D01*
X3596252Y3290001D01*
X3591268Y3327854D01*
X3576658Y3363127D01*
X3553416Y3393416D01*
X3523126Y3416658D01*
X3487853Y3431269D01*
X3450001Y3436252D01*
D02*
G37*
G36*
X2912699Y3122217D02*
Y3072699D01*
X2962217D01*
X2959815Y3084775D01*
X2945780Y3105780D01*
X2924776Y3119815D01*
X2912699Y3122217D01*
D02*
G37*
G36*
X2887299D02*
X2875223Y3119815D01*
X2854218Y3105780D01*
X2840184Y3084775D01*
X2837781Y3072699D01*
X2887299D01*
Y3122217D01*
D02*
G37*
G36*
X1252703D02*
Y3072699D01*
X1302220D01*
X1299818Y3084775D01*
X1285784Y3105780D01*
X1264779Y3119815D01*
X1252703Y3122217D01*
D02*
G37*
G36*
X1227303D02*
X1215226Y3119815D01*
X1194222Y3105780D01*
X1180187Y3084775D01*
X1177785Y3072699D01*
X1227303D01*
Y3122217D01*
D02*
G37*
G36*
X2962217Y3047299D02*
X2912699D01*
Y2997781D01*
X2924776Y3000183D01*
X2945780Y3014218D01*
X2959815Y3035223D01*
X2962217Y3047299D01*
D02*
G37*
G36*
X2887299D02*
X2837781D01*
X2840184Y3035223D01*
X2854218Y3014218D01*
X2875223Y3000183D01*
X2887299Y2997781D01*
Y3047299D01*
D02*
G37*
G36*
X1302220D02*
X1252703D01*
Y2997781D01*
X1264779Y3000183D01*
X1285784Y3014218D01*
X1299818Y3035223D01*
X1302220Y3047299D01*
D02*
G37*
G36*
X1227303D02*
X1177785D01*
X1180187Y3035223D01*
X1194222Y3014218D01*
X1215226Y3000183D01*
X1227303Y2997781D01*
Y3047299D01*
D02*
G37*
G36*
X999998Y3150725D02*
X970593Y3147829D01*
X942318Y3139252D01*
X916259Y3125323D01*
X893419Y3106578D01*
X874674Y3083738D01*
X860746Y3057679D01*
X852168Y3029404D01*
X849272Y2999999D01*
X852168Y2970594D01*
X860746Y2942319D01*
X874674Y2916260D01*
X893419Y2893420D01*
X916259Y2874675D01*
X942318Y2860747D01*
X970593Y2852170D01*
X999998Y2849273D01*
X1029403Y2852170D01*
X1057678Y2860747D01*
X1083737Y2874675D01*
X1106577Y2893420D01*
X1125322Y2916260D01*
X1139250Y2942319D01*
X1147828Y2970594D01*
X1150724Y2999999D01*
X1147828Y3029404D01*
X1139250Y3057679D01*
X1125322Y3083738D01*
X1106577Y3106578D01*
X1083737Y3125323D01*
X1057678Y3139252D01*
X1029403Y3147829D01*
X999998Y3150725D01*
D02*
G37*
G36*
X549000Y2651002D02*
X279000D01*
Y2381002D01*
X549000D01*
Y2651002D01*
D02*
G37*
G36*
X529000Y1615002D02*
X426700D01*
Y1512702D01*
X529000D01*
Y1615002D01*
D02*
G37*
G36*
X401300D02*
X299000D01*
Y1512702D01*
X401300D01*
Y1615002D01*
D02*
G37*
G36*
X529000Y1487302D02*
X426700D01*
Y1385002D01*
X529000D01*
Y1487302D01*
D02*
G37*
G36*
X401300D02*
X299000D01*
Y1385002D01*
X401300D01*
Y1487302D01*
D02*
G37*
G36*
X549000Y619002D02*
X279000D01*
Y349002D01*
X549000D01*
Y619002D01*
D02*
G37*
%LPD*%
D48*
X1942851Y7369998D02*
X4800001D01*
X1932854Y7380000D02*
X1942851Y7369998D01*
X4800001D02*
X5110002Y7680000D01*
D49*
X2089998Y8299999D02*
X3990000D01*
X530001Y8390001D02*
Y9010000D01*
X2160001Y6760002D02*
X2730002D01*
X530001Y8390001D02*
X2160001Y6760002D01*
X1689999Y7919999D02*
Y9120002D01*
Y7919999D02*
X1867499Y7742499D01*
X1949999Y9380002D02*
X2420000D01*
X1689999Y9120002D02*
X1949999Y9380002D01*
X2420000D02*
X2530003Y9489999D01*
X2040001Y8270001D02*
X2060001D01*
X2089998Y8299999D01*
D52*
X4687809Y5736900D02*
D03*
X4370309Y6117900D02*
D03*
Y6371900D02*
D03*
X4687809Y5482900D02*
D03*
Y6244900D02*
D03*
X4370309Y5609900D02*
D03*
Y5863900D02*
D03*
X4687809Y5990900D02*
D03*
D54*
X5000000Y2999999D02*
D03*
X999998D02*
D03*
X5000000Y7000001D02*
D03*
X999998D02*
D03*
D55*
X5005309Y6689400D02*
D03*
Y5165400D02*
D03*
D56*
X5627502Y8585002D02*
D03*
Y8834999D02*
D03*
Y9085001D02*
D03*
D57*
Y8335000D02*
D03*
D58*
X5322809Y5355900D02*
D03*
Y6498900D02*
D03*
D59*
X5640309Y5546400D02*
D03*
Y6562400D02*
D03*
X5830809Y5292400D02*
D03*
Y6308400D02*
D03*
D60*
X414000Y2516002D02*
D03*
Y484002D02*
D03*
Y1500002D02*
D03*
X4986000Y738002D02*
D03*
Y2262002D02*
D03*
Y1754002D02*
D03*
D61*
X5087620Y9507220D02*
D03*
X3660140Y9060180D02*
D03*
X2850002Y7700000D02*
D03*
X2387498Y7950002D02*
D03*
X3679998Y7424999D02*
D03*
X4279997Y8837503D02*
D03*
X4540006Y8577499D02*
D03*
X2591481Y5730296D02*
D03*
X2480000Y5959998D02*
D03*
X3359323Y5799821D02*
D03*
X3430001Y6869999D02*
D03*
X3039999Y6749999D02*
D03*
X3330001Y6720002D02*
D03*
X3290001Y5870001D02*
D03*
X3360110Y5939699D02*
D03*
X3290001Y6010001D02*
D03*
X3360110Y6079698D02*
D03*
X3220110D02*
D03*
X2990002Y6700002D02*
D03*
X3880002Y6749999D02*
D03*
X3874999Y6580002D02*
D03*
X403753Y8545002D02*
D03*
Y9194998D02*
D03*
X1162502Y9627499D02*
D03*
X2427498Y9752498D02*
D03*
X3492500D02*
D03*
X4540001Y8707501D02*
D03*
X4475002Y8642497D02*
D03*
X4409999Y8837503D02*
D03*
X4540001D02*
D03*
X4279997Y8707501D02*
D03*
X4410004Y8577499D02*
D03*
X4279997D02*
D03*
X4344995Y8772505D02*
D03*
X4475002Y8772500D02*
D03*
X4345000Y8642497D02*
D03*
X4409999Y8707501D02*
D03*
X3079323Y5939820D02*
D03*
X3150001Y6010001D02*
D03*
X3219323Y5799821D02*
D03*
X3079323D02*
D03*
X3080111Y6079698D02*
D03*
X3150001Y5870001D02*
D03*
X3220110Y5939699D02*
D03*
X1649999Y6500002D02*
D03*
X1510000Y6070001D02*
D03*
X4209999Y3330001D02*
D03*
D62*
X1932854Y7380000D02*
D03*
X2879999Y7180001D02*
D03*
X2884998Y7255002D02*
D03*
X2839999Y8170001D02*
D03*
X2885003Y8235000D02*
D03*
X2939999Y8130002D02*
D03*
X2999999D02*
D03*
X3059999D02*
D03*
X530001Y9010000D02*
D03*
X2730002Y6760002D02*
D03*
X2692502Y9060002D02*
D03*
X2607498Y8590001D02*
D03*
Y8670000D02*
D03*
Y8590001D02*
D03*
Y8670000D02*
D03*
X2692502Y9060002D02*
D03*
X2440000Y7200001D02*
D03*
X2530003Y9489999D02*
D03*
X1800001Y8450001D02*
D03*
D03*
X1909999Y7840000D02*
D03*
X1867499Y7742499D02*
D03*
X1909999Y8279999D02*
D03*
X1880001Y8230001D02*
D03*
D03*
X5110002Y7680000D02*
D03*
X1460002Y6720002D02*
D03*
D03*
X3259999Y6279998D02*
D03*
D03*
X3348553Y6288557D02*
D03*
D03*
X3480460Y6200049D02*
D03*
D03*
X3890000Y6410000D02*
D03*
D03*
X4200002Y8930000D02*
D03*
D03*
X4000002Y8699998D02*
D03*
D03*
X4309999Y8370001D02*
D03*
D03*
X4460001Y8359999D02*
D03*
D03*
X4069999Y8139999D02*
D03*
X3739998Y8079999D02*
D03*
X4071818Y8658179D02*
D03*
D03*
X2040001Y8270001D02*
D03*
X2309998Y8257499D02*
D03*
X2240001D02*
D03*
X2180001D02*
D03*
X3990000Y8299999D02*
D03*
X1940001Y9140002D02*
D03*
D03*
X1070000Y9240002D02*
D03*
D03*
X2990002Y6179998D02*
D03*
D03*
X2879999Y5910001D02*
D03*
D03*
D63*
X999998Y6239998D02*
D03*
X1490000Y8350001D02*
D03*
Y8417499D02*
D03*
X2157486Y8819987D02*
D03*
X3619998Y8647501D02*
D03*
X2252502Y6174999D02*
D03*
Y6310000D02*
D03*
Y6242502D02*
D03*
X1760002Y6857502D02*
D03*
X1490000Y7127499D02*
D03*
Y7060001D02*
D03*
Y6992498D02*
D03*
Y8282498D02*
D03*
X1625001Y6857502D02*
D03*
X1692499D02*
D03*
X3619998Y8745002D02*
D03*
Y8677499D02*
D03*
X2117501Y8777498D02*
D03*
X839998Y4347500D02*
D03*
X760415D02*
D03*
X680832D02*
D03*
X601248D02*
D03*
X521665D02*
D03*
X442082D02*
D03*
X362499D02*
D03*
X1805000Y6159998D02*
D03*
D64*
X1949999Y7540000D02*
D03*
X1580002Y5399999D02*
D03*
X1869999D02*
D03*
X1727500Y5404805D02*
D03*
X2049998Y6190000D02*
D03*
X1179998Y8187304D02*
D03*
X1260003Y7067306D02*
D03*
X1949999Y8039999D02*
D03*
X2750002Y8870000D02*
D03*
X1829999Y8990000D02*
D03*
X4040002Y9429999D02*
D03*
X4989998Y3350001D02*
D03*
X2899999Y3059999D02*
D03*
X1240003D02*
D03*
X1856669Y4106667D02*
D03*
X2153331D02*
D03*
Y4403334D02*
D03*
X2301667Y4254998D02*
D03*
X1708333D02*
D03*
Y4551665D02*
D03*
Y3958331D02*
D03*
X2005000Y4551665D02*
D03*
Y4254998D02*
D03*
Y3958331D02*
D03*
X2301667Y4551665D02*
D03*
Y3958331D02*
D03*
X1856669Y4700001D02*
D03*
X2153331D02*
D03*
X2449998D02*
D03*
X1856669Y4403334D02*
D03*
X2449998D02*
D03*
Y4106667D02*
D03*
X1856669Y3810000D02*
D03*
X2153331D02*
D03*
X2449998D02*
D03*
X1560002D02*
D03*
Y4106667D02*
D03*
Y4403334D02*
D03*
Y4700001D02*
D03*
X4555002Y7792502D02*
D03*
X5267498Y8962502D02*
D03*
X5282499Y8457499D02*
D03*
D65*
X1083884Y5238181D02*
D03*
X4653879Y4408180D02*
D03*
X3450001Y3290001D02*
D03*
X5480497Y4092986D02*
D03*
%TF.MD5,6b9537dd54e224b39516c8cdd473e339*%
M02*
