%TF.GenerationSoftware,Altium Limited,Altium Designer,20.1.12 (249)*%
G04 Layer_Physical_Order=1*
G04 Layer_Color=255*
%FSLAX45Y45*%
%MOMM*%
%TF.SameCoordinates,0418086A-757F-42B6-A3B9-695331E80F4B*%
%TF.FilePolarity,Positive*%
%TF.FileFunction,Copper,L1,Top,Signal*%
%TF.Part,Single*%
G01*
G75*
%TA.AperFunction,ConnectorPad*%
%ADD10R,0.60000X1.55000*%
%ADD11R,1.20000X1.80000*%
%TA.AperFunction,SMDPad,CuDef*%
%ADD12R,1.00000X0.95000*%
%ADD13R,0.95000X1.00000*%
%ADD14R,1.55000X0.60000*%
%ADD15R,1.80000X1.20000*%
%ADD16R,1.80000X1.15000*%
%ADD17R,2.30000X2.45000*%
%ADD18R,4.00000X1.80000*%
%ADD19R,1.15000X1.80000*%
G04:AMPARAMS|DCode=20|XSize=1mm|YSize=0.6mm|CornerRadius=0.15mm|HoleSize=0mm|Usage=FLASHONLY|Rotation=0.000|XOffset=0mm|YOffset=0mm|HoleType=Round|Shape=RoundedRectangle|*
%AMROUNDEDRECTD20*
21,1,1.00000,0.30000,0,0,0.0*
21,1,0.70000,0.60000,0,0,0.0*
1,1,0.30000,0.35000,-0.15000*
1,1,0.30000,-0.35000,-0.15000*
1,1,0.30000,-0.35000,0.15000*
1,1,0.30000,0.35000,0.15000*
%
%ADD20ROUNDEDRECTD20*%
%ADD21R,1.40000X0.95000*%
%ADD22R,2.45000X2.30000*%
%ADD23R,1.60000X2.70000*%
%ADD24R,0.81280X0.25400*%
%ADD25R,0.25400X0.81280*%
%ADD26R,0.95000X1.40000*%
%ADD27R,0.65000X0.70000*%
%TA.AperFunction,ConnectorPad*%
%ADD28R,3.00000X1.60000*%
%ADD29R,5.80000X1.00000*%
%TA.AperFunction,SMDPad,CuDef*%
G04:AMPARAMS|DCode=30|XSize=1mm|YSize=2.9mm|CornerRadius=0.25mm|HoleSize=0mm|Usage=FLASHONLY|Rotation=180.000|XOffset=0mm|YOffset=0mm|HoleType=Round|Shape=RoundedRectangle|*
%AMROUNDEDRECTD30*
21,1,1.00000,2.40000,0,0,180.0*
21,1,0.50000,2.90000,0,0,180.0*
1,1,0.50000,-0.25000,1.20000*
1,1,0.50000,0.25000,1.20000*
1,1,0.50000,0.25000,-1.20000*
1,1,0.50000,-0.25000,-1.20000*
%
%ADD30ROUNDEDRECTD30*%
%ADD31R,0.90000X0.70000*%
%ADD32R,2.00000X3.00000*%
%ADD33R,0.25000X0.95000*%
%ADD34R,1.60000X1.80000*%
%ADD35R,0.60000X1.30000*%
G04:AMPARAMS|DCode=36|XSize=1.6mm|YSize=1.8mm|CornerRadius=0mm|HoleSize=0mm|Usage=FLASHONLY|Rotation=180.000|XOffset=0mm|YOffset=0mm|HoleType=Round|Shape=Octagon|*
%AMOCTAGOND36*
4,1,8,0.40000,-0.90000,-0.40000,-0.90000,-0.80000,-0.50000,-0.80000,0.50000,-0.40000,0.90000,0.40000,0.90000,0.80000,0.50000,0.80000,-0.50000,0.40000,-0.90000,0.0*
%
%ADD36OCTAGOND36*%

%TA.AperFunction,SMDPad,SMDef*%
%ADD37R,3.40360X3.40360*%
%TA.AperFunction,SMDPad,CuDef*%
%ADD38R,0.95000X0.25000*%
%ADD39R,3.15000X3.15000*%
G04:AMPARAMS|DCode=40|XSize=1mm|YSize=2.9mm|CornerRadius=0.25mm|HoleSize=0mm|Usage=FLASHONLY|Rotation=90.000|XOffset=0mm|YOffset=0mm|HoleType=Round|Shape=RoundedRectangle|*
%AMROUNDEDRECTD40*
21,1,1.00000,2.40000,0,0,90.0*
21,1,0.50000,2.90000,0,0,90.0*
1,1,0.50000,1.20000,0.25000*
1,1,0.50000,1.20000,-0.25000*
1,1,0.50000,-1.20000,-0.25000*
1,1,0.50000,-1.20000,0.25000*
%
%ADD40ROUNDEDRECTD40*%
%ADD41R,1.20000X1.20000*%
%ADD42R,11.12520X10.51560*%
%ADD43R,2.97180X0.78740*%
%ADD44R,1.50000X0.90000*%
%TA.AperFunction,Conductor*%
%ADD45C,1.00000*%
%ADD46C,0.30000*%
%ADD47C,0.60000*%
%ADD48C,0.20000*%
%ADD49C,0.15000*%
%ADD50C,2.00000*%
%ADD51C,0.80000*%
%TA.AperFunction,ComponentPad*%
%ADD52C,1.40000*%
%ADD53R,1.40000X1.40000*%
%TA.AperFunction,WasherPad*%
%ADD54C,1.20000*%
%TA.AperFunction,ComponentPad*%
%ADD55C,2.50000*%
%ADD56C,1.50000*%
%ADD57R,1.50000X1.50000*%
%ADD58C,3.30000*%
%ADD59C,1.80000*%
%ADD60R,2.30000X2.30000*%
%TA.AperFunction,ViaPad*%
%ADD61C,0.60000*%
%ADD62C,0.40000*%
%ADD63C,0.50000*%
%ADD64C,1.27000*%
%ADD65C,2.50000*%
G36*
X630199Y4395000D02*
X907499D01*
X907500Y4382300D01*
Y4307700D01*
X907499Y4295001D01*
X894800Y4295000D01*
X630199D01*
Y4245000D01*
X604799D01*
Y4295000D01*
X332700D01*
X327499Y4295001D01*
X320000Y4304594D01*
Y4385406D01*
X327500Y4395000D01*
X604799D01*
Y4445000D01*
X630199D01*
Y4395000D01*
D02*
G37*
G36*
X4662500Y3500000D02*
X4632891D01*
X4631339Y3507804D01*
X4626919Y3514419D01*
X4620303Y3518840D01*
X4612500Y3520392D01*
X4487499D01*
X4479696Y3518840D01*
X4473080Y3514419D01*
X4473079Y3514419D01*
X4406437Y3447776D01*
X4393737Y3453037D01*
Y3460002D01*
X4388981Y3471483D01*
X4377501Y3476238D01*
X4355201D01*
Y3445002D01*
X4342501D01*
Y3432302D01*
X4291201D01*
X4290782Y3429527D01*
X4281499Y3420392D01*
X4262500D01*
X4254696Y3418840D01*
X4248080Y3414419D01*
X4243660Y3407804D01*
X4242108Y3400000D01*
X4199794D01*
X4187500Y3409623D01*
Y3575406D01*
X4195001Y3584999D01*
X4200200Y3584999D01*
X4229801D01*
Y3634999D01*
Y3684999D01*
X4200200D01*
X4195001Y3684999D01*
X4187500Y3694592D01*
Y3700000D01*
X4232057Y3744557D01*
X4237500Y3749999D01*
X4248128Y3755001D01*
X4424802D01*
Y3845001D01*
Y3935001D01*
X4250200D01*
X4237502Y3935001D01*
X4237500Y3947700D01*
Y3975000D01*
X4662500D01*
Y3500000D01*
D02*
G37*
G36*
X4052501Y3925000D02*
Y3887699D01*
X4082501D01*
X4112501D01*
Y3925000D01*
X4212500D01*
Y3753838D01*
X4173081Y3714419D01*
X4168660Y3707803D01*
X4168252Y3705752D01*
X4162500Y3700000D01*
Y3400980D01*
X4082501D01*
X4081024Y3400687D01*
X4047501D01*
X4044050Y3400000D01*
X4012500D01*
X4012500Y3650000D01*
X4012500D01*
X3937500Y3725000D01*
Y3925000D01*
X4052501D01*
D02*
G37*
G36*
X4612500Y3175000D02*
X4737500Y3175000D01*
Y3025000D01*
X4462500D01*
Y3300000D01*
X4395601D01*
X4391157Y3302969D01*
X4377501Y3305686D01*
X4363978D01*
X4362501Y3305979D01*
X4342501D01*
X4341023Y3305686D01*
X4307501D01*
X4293845Y3302969D01*
X4289401Y3300000D01*
X4262499D01*
X4262500Y3400000D01*
X4289404D01*
X4293845Y3397033D01*
X4307501Y3394316D01*
X4377501D01*
X4391157Y3397033D01*
X4402734Y3404768D01*
X4410470Y3416346D01*
X4412115Y3424616D01*
X4487499Y3500000D01*
X4612500D01*
Y3175000D01*
D02*
G37*
%LPC*%
G36*
X852698Y4369081D02*
Y4360200D01*
X861579D01*
X858022Y4365523D01*
X852698Y4369081D01*
D02*
G37*
G36*
X827298D02*
X821974Y4365523D01*
X818417Y4360200D01*
X827298D01*
Y4369081D01*
D02*
G37*
G36*
X773115D02*
Y4360200D01*
X781996D01*
X778439Y4365523D01*
X773115Y4369081D01*
D02*
G37*
G36*
X747715D02*
X742391Y4365523D01*
X738834Y4360200D01*
X747715D01*
Y4369081D01*
D02*
G37*
G36*
X693532D02*
Y4360200D01*
X702413D01*
X698856Y4365523D01*
X693532Y4369081D01*
D02*
G37*
G36*
X668132D02*
X662808Y4365523D01*
X659251Y4360200D01*
X668132D01*
Y4369081D01*
D02*
G37*
G36*
X613948D02*
Y4360200D01*
X622830D01*
X619272Y4365523D01*
X613948Y4369081D01*
D02*
G37*
G36*
X588548D02*
X583225Y4365523D01*
X579667Y4360200D01*
X588548D01*
Y4369081D01*
D02*
G37*
G36*
X534365D02*
Y4360200D01*
X543246D01*
X539689Y4365523D01*
X534365Y4369081D01*
D02*
G37*
G36*
X508965D02*
X503641Y4365523D01*
X500084Y4360200D01*
X508965D01*
Y4369081D01*
D02*
G37*
G36*
X454782D02*
Y4360200D01*
X463663D01*
X460106Y4365523D01*
X454782Y4369081D01*
D02*
G37*
G36*
X429382D02*
X424058Y4365523D01*
X420501Y4360200D01*
X429382D01*
Y4369081D01*
D02*
G37*
G36*
X375199D02*
Y4360200D01*
X384080D01*
X380522Y4365523D01*
X375199Y4369081D01*
D02*
G37*
G36*
X349799D02*
X344475Y4365523D01*
X340918Y4360200D01*
X349799D01*
Y4369081D01*
D02*
G37*
G36*
X861579Y4334800D02*
X852698D01*
Y4325918D01*
X858022Y4329476D01*
X861579Y4334800D01*
D02*
G37*
G36*
X827298D02*
X818417D01*
X821974Y4329476D01*
X827298Y4325918D01*
Y4334800D01*
D02*
G37*
G36*
X781996D02*
X773115D01*
Y4325918D01*
X778439Y4329476D01*
X781996Y4334800D01*
D02*
G37*
G36*
X747715D02*
X738834D01*
X742391Y4329476D01*
X747715Y4325918D01*
Y4334800D01*
D02*
G37*
G36*
X702413D02*
X693532D01*
Y4325918D01*
X698856Y4329476D01*
X702413Y4334800D01*
D02*
G37*
G36*
X668132D02*
X659251D01*
X662808Y4329476D01*
X668132Y4325918D01*
Y4334800D01*
D02*
G37*
G36*
X622830D02*
X613948D01*
Y4325918D01*
X619272Y4329476D01*
X622830Y4334800D01*
D02*
G37*
G36*
X588548D02*
X579667D01*
X583225Y4329476D01*
X588548Y4325918D01*
Y4334800D01*
D02*
G37*
G36*
X543246D02*
X534365D01*
Y4325918D01*
X539689Y4329476D01*
X543246Y4334800D01*
D02*
G37*
G36*
X508965D02*
X500084D01*
X503641Y4329476D01*
X508965Y4325918D01*
Y4334800D01*
D02*
G37*
G36*
X463663D02*
X454782D01*
Y4325918D01*
X460106Y4329476D01*
X463663Y4334800D01*
D02*
G37*
G36*
X429382D02*
X420501D01*
X424058Y4329476D01*
X429382Y4325918D01*
Y4334800D01*
D02*
G37*
G36*
X384080D02*
X375199D01*
Y4325918D01*
X380522Y4329476D01*
X384080Y4334800D01*
D02*
G37*
G36*
X349799D02*
X340918D01*
X344475Y4329476D01*
X349799Y4325918D01*
Y4334800D01*
D02*
G37*
G36*
X4450202Y3935001D02*
Y3857701D01*
X4637502D01*
Y3935001D01*
X4450202D01*
D02*
G37*
G36*
X4637502Y3832301D02*
X4450202D01*
Y3755001D01*
X4637502D01*
Y3832301D01*
D02*
G37*
G36*
X4255201Y3684999D02*
Y3647699D01*
X4290001D01*
Y3684999D01*
X4255201D01*
D02*
G37*
G36*
X4607499Y3659998D02*
X4560199D01*
Y3612698D01*
X4607499D01*
Y3659998D01*
D02*
G37*
G36*
X4534799D02*
X4487499D01*
Y3612698D01*
X4534799D01*
Y3659998D01*
D02*
G37*
G36*
X4290001Y3622299D02*
X4255201D01*
Y3584999D01*
X4290001D01*
Y3622299D01*
D02*
G37*
G36*
X4607499Y3587298D02*
X4560199D01*
Y3539998D01*
X4607499D01*
Y3587298D01*
D02*
G37*
G36*
X4534799D02*
X4487499D01*
Y3539998D01*
X4534799D01*
Y3587298D01*
D02*
G37*
G36*
X4329801Y3476238D02*
X4307501D01*
X4296020Y3471483D01*
X4291265Y3460002D01*
Y3457702D01*
X4329801D01*
Y3476238D01*
D02*
G37*
G36*
X4112501Y3862299D02*
X4095201D01*
Y3809999D01*
X4112501D01*
Y3862299D01*
D02*
G37*
G36*
X4069801D02*
X4052501D01*
Y3809999D01*
X4069801D01*
Y3862299D01*
D02*
G37*
G36*
X4130001Y3684999D02*
X4095201D01*
Y3647699D01*
X4130001D01*
Y3684999D01*
D02*
G37*
G36*
X4069801D02*
X4035001D01*
Y3647699D01*
X4069801D01*
Y3684999D01*
D02*
G37*
G36*
X4130001Y3622299D02*
X4095201D01*
Y3584999D01*
X4130001D01*
Y3622299D01*
D02*
G37*
G36*
X4069801D02*
X4035001D01*
Y3584999D01*
X4069801D01*
Y3622299D01*
D02*
G37*
G36*
X4117501Y3476238D02*
X4095201D01*
Y3457702D01*
X4133737D01*
Y3460002D01*
X4128982Y3471483D01*
X4117501Y3476238D01*
D02*
G37*
G36*
X4069801D02*
X4047501D01*
X4036021Y3471483D01*
X4031265Y3460002D01*
Y3457702D01*
X4069801D01*
Y3476238D01*
D02*
G37*
G36*
X4133737Y3432302D02*
X4095201D01*
Y3413766D01*
X4117501D01*
X4128982Y3418521D01*
X4133737Y3430002D01*
Y3432302D01*
D02*
G37*
G36*
X4069801D02*
X4031265D01*
Y3430002D01*
X4036021Y3418521D01*
X4047501Y3413766D01*
X4069801D01*
Y3432302D01*
D02*
G37*
G36*
X4595002Y3440001D02*
X4550202D01*
Y3362701D01*
X4595002D01*
Y3440001D01*
D02*
G37*
G36*
X4377501Y3381237D02*
X4355201D01*
Y3362701D01*
X4393737D01*
Y3365001D01*
X4388981Y3376481D01*
X4377501Y3381237D01*
D02*
G37*
G36*
X4329801D02*
X4307501D01*
X4296020Y3376481D01*
X4291265Y3365001D01*
Y3362701D01*
X4329801D01*
Y3381237D01*
D02*
G37*
G36*
X4524802Y3440001D02*
X4480002D01*
Y3362701D01*
X4524802D01*
Y3440001D01*
D02*
G37*
G36*
X4393737Y3337301D02*
X4355201D01*
Y3318765D01*
X4377501D01*
X4388981Y3323520D01*
X4393737Y3335001D01*
Y3337301D01*
D02*
G37*
G36*
X4329801D02*
X4291265D01*
Y3335001D01*
X4296020Y3323520D01*
X4307501Y3318765D01*
X4329801D01*
Y3337301D01*
D02*
G37*
G36*
X4595002D02*
X4550202D01*
Y3260001D01*
X4595002D01*
Y3337301D01*
D02*
G37*
G36*
X4524802D02*
X4480002D01*
Y3260001D01*
X4524802D01*
Y3337301D01*
D02*
G37*
G36*
X4590000Y3149999D02*
X4555200D01*
Y3112699D01*
X4590000D01*
Y3149999D01*
D02*
G37*
G36*
X4529800D02*
X4495000D01*
Y3112699D01*
X4529800D01*
Y3149999D01*
D02*
G37*
G36*
X4590000Y3087299D02*
X4555200D01*
Y3049999D01*
X4590000D01*
Y3087299D01*
D02*
G37*
G36*
X4529800D02*
X4495000D01*
Y3049999D01*
X4529800D01*
Y3087299D01*
D02*
G37*
%LPD*%
D10*
X3292099Y9625000D02*
D03*
X3492099D02*
D03*
X3392099D02*
D03*
X2827503D02*
D03*
X2727503D02*
D03*
X2627498D02*
D03*
X2527498D02*
D03*
X2427498D02*
D03*
X2327499D02*
D03*
D11*
X3622101Y9877501D02*
D03*
X3162102D02*
D03*
X2957500D02*
D03*
X2197501D02*
D03*
D12*
X1587500Y9700001D02*
D03*
Y9540001D02*
D03*
X3972499Y6580002D02*
D03*
Y6420002D02*
D03*
X2982498Y7697500D02*
D03*
Y7537501D02*
D03*
X3442828Y3952900D02*
D03*
Y4112900D02*
D03*
X3097530Y4003299D02*
D03*
Y3843299D02*
D03*
X3270331Y3685398D02*
D03*
Y3845403D02*
D03*
X3922502Y3270001D02*
D03*
Y3430001D02*
D03*
X4827504Y9337502D02*
D03*
Y9497502D02*
D03*
X5240000Y7529998D02*
D03*
Y7689997D02*
D03*
X3625108Y5732201D02*
D03*
X3620110Y6227201D02*
D03*
X3480110Y6352200D02*
D03*
X3782609Y5759699D02*
D03*
X3785108Y6249700D02*
D03*
X1912498Y6225002D02*
D03*
Y6065002D02*
D03*
X1374999Y6525001D02*
D03*
Y6365001D02*
D03*
X1202497Y3275005D02*
D03*
Y3435005D02*
D03*
X3850000Y8459998D02*
D03*
X3295112Y6972198D02*
D03*
X3135112D02*
D03*
X2747503Y6097499D02*
D03*
Y6257503D02*
D03*
X2919999Y6452499D02*
D03*
Y6612499D02*
D03*
X3625108Y5892201D02*
D03*
X3782609Y5919699D02*
D03*
X3785108Y6089701D02*
D03*
X3620110Y6067201D02*
D03*
X3480110Y6512199D02*
D03*
X3295112Y6812199D02*
D03*
X3135112D02*
D03*
X4480001Y7979999D02*
D03*
Y8139999D02*
D03*
X4635002Y7979999D02*
D03*
Y8139999D02*
D03*
X4287500Y9257502D02*
D03*
Y9097498D02*
D03*
X3850000Y8299999D02*
D03*
X4457502Y9257502D02*
D03*
Y9097498D02*
D03*
X3415030Y4668799D02*
D03*
Y4828799D02*
D03*
X3275330Y4668799D02*
D03*
Y4828799D02*
D03*
X3122930Y4676399D02*
D03*
Y4516399D02*
D03*
Y4224299D02*
D03*
Y4384299D02*
D03*
X3275330Y4224299D02*
D03*
Y4384299D02*
D03*
D13*
X1005002Y9392498D02*
D03*
X845002D02*
D03*
X3777498Y6580002D02*
D03*
X3617498D02*
D03*
X3965001Y8020004D02*
D03*
X3805001D02*
D03*
X3418830Y4520199D02*
D03*
X3258830D02*
D03*
X4242501Y3634999D02*
D03*
X4082501D02*
D03*
X4212499Y3099999D02*
D03*
X4052499D02*
D03*
X4542500D02*
D03*
X4382501D02*
D03*
X5477500Y6865000D02*
D03*
X5637500D02*
D03*
X3379998Y9319997D02*
D03*
X3210001D02*
D03*
X3550112Y5542199D02*
D03*
X5245313Y4817400D02*
D03*
X1520002Y6370000D02*
D03*
X1680002D02*
D03*
X1382502Y5887898D02*
D03*
X1542501D02*
D03*
X1865000D02*
D03*
X1705000D02*
D03*
X3050002Y9319997D02*
D03*
X3539998D02*
D03*
X3132496Y7902504D02*
D03*
X2747503Y5962498D02*
D03*
X2587498D02*
D03*
X5240000Y7840000D02*
D03*
X5399999D02*
D03*
X5405313Y4817400D02*
D03*
X3297611Y6409700D02*
D03*
X3137611D02*
D03*
X3390108Y5542199D02*
D03*
X2972496Y7902504D02*
D03*
D14*
X531251Y9194998D02*
D03*
Y9094998D02*
D03*
Y8545002D02*
D03*
Y8245003D02*
D03*
Y8445002D02*
D03*
Y8345002D02*
D03*
D15*
X278750Y8965001D02*
D03*
Y9325000D02*
D03*
Y8674999D02*
D03*
Y8115000D02*
D03*
D16*
X752500Y7412502D02*
D03*
Y7712502D02*
D03*
X3987500Y8927501D02*
D03*
Y9227500D02*
D03*
D17*
X2092498Y3070001D02*
D03*
X1472499D02*
D03*
X2924932Y5040899D02*
D03*
X2304928D02*
D03*
X3119999Y3070001D02*
D03*
X2500000D02*
D03*
D18*
X4437502Y3845001D02*
D03*
Y4154998D02*
D03*
D19*
X4837501Y3350001D02*
D03*
X4537502D02*
D03*
D20*
X4342501Y3255000D02*
D03*
Y3350001D02*
D03*
Y3445002D02*
D03*
X4082501Y3255000D02*
D03*
Y3350001D02*
D03*
Y3445002D02*
D03*
X1642501Y6042899D02*
D03*
Y6137900D02*
D03*
Y6232901D02*
D03*
X1382502Y6042899D02*
D03*
Y6137900D02*
D03*
Y6232901D02*
D03*
D21*
X4827499Y3800003D02*
D03*
Y4000002D02*
D03*
D22*
X5699999Y2926202D02*
D03*
Y2306198D02*
D03*
Y1834002D02*
D03*
Y1213998D02*
D03*
D23*
X4829998Y8957498D02*
D03*
X5110002D02*
D03*
X4829998Y8457499D02*
D03*
X5110002D02*
D03*
D24*
X3465220Y5863499D02*
D03*
X2975000Y5965099D02*
D03*
X3465220Y6066699D02*
D03*
Y6015899D02*
D03*
X2975000Y6117499D02*
D03*
Y6066699D02*
D03*
Y6015899D02*
D03*
Y5914299D02*
D03*
Y5863499D02*
D03*
Y5812699D02*
D03*
Y5761899D02*
D03*
X3465220D02*
D03*
Y5812699D02*
D03*
Y5914299D02*
D03*
Y5965099D02*
D03*
Y6117499D02*
D03*
D25*
X3397910Y6184809D02*
D03*
X3347110D02*
D03*
X3296310D02*
D03*
X3245510D02*
D03*
X3194710D02*
D03*
X3143910D02*
D03*
X3093110D02*
D03*
X3042310D02*
D03*
Y5694589D02*
D03*
X3093110D02*
D03*
X3143910D02*
D03*
X3194710D02*
D03*
X3245510D02*
D03*
X3296310D02*
D03*
X3347110D02*
D03*
X3397910D02*
D03*
D26*
X3537610Y6752199D02*
D03*
X3137611Y6582202D02*
D03*
X3337611D02*
D03*
X3737610Y6752199D02*
D03*
D27*
X3535111Y6969699D02*
D03*
X3400110D02*
D03*
D28*
X397500Y4685000D02*
D03*
Y3205002D02*
D03*
D29*
X617499Y4445000D02*
D03*
Y4245000D02*
D03*
Y4045001D02*
D03*
Y3845001D02*
D03*
Y3445002D02*
D03*
Y3645002D02*
D03*
D30*
X1387500Y5637901D02*
D03*
X1727500D02*
D03*
X4562500Y9505000D02*
D03*
X4222501D02*
D03*
D31*
X1745000Y6570000D02*
D03*
X1554998Y6505001D02*
D03*
Y6634998D02*
D03*
D32*
X375001Y6245001D02*
D03*
X1174999D02*
D03*
D33*
X4260002Y8472500D02*
D03*
X4460001D02*
D03*
X4509999Y8942502D02*
D03*
X4260002D02*
D03*
X4309999Y8472500D02*
D03*
X4460001Y8942502D02*
D03*
X4409999Y8472500D02*
D03*
X4560001Y8942502D02*
D03*
Y8472500D02*
D03*
X4409999Y8942502D02*
D03*
X4360001D02*
D03*
X4309999D02*
D03*
X4360001Y8472500D02*
D03*
X4509999D02*
D03*
D34*
X2752496Y7540000D02*
D03*
X2212497Y7899999D02*
D03*
Y7540000D02*
D03*
D35*
X4082501Y4125001D02*
D03*
Y3874999D02*
D03*
D36*
X2752496Y7899999D02*
D03*
D37*
X3220110Y5939699D02*
D03*
D38*
X4174998Y8707501D02*
D03*
Y8657499D02*
D03*
Y8807501D02*
D03*
Y8757498D02*
D03*
Y8557499D02*
D03*
X4645000Y8657499D02*
D03*
Y8757498D02*
D03*
X4174998Y8857498D02*
D03*
Y8607501D02*
D03*
X4645000Y8557499D02*
D03*
Y8607501D02*
D03*
Y8707501D02*
D03*
Y8807501D02*
D03*
Y8857498D02*
D03*
D39*
X4409999Y8707501D02*
D03*
D40*
X4232499Y8137500D02*
D03*
Y7797500D02*
D03*
D41*
X4827499Y3599998D02*
D03*
X4547499D02*
D03*
D42*
X2038350Y4253499D02*
D03*
D43*
X2857500Y4634499D02*
D03*
Y4507499D02*
D03*
Y4380499D02*
D03*
Y4253499D02*
D03*
Y4126499D02*
D03*
Y3999499D02*
D03*
Y3872499D02*
D03*
D44*
X1007501Y9555002D02*
D03*
Y9700001D02*
D03*
X1317498Y9554997D02*
D03*
Y9700001D02*
D03*
D45*
X3614999Y8745002D02*
Y9057498D01*
Y8677499D02*
Y8745002D01*
Y8610001D02*
Y8677499D01*
X3052501Y9152499D02*
Y9320002D01*
X2602499Y9060002D02*
X2697500D01*
X4650349Y4404650D02*
X4827499Y4227500D01*
X3745001Y5310002D02*
X4650349Y4404650D01*
X1492499Y8282498D02*
Y8397499D01*
Y7780000D02*
Y8282498D01*
X1760002Y6862501D02*
X2252502D01*
X1692499D02*
X1760002D01*
X1589999D02*
X1692499D01*
X419999Y5240000D02*
X2435250D01*
X4420575Y9409999D02*
X4562500D01*
X4232499Y8137500D02*
X4632503D01*
X4231249Y7966248D02*
Y8137500D01*
X3055000Y3872499D02*
X3155330Y3772169D01*
X3315000Y3445002D02*
X3800003Y2959999D01*
X617499Y3445002D02*
X1717497D01*
X4045168Y9435165D02*
X4222501D01*
X3337611Y6582202D02*
Y6769699D01*
X2919999Y6612499D02*
X3119699Y6812199D01*
X2919999Y6612499D02*
X2998754Y6691254D01*
X712500Y7405004D02*
Y7420000D01*
X2199930Y4700001D02*
Y4935901D01*
X1727500Y5542900D02*
X1869999Y5400401D01*
X1722694Y5399999D02*
X1869999D01*
X2199930Y4415079D02*
Y4700001D01*
Y4415079D02*
Y4935901D01*
X2038350Y4253499D02*
X2199930Y4415079D01*
X2038350Y4253499D02*
X2857500D01*
X1584599Y5399999D02*
X1727500Y5542900D01*
X1490000Y7780000D02*
X1492499D01*
X2850002Y7700000D02*
X2852501Y7697500D01*
X2599995Y9057498D02*
X2602499Y9060002D01*
X2504999Y9057498D02*
X2599995D01*
X2212497Y7899999D02*
Y7910002D01*
X2242500Y7939999D01*
X2377496D01*
X2387498Y7950002D01*
X1490000Y8399998D02*
X1492499Y8397499D01*
X2700000Y9057498D02*
X3147502D01*
X4495002Y3023078D02*
Y3052501D01*
X2610002Y3445002D02*
X3315000D01*
X3800003Y2959999D02*
X4431924D01*
X1717497Y3445002D02*
X2019996Y3142503D01*
X3805001Y8255000D02*
X3850000Y8299999D01*
X4549999Y7797500D02*
X4552696D01*
X3805001Y8020004D02*
Y8255000D01*
X2117501Y8780003D02*
X2157486Y8819987D01*
X2117501Y8777498D02*
Y8780003D01*
X2397501Y9057498D02*
X2504999D01*
X2161256Y8821252D02*
X2257501Y8917498D01*
X2397501Y9057498D01*
X1490000Y7127499D02*
Y7780000D01*
X2620000Y5310002D02*
X3070001D01*
X4827499Y4000002D02*
Y4034851D01*
X3614999Y8652500D02*
X3619998Y8647501D01*
X3070001Y5310002D02*
X3745001D01*
X4827499Y4034851D02*
Y4227500D01*
X3614999Y8459998D02*
Y8610001D01*
X3874999Y6580002D02*
X3972499D01*
X3777498D02*
X3874999D01*
X3048752Y6741251D02*
X3119699Y6812199D01*
X2252502Y6242502D02*
Y6310000D01*
Y6174999D02*
Y6242502D01*
Y5677499D02*
Y6174999D01*
Y5677499D02*
X2620000Y5310002D01*
X2587498Y5962498D02*
X2591481Y5958515D01*
Y5730296D02*
Y5958515D01*
X2480000Y5959998D02*
X2482499Y5962498D01*
X2587498D01*
X3400110Y6899890D02*
Y6969699D01*
Y6899890D02*
X3430001Y6869999D01*
X3295112Y6812199D02*
X3337611Y6769699D01*
X1869999Y5399999D02*
Y5400401D01*
X1580002Y5399999D02*
X1584599D01*
X1722694D02*
X1727500Y5404805D01*
X1720002Y5397307D02*
X1722694Y5399999D01*
X1584599D02*
X1722694D01*
X1727500Y5404805D02*
Y5542900D01*
X2435250Y5240000D02*
X2634351Y5040899D01*
X340401Y5637901D02*
X1387500D01*
X215001Y3645002D02*
X617499D01*
X142499Y3717498D02*
Y5439999D01*
X412501Y7105000D02*
Y7105005D01*
X712500Y7405004D01*
X1490000Y7060001D02*
Y7127499D01*
Y6992498D02*
Y7060001D01*
Y6962501D02*
Y6992498D01*
X2852501Y7697500D02*
X2982498D01*
X2634351Y5040899D02*
X2924932D01*
X2747503Y5634995D02*
X3070001Y5312501D01*
X3739810Y6749999D02*
X3740109Y6749699D01*
X3737610Y6752199D02*
X3739810Y6749999D01*
X3880002D01*
X3740109Y6617391D02*
Y6749699D01*
Y6617391D02*
X3777498Y6580002D01*
X3420110Y6572199D02*
X3480110Y6512199D01*
X3340110Y6572199D02*
X3420110D01*
X3337611Y6574699D02*
X3340110Y6572199D01*
X3337611Y6574699D02*
Y6582202D01*
X3297611Y6409700D02*
X3335111Y6447201D01*
Y6579702D01*
X3337611Y6582202D01*
X3119699Y6812199D02*
X3135112D01*
X3295112D01*
X4222501Y9435165D02*
Y9505000D01*
X4040002Y9429999D02*
X4045168Y9435165D01*
X3987500Y9227500D02*
X4020002D01*
X4027500Y9234998D01*
Y9410192D01*
X4040002Y9422694D01*
Y9429999D01*
X4837501Y3350001D02*
X4989998D01*
X1727500Y5542900D02*
Y5637901D01*
X3115000Y3065003D02*
X3119999Y3070001D01*
X2905003Y3065003D02*
X3115000D01*
X2899999Y3059999D02*
X2905003Y3065003D01*
X1467500D02*
X1472499Y3070001D01*
X1245001Y3065003D02*
X1467500D01*
X1240003Y3059999D02*
X1245001Y3065003D01*
X1202497Y3275005D02*
X1234836Y3242666D01*
Y3065165D02*
Y3242666D01*
Y3065165D02*
X1240003Y3059999D01*
X4837501Y3350001D02*
Y3589995D01*
X4827499Y3599998D02*
X4837501Y3589995D01*
X4827499Y3599998D02*
Y3800003D01*
X3331428Y4224299D02*
X3361802D01*
X3275330D02*
X3331428D01*
X3418830Y4281327D02*
Y4520199D01*
X3361802Y4224299D02*
X3418830Y4281327D01*
X3331428Y4224299D02*
X3442828Y4112900D01*
X3805001Y7867498D02*
Y8020004D01*
Y7867498D02*
X3874999Y7797500D01*
X4232499D01*
X4635002Y7879806D02*
Y7979999D01*
X4552696Y7797500D02*
X4635002Y7879806D01*
X4549836Y7797668D02*
X4549999Y7797500D01*
X4480001Y7979999D02*
X4549836Y7910165D01*
Y7797668D02*
Y7910165D01*
X4232499Y7797500D02*
X4549999D01*
X4555002Y7792502D01*
X5110002Y8957498D02*
X5115006Y8962502D01*
X5267498D01*
X5110002Y8457499D02*
X5282499D01*
X2252502Y6310000D02*
Y6862501D01*
X1490000Y6962501D02*
X1589999Y6862501D01*
X2327499Y9235003D02*
X2504999Y9057498D01*
X3614999D02*
Y9265001D01*
X3052501Y9152499D02*
X3147502Y9057498D01*
X3614999D01*
X3559998Y9320002D02*
X3614999Y9265001D01*
Y8459998D02*
X3850000D01*
X3245002Y8090002D02*
X3614999Y8459998D01*
X3245002Y7789997D02*
Y8090002D01*
X2982498Y7537501D02*
X3186420D01*
X3132496Y7902504D02*
X3245002Y7789997D01*
Y7596078D02*
Y7789997D01*
X3186420Y7537501D02*
X3245002Y7596078D01*
X2754996Y7537501D02*
X2982498D01*
X2752496Y7540000D02*
X2754996Y7537501D01*
X3297611Y6969699D02*
X3400110D01*
X3295112Y6972198D02*
X3297611Y6969699D01*
X3135112Y6972198D02*
X3295112D01*
X3007309Y7100001D02*
X3135112Y6972198D01*
X2807498Y7100001D02*
X3007309D01*
X2807498D02*
X2982498Y7274997D01*
Y7537501D01*
X2490003Y7100001D02*
X2807498D01*
X2252502Y6862501D02*
X2490003Y7100001D01*
X2747503Y5962498D02*
Y6097499D01*
Y5634995D02*
Y5962498D01*
X412501Y7504999D02*
X653923D01*
X712500Y7446421D01*
Y7420000D02*
Y7446421D01*
Y7420000D02*
X719999Y7412502D01*
X752500D01*
X1387500Y5637901D02*
Y5882899D01*
X1382502Y5887898D02*
X1387500Y5882899D01*
X2857500Y4253499D02*
X3093730D01*
X2199930Y4935901D02*
X2304928Y5040899D01*
X3271530Y4380499D02*
X3275330Y4384299D01*
X3181507Y4817501D02*
X3264032D01*
X3122930Y4676399D02*
Y4758924D01*
X3181507Y4817501D01*
X3264032D02*
X3275330Y4828799D01*
X2857500Y4634499D02*
X2868132Y4645132D01*
X3091663D01*
X3122930Y4676399D01*
X3275330Y4828799D02*
X3415030D01*
X3093730Y4253499D02*
X3122930Y4224299D01*
X3275330D01*
X2857500Y3872499D02*
X3055000D01*
X3193410Y3732901D02*
X3194599D01*
X3155330Y3770981D02*
X3193410Y3732901D01*
X3155330Y3770981D02*
Y3772169D01*
X3194599Y3732901D02*
X3242102Y3685398D01*
X3270331D01*
X4287500Y9276923D02*
X4420575Y9409999D01*
X4287500Y9257502D02*
Y9276923D01*
X4632503Y8137500D02*
X4635002Y8139999D01*
X4231249Y8137500D02*
X4232499D01*
X4229999Y7964998D02*
X4231249Y7966248D01*
X4562500Y9505000D02*
Y9762500D01*
X4567499Y9767499D01*
X142499Y5439999D02*
X340401Y5637901D01*
X142499Y3717498D02*
X215001Y3645002D01*
X2857500Y4634499D02*
Y4965969D01*
X2924932Y5033401D01*
Y5040899D01*
X4495002Y3052501D02*
X4542500Y3099999D01*
X4431924Y2959999D02*
X4495002Y3023078D01*
X2857500Y3692500D02*
Y3872499D01*
X2610002Y3445002D02*
X2857500Y3692500D01*
X1717497Y3445002D02*
X2610002D01*
X617499D02*
Y3645002D01*
X2092498Y3070001D02*
Y3077500D01*
X2027499Y3142503D02*
X2092498Y3077500D01*
X2019996Y3142503D02*
X2027499D01*
X414000Y2516002D02*
X2443500D01*
X2664998Y2737500D02*
Y2938922D01*
X2443500Y2516002D02*
X2664998Y2737500D01*
X2500000Y3062503D02*
Y3070001D01*
Y3062503D02*
X2564999Y2997500D01*
X2606421D01*
X2664998Y2938922D01*
X2092498Y3070001D02*
X2500000D01*
D46*
X4460001Y8757503D02*
Y8942502D01*
X4409999Y8472500D02*
Y8707501D01*
X4174998Y8807501D02*
X4309999D01*
X3359658Y5800156D02*
X3419897Y5739912D01*
X3220110Y5939699D02*
X3359658Y5800156D01*
X379999Y6250000D02*
X390002Y6239998D01*
X999998D01*
X375001Y6245001D02*
X379999Y6250000D01*
X3614999Y9265001D02*
X4237497Y9887499D01*
X4562500Y8975004D02*
X4787499Y9200002D01*
X5512501D01*
X4344995Y8772505D02*
X4409999Y8707501D01*
X4309999Y8807501D02*
X4344995Y8772505D01*
X4409999Y8707501D02*
X4460001Y8757503D01*
X5257495Y7512502D02*
X5685003D01*
X5240000Y7529998D02*
X5257495Y7512502D01*
X5524998Y7712502D02*
X5685003D01*
X5399999Y7837500D02*
X5524998Y7712502D01*
X5399999Y7837500D02*
Y7840000D01*
X5180909Y6865000D02*
X5477500D01*
X5005309Y6689400D02*
X5180909Y6865000D01*
X3390108Y5542199D02*
X3397910Y5550002D01*
Y5694589D01*
X3419897Y5739912D02*
X3441883Y5761899D01*
X3397910Y5717931D02*
X3419897Y5739912D01*
X3397910Y5694589D02*
Y5717931D01*
X3441883Y5761899D02*
X3465220D01*
X4237497Y9887499D02*
X4629998D01*
X4827504Y9497502D02*
Y9689998D01*
X4629998Y9887499D02*
X4827504Y9689998D01*
X3987500Y8927501D02*
X4104996D01*
X4142496Y8890000D01*
Y8859998D02*
Y8890000D01*
Y8859998D02*
X4144996Y8857498D01*
X4174998D01*
X5512501Y9200002D02*
X5627502Y9085001D01*
X5512501Y8219999D02*
X5627502Y8335000D01*
X4782500Y8219999D02*
X5512501D01*
X4560001Y8442498D02*
Y8472500D01*
Y8442498D02*
X4782500Y8219999D01*
X4645000Y8557499D02*
X4647499D01*
X4649998Y8554999D01*
Y8477499D02*
Y8554999D01*
X4645000Y8857498D02*
Y8932499D01*
X3862502Y8472500D02*
X3865001D01*
X3850000Y8459998D02*
X3862502Y8472500D01*
X1909999Y6225002D02*
X1912498D01*
X1844995Y6159998D02*
X1909999Y6225002D01*
X1805000Y6159998D02*
X1844995D01*
X1757502Y6232901D02*
Y6432428D01*
X1662501Y6137900D02*
X1757502Y6232901D01*
X1642501Y6042899D02*
X1887896D01*
X1909999Y6065002D01*
X1865000Y6020003D02*
X1887896Y6042899D01*
X1865000Y5887898D02*
Y6020003D01*
X1909999Y6065002D02*
X1912498D01*
X1379997Y6370000D02*
X1520002D01*
X1374999Y6365001D02*
X1379997Y6370000D01*
X1745000Y6444930D02*
Y6570000D01*
Y6444930D02*
X1757502Y6432428D01*
X1642501Y6137900D02*
X1662501D01*
X4562500Y9409999D02*
Y9505000D01*
X4635002Y8139999D02*
X4645000Y8149996D01*
D47*
X1193551Y6226449D02*
X1245001Y6277900D01*
X1174999Y6207902D02*
X1193551Y6226449D01*
X2857500Y4507499D02*
X3246130D01*
X2857500Y4380499D02*
X3271530D01*
X1662501Y6232901D02*
Y6252901D01*
X1245001Y6137900D02*
X1382502D01*
X403753Y8545002D02*
X531251D01*
X403753Y9194998D02*
X531251D01*
X1145002Y9645000D02*
X1162502Y9627499D01*
X1092505Y9645000D02*
X1145002D01*
X1037504Y9700001D02*
X1092505Y9645000D01*
X1007501Y9700001D02*
X1037504D01*
X1287501Y9554997D02*
X1317498D01*
X1232494Y9609999D02*
X1287501Y9554997D01*
X1179998Y9609999D02*
X1232494D01*
X1162502Y9627499D02*
X1179998Y9609999D01*
X2427498Y9625000D02*
Y9752498D01*
X3492099Y9625000D02*
Y9752096D01*
X3492500Y9752498D01*
X1554998Y6505001D02*
X1559997Y6500002D01*
X1649999D01*
X1510000Y6070001D02*
X1520002Y6079998D01*
Y6190000D01*
X1382502Y6232901D02*
X1477101D01*
X1520002Y6190000D01*
X1542501Y5887898D02*
X1705000D01*
X1542501D02*
Y6037499D01*
X1510000Y6070001D02*
X1542501Y6037499D01*
X4209999Y3102498D02*
X4212499Y3099999D01*
X4209999Y3102498D02*
Y3330001D01*
X4082501Y3350001D02*
X4189999D01*
X4209999Y3330001D01*
X4382501Y3099999D02*
Y3235000D01*
X4362501Y3255000D02*
X4382501Y3235000D01*
X4342501Y3255000D02*
X4362501D01*
X4062501D02*
X4082501D01*
X3937503D02*
X4062501D01*
X3922502Y3270001D02*
X3937503Y3255000D01*
X4052499Y3099999D02*
Y3244997D01*
X4062501Y3255000D01*
X3920002Y3430001D02*
X3922502D01*
X3794999Y3555004D02*
X3920002Y3430001D01*
X3794999Y3555004D02*
Y4060002D01*
X3860002Y4125001D02*
X4082501D01*
X3794999Y4060002D02*
X3860002Y4125001D01*
X2327499Y9235003D02*
Y9625000D01*
X748751Y7708753D02*
X752500Y7712502D01*
X416255Y7708753D02*
X748751D01*
X412501Y7704999D02*
X416255Y7708753D01*
X719999Y7712502D02*
X752500D01*
X535000Y7897500D02*
X719999Y7712502D01*
X275001Y7897500D02*
X535000D01*
X130002Y7752502D02*
X275001Y7897500D01*
X130002Y6540002D02*
Y7752502D01*
X375001Y6245001D02*
Y6295004D01*
X130002Y6540002D02*
X375001Y6295004D01*
X1372499Y6525001D02*
X1374999D01*
X1245001Y6397503D02*
X1372499Y6525001D01*
X1245001Y6277900D02*
Y6397503D01*
X1642501Y6232901D02*
X1662501D01*
Y6252901D02*
Y6352499D01*
X1680002Y6370000D01*
X1174999Y6207902D02*
X1245001Y6137900D01*
X2857500Y4126499D02*
X3232353D01*
X3270331Y3845403D02*
Y3860074D01*
X3267502Y3862903D02*
X3270331Y3860074D01*
X3267502Y3862903D02*
Y4091351D01*
X3232353Y4126499D02*
X3267502Y4091351D01*
X3287502Y3862573D02*
X3377829Y3952900D01*
X3442828D01*
X2857500Y3999499D02*
X2861300Y4003299D01*
X3097530D01*
X3258830Y4520199D02*
Y4652300D01*
X3275330Y4668799D01*
X3415030D01*
X3246130Y4507499D02*
X3258830Y4520199D01*
X4547504Y4154998D02*
X4632498Y4069999D01*
X4752350D01*
X4787499Y4017503D02*
Y4034851D01*
X4752350Y4069999D02*
X4787499Y4034851D01*
Y4017503D02*
X4804999Y4000002D01*
X4827499D01*
X4437502Y4154998D02*
X4547504D01*
X4082501Y4125001D02*
X4407505D01*
X4437502Y4154998D01*
D48*
X3379998Y9319997D02*
Y9612899D01*
X4658360Y9936480D02*
X5087620Y9507220D01*
X4213860Y9936480D02*
X4658360D01*
X3675380Y9398000D02*
X4213860Y9936480D01*
X3379998Y9398000D02*
X3675380D01*
X3379998Y9319997D02*
Y9398000D01*
X3210001Y9319997D02*
X3271520D01*
Y9448800D01*
X959998Y8670000D02*
X2607498D01*
X1079998Y8590001D02*
X2607498D01*
X1649999Y8450001D02*
X1800001D01*
X1589999Y8510001D02*
X1649999Y8450001D01*
X835005Y8345002D02*
X1079998Y8590001D01*
X531251Y8345002D02*
X835005D01*
X531251Y8445002D02*
X536255Y8439998D01*
X730001D01*
X959998Y8670000D01*
X531251Y8245003D02*
X536250Y8250001D01*
X959998D01*
X1220003Y8510001D02*
X1589999D01*
X959998Y8250001D02*
X1220003Y8510001D01*
X5125410Y7689997D02*
X5240000D01*
X5115413Y7680000D02*
X5125410Y7689997D01*
X5110002Y7680000D02*
X5115413D01*
X5240000Y7689997D02*
Y7840000D01*
X1545001Y6634998D02*
X1554998D01*
X1460002Y6719997D02*
X1545001Y6634998D01*
X1460002Y6719997D02*
Y6720002D01*
X3210001Y9319997D02*
Y9495404D01*
X3292099Y9577502D01*
Y9625000D01*
X3379998Y9612899D02*
X3392099Y9625000D01*
X5640309Y6562400D02*
Y6862191D01*
X5637500Y6865000D02*
X5640309Y6862191D01*
X5405313Y4817400D02*
Y4819899D01*
X5800197Y5214783D01*
Y5261788D01*
X5830809Y5292400D01*
X3293613Y6187511D02*
X3296310Y6184809D01*
X3293613Y6187511D02*
Y6246388D01*
X3259999Y6279998D02*
X3293613Y6246388D01*
X3480460Y6120201D02*
Y6200049D01*
X3347110Y6184809D02*
X3348553Y6186251D01*
Y6288557D01*
X3962497Y6410000D02*
X3972499Y6420002D01*
X3890000Y6410000D02*
X3962497D01*
X3465220Y6117499D02*
X3477763D01*
X3480460Y6120201D01*
X4360001Y9037142D02*
X4374998Y9052143D01*
Y9177498D01*
X4409999Y8942502D02*
Y9052494D01*
X4455003Y9097498D01*
X4457502D01*
X4374998Y9177498D02*
X4455003Y9257502D01*
X4360001Y8942502D02*
Y9037142D01*
X4455003Y9257502D02*
X4457502D01*
X4309999Y8942502D02*
Y9074998D01*
X4287500Y9097498D02*
X4309999Y9074998D01*
X4260002Y8932499D02*
Y8942502D01*
X4257502Y8930000D02*
X4260002Y8932499D01*
X4200002Y8930000D02*
X4257502D01*
X4012910Y8707501D02*
X4174998D01*
X4005412Y8699998D02*
X4012910Y8707501D01*
X4000002Y8699998D02*
X4005412D01*
X3865001Y8655004D02*
X3967500Y8757498D01*
X4174998D01*
X3865001Y8472500D02*
Y8655004D01*
X2834996Y6257503D02*
X2947116Y6145383D01*
X2747503Y6257503D02*
X2834996D01*
X2949819Y6117499D02*
X2975000D01*
X2947116Y6120201D02*
Y6145383D01*
Y6120201D02*
X2949819Y6117499D01*
X4042501Y6330000D02*
X4209400Y6496898D01*
X4693890D01*
X4705787Y6485001D01*
X3962202Y6249700D02*
X4042501Y6330000D01*
X3785108Y6249700D02*
X3962202D01*
X4562307Y4982500D02*
X4807499D01*
X3652606Y5759699D02*
X3782609D01*
X3511702Y5860801D02*
X3550107Y5822396D01*
X3782609Y5759699D02*
X3785108D01*
X3625108Y5732201D02*
X3652606Y5759699D01*
X3785108D02*
X4562307Y4982500D01*
X3622609Y5732201D02*
X3625108D01*
X4807499Y4982500D02*
Y5617210D01*
X4687809Y5736900D02*
X4807499Y5617210D01*
X2972948Y6017951D02*
X2975000Y6015899D01*
X2882052Y6017951D02*
X2972948D01*
X2879999Y6019998D02*
X2882052Y6017951D01*
X2879999Y6099998D02*
X2913304Y6066699D01*
X2975000D01*
X4370309Y6110000D02*
Y6117900D01*
Y6086150D02*
Y6110000D01*
X3550107Y5804703D02*
Y5822396D01*
X3465220Y5863499D02*
X3467923Y5860801D01*
X3511702D01*
X3550107Y5804703D02*
X3622609Y5732201D01*
X3535111Y6754698D02*
Y6969699D01*
Y6754698D02*
X3537610Y6752199D01*
X3617498Y6580002D02*
Y6660002D01*
X3585301Y6692199D02*
X3617498Y6660002D01*
X3575111Y6692199D02*
X3585301D01*
X3537610Y6729700D02*
X3575111Y6692199D01*
X3537610Y6729700D02*
Y6752199D01*
X3480110Y6352200D02*
X3482609D01*
X3617498Y6487089D01*
Y6580002D01*
X3397910Y6184809D02*
Y6272500D01*
X3477611Y6352200D01*
X3480110D01*
X3617610Y6227201D02*
X3620110D01*
X3530112Y6314699D02*
X3617610Y6227201D01*
X3517610Y6314699D02*
X3530112D01*
X3480110Y6352200D02*
X3517610Y6314699D01*
X3642609Y6249700D02*
X3785108D01*
X3620110Y6227201D02*
X3642609Y6249700D01*
X4705787Y6485001D02*
X4842500Y6348283D01*
Y6197498D02*
Y6348283D01*
X4755002Y6110000D02*
X4842500Y6197498D01*
X4370309Y6117900D02*
X4378208Y6110000D01*
X4755002D01*
X4687809Y5736900D02*
Y5768650D01*
X4370309Y6086150D02*
X4687809Y5768650D01*
X3550112Y5542199D02*
Y5659704D01*
X3622609Y5732201D01*
X4972599Y4817400D02*
X5245313D01*
X4807499Y4982500D02*
X4972599Y4817400D01*
X4645000Y8757498D02*
X5550002D01*
X5627502Y8834999D01*
X4645000Y8657499D02*
X5551505D01*
X5624002Y8585002D01*
X5627502D01*
X4829998Y8457499D02*
Y8512500D01*
X4734997Y8607501D02*
X4829998Y8512500D01*
X4645000Y8607501D02*
X4734997D01*
X4645000Y8807501D02*
X4735002D01*
X4829998Y8902497D01*
Y8957498D01*
X3865001Y8472500D02*
X4260002D01*
X2747503Y5962498D02*
X2750104Y5965099D01*
X2867132D01*
X2975000D01*
D49*
X530001Y9093749D02*
X531251Y9094998D01*
X530001Y9010000D02*
Y9093749D01*
X2627498Y9625000D02*
X2630002Y9622495D01*
Y9489999D02*
Y9622495D01*
X2830002Y9401251D02*
Y9622500D01*
X2600000Y9171249D02*
X2830002Y9401251D01*
X2727503Y9625000D02*
X2730002Y9622500D01*
Y9469999D02*
Y9622500D01*
X2827503Y9625000D02*
X2830002Y9622500D01*
X2527498Y9625000D02*
X2530003Y9622500D01*
Y9489999D02*
Y9622500D01*
X1880001Y8230001D02*
X2080001Y8030002D01*
Y7682499D02*
Y8030002D01*
Y7682499D02*
X2212497Y7550003D01*
Y7540000D02*
Y7550003D01*
Y7540000D02*
X2232497Y7520000D01*
X4825004Y9337502D02*
X4827504D01*
X4549999Y9062496D02*
X4825004Y9337502D01*
X4549999Y9060002D02*
Y9062496D01*
X4509999Y9019997D02*
X4549999Y9060002D01*
X4509999Y8942502D02*
Y9019997D01*
X3990000Y8299999D02*
X4309999D01*
X4360001Y8350001D02*
Y8472500D01*
X4309999Y8299999D02*
X4360001Y8350001D01*
X4309999Y8370001D02*
Y8472500D01*
X4460001Y8359999D02*
Y8472500D01*
X4440001Y8219999D02*
X4509999Y8290001D01*
Y8472500D01*
X3934267Y8607501D02*
X4174998D01*
X3926764Y8599998D02*
X3934267Y8607501D01*
X3920002Y8599998D02*
X3926764D01*
X4072158Y8657839D02*
X4174658D01*
X4071818Y8658179D02*
X4072158Y8657839D01*
X4174658D02*
X4174998Y8657499D01*
X4102603Y8557499D02*
X4174998D01*
X4075105Y8530001D02*
X4102603Y8557499D01*
X4069999Y8530001D02*
X4075105D01*
X1629999Y9449999D02*
X1940001Y9140002D01*
X1629999Y9449999D02*
Y9500001D01*
X1317498Y9700001D02*
X1587500D01*
X1005002Y9392498D02*
Y9552503D01*
X1007501Y9555002D01*
X845002Y9389999D02*
Y9392498D01*
Y9389999D02*
X885002Y9349999D01*
X887501D01*
X997499Y9240002D01*
X1070000D01*
X1587500Y9540001D02*
X1589999D01*
X1629999Y9500001D01*
X3965001Y8020004D02*
Y8105003D01*
X4080002Y8219999D01*
X4440001D01*
X4189999Y5770001D02*
X4217203Y5742798D01*
X4089903Y5870097D02*
X4189999Y5770001D01*
X3010002Y5610001D02*
X3035036Y5635036D01*
X3040868Y5693146D02*
X3042310Y5694589D01*
X3040868Y5640868D02*
Y5693146D01*
X3035036Y5635036D02*
X3040868Y5640868D01*
X2898663Y5761899D02*
X2975000D01*
X2886766Y5750001D02*
X2898663Y5761899D01*
X2879999Y5750001D02*
X2886766D01*
X2883652Y5816351D02*
X2971348D01*
X2879999Y5819999D02*
X2883652Y5816351D01*
X2971348D02*
X2975000Y5812699D01*
X2232497Y7520000D02*
X2389998D01*
X3192353Y6187166D02*
X3194710Y6184809D01*
X3192353Y6187166D02*
Y6277646D01*
X3190001Y6279998D02*
X3192353Y6277646D01*
X3037500Y6179998D02*
X3042310Y6184809D01*
X2990002Y6179998D02*
X3037500D01*
X2972852Y5912150D02*
X2975000Y5914299D01*
X2882148Y5912150D02*
X2972852D01*
X2879999Y5910001D02*
X2882148Y5912150D01*
X3042310Y6184809D02*
Y6212749D01*
X2919999Y6335060D02*
X3042310Y6212749D01*
X2919999Y6335060D02*
Y6452499D01*
X3042310Y6184809D02*
X3093110D01*
X3137611Y6409700D02*
Y6582202D01*
X3143910Y6184809D02*
Y6403401D01*
X3137611Y6409700D02*
X3143910Y6403401D01*
Y5694589D02*
X3146953Y5691546D01*
Y5603047D02*
Y5691546D01*
Y5603047D02*
X3150001Y5599999D01*
X3313400Y5581528D02*
Y5594807D01*
X3347110Y5628523D01*
X3312389Y5580522D02*
X3313400Y5581528D01*
X3256437Y5561772D02*
Y5568533D01*
X3282432Y5609199D02*
X3296310Y5623077D01*
X3282432Y5594533D02*
Y5609199D01*
X3256437Y5568533D02*
X3282432Y5594533D01*
X3312389Y5546390D02*
Y5580522D01*
X3245510Y5631449D02*
Y5694589D01*
X3230001Y5615940D02*
X3245510Y5631449D01*
X3230001Y5610001D02*
Y5615940D01*
X3307608Y5541609D02*
X3312389Y5546390D01*
X3296310Y5623077D02*
Y5694589D01*
X3347110Y5628523D02*
Y5694589D01*
X3745108Y6049701D02*
X3785108Y6089701D01*
X3731931Y6049701D02*
X3745108D01*
X3679429Y5997199D02*
X3731931Y6049701D01*
X3560790Y5997199D02*
X3679429D01*
X3507146Y6021100D02*
X3545180D01*
X3465220Y6015899D02*
X3470422Y6021100D01*
X3507146D01*
X3545180Y6012810D02*
Y6021100D01*
Y6012810D02*
X3560790Y5997199D01*
X3614405Y6061497D02*
X3620110Y6067201D01*
X3470422Y6061497D02*
X3614405D01*
X3465220Y6066699D02*
X3470422Y6061497D01*
X3990162Y6179698D02*
X4274861Y6464402D01*
X4468307D02*
X4687809Y6244900D01*
X3836396Y6139302D02*
X4006896D01*
X4291594Y6424000D01*
X4304020D01*
X4356120Y6371900D01*
X4370309D01*
X4274861Y6464402D02*
X4468307D01*
X3673287Y6107201D02*
X3745789Y6179698D01*
X3827607Y6130514D02*
X3836396Y6139302D01*
X3745789Y6179698D02*
X3990162D01*
X3787607Y6089701D02*
X3827607Y6129701D01*
X3785108Y6089701D02*
X3787607D01*
X3620110Y6067201D02*
X3660110Y6107201D01*
X3827607Y6129701D02*
Y6130514D01*
X3660110Y6107201D02*
X3673287D01*
X3597808Y5919500D02*
X3625108Y5892201D01*
X3507146Y5919500D02*
X3597808D01*
X3470422D02*
X3507146D01*
X3465220Y5914299D02*
X3470422Y5919500D01*
X3689066Y5957565D02*
X3744742D01*
X3684427Y5962203D02*
X3689066Y5957565D01*
X3744742D02*
X3782609Y5919699D01*
X3545180Y5959897D02*
X3547481Y5962203D01*
X3684427D01*
X3470422Y5959897D02*
X3545180D01*
X3465220Y5965099D02*
X3470422Y5959897D01*
X4461342Y5702402D02*
X4532630Y5631114D01*
Y5618688D02*
Y5631114D01*
X4523842Y5609900D02*
X4532630Y5618688D01*
X4573031Y5597677D02*
X4687809Y5482900D01*
X4073169Y5829701D02*
X4200464Y5702402D01*
X4461342D01*
X4217203Y5742798D02*
X4478076D01*
X4573031Y5647847D01*
Y5597677D02*
Y5647847D01*
X4370309Y5609900D02*
X4523842D01*
X3625108Y5892201D02*
X3656833Y5860476D01*
X3785108Y5919699D02*
X3825108Y5879699D01*
X3712515Y5860476D02*
X3743289Y5829701D01*
X4073169D01*
X3833896Y5870097D02*
X4089903D01*
X3656833Y5860476D02*
X3712515D01*
X3782609Y5919699D02*
X3785108D01*
X3825108Y5878886D02*
Y5879699D01*
Y5878886D02*
X3833896Y5870097D01*
D50*
X4629998Y2229998D02*
Y2560000D01*
Y1407160D02*
Y2229998D01*
X4970998Y2247001D02*
X4986000Y2262002D01*
X4647001Y2247001D02*
X4970998D01*
X4629998Y2229998D02*
X4647001Y2247001D01*
X5692501Y1213998D02*
X5699999D01*
X4823160D02*
X5692501D01*
X5280000Y801502D02*
X5692501Y1213998D01*
X5280000Y539999D02*
Y801502D01*
Y539999D02*
X5419999Y399999D01*
X5599999D01*
X4629998Y1407160D02*
X4823160Y1213998D01*
X4629998Y2560000D02*
X4800001Y2730002D01*
X5496296D01*
X5692501Y2926202D02*
X5699999D01*
X5496296Y2730002D02*
X5692501Y2926202D01*
X5699999Y1834002D02*
Y2306198D01*
X4986000Y1754002D02*
X5612501D01*
X5692501Y1834002D01*
X5699999D01*
D51*
X1382502Y5887898D02*
Y6042899D01*
D52*
X412501Y7504999D02*
D03*
Y7304999D02*
D03*
Y7105000D02*
D03*
X5599999Y599999D02*
D03*
X5685003Y7712502D02*
D03*
Y7512502D02*
D03*
X4687809Y5736900D02*
D03*
X4370309Y6117900D02*
D03*
X419999Y5040000D02*
D03*
X4370309Y6371900D02*
D03*
X4687809Y5482900D02*
D03*
Y6244900D02*
D03*
X4370309Y5609900D02*
D03*
Y5863900D02*
D03*
X4687809Y5990900D02*
D03*
D53*
X412501Y7704999D02*
D03*
X5599999Y399999D02*
D03*
X5685003Y7312497D02*
D03*
X419999Y5240000D02*
D03*
D54*
X5000000Y2999999D02*
D03*
X999998D02*
D03*
X5000000Y7000001D02*
D03*
X999998D02*
D03*
D55*
X5005309Y6689400D02*
D03*
Y5165400D02*
D03*
D56*
X5627502Y8585002D02*
D03*
Y8834999D02*
D03*
Y9085001D02*
D03*
D57*
Y8335000D02*
D03*
D58*
X5322809Y5355900D02*
D03*
Y6498900D02*
D03*
D59*
X5640309Y5546400D02*
D03*
Y6562400D02*
D03*
X5830809Y5292400D02*
D03*
Y6308400D02*
D03*
D60*
X414000Y2516002D02*
D03*
Y484002D02*
D03*
Y1500002D02*
D03*
X4986000Y738002D02*
D03*
Y2262002D02*
D03*
Y1754002D02*
D03*
D61*
X5087620Y9507220D02*
D03*
X3271520Y9448800D02*
D03*
X2850002Y7700000D02*
D03*
X2387498Y7950002D02*
D03*
X4279997Y8837503D02*
D03*
X4540006Y8577499D02*
D03*
X2591481Y5730296D02*
D03*
X2480000Y5959998D02*
D03*
X3359323Y5799821D02*
D03*
X3430001Y6869999D02*
D03*
X3039999Y6749999D02*
D03*
X3330001Y6720002D02*
D03*
X3290001Y5870001D02*
D03*
X3360110Y5939699D02*
D03*
X3290001Y6010001D02*
D03*
X3360110Y6079698D02*
D03*
X3220110D02*
D03*
X2990002Y6700002D02*
D03*
X3880002Y6749999D02*
D03*
X3874999Y6580002D02*
D03*
X403753Y8545002D02*
D03*
Y9194998D02*
D03*
X1162502Y9627499D02*
D03*
X2427498Y9752498D02*
D03*
X3492500D02*
D03*
X4540001Y8707501D02*
D03*
X4475002Y8642497D02*
D03*
X4409999Y8837503D02*
D03*
X4540001D02*
D03*
X4279997Y8707501D02*
D03*
X4410004Y8577499D02*
D03*
X4279997D02*
D03*
X4344995Y8772505D02*
D03*
X4475002Y8772500D02*
D03*
X4345000Y8642497D02*
D03*
X4409999Y8707501D02*
D03*
X3079323Y5939820D02*
D03*
X3150001Y6010001D02*
D03*
X3219323Y5799821D02*
D03*
X3079323D02*
D03*
X3080111Y6079698D02*
D03*
X3150001Y5870001D02*
D03*
X3220110Y5939699D02*
D03*
X1649999Y6500002D02*
D03*
X1510000Y6070001D02*
D03*
X4209999Y3330001D02*
D03*
X4649998Y8477499D02*
D03*
X4645000Y8932499D02*
D03*
D62*
X530001Y9010000D02*
D03*
X2630002Y9489999D02*
D03*
X2692502Y9060002D02*
D03*
X2607498Y8670000D02*
D03*
Y8590001D02*
D03*
X2600000Y9171249D02*
D03*
X2730002Y9469999D02*
D03*
X2530003Y9489999D02*
D03*
X1800001Y8450001D02*
D03*
X1880001Y8230001D02*
D03*
X5110002Y7680000D02*
D03*
X1460002Y6720002D02*
D03*
X3259999Y6279998D02*
D03*
X3348553Y6288557D02*
D03*
X3480460Y6200049D02*
D03*
X3890000Y6410000D02*
D03*
X4200002Y8930000D02*
D03*
X4000002Y8699998D02*
D03*
X4549999Y9060002D02*
D03*
X4309999Y8370001D02*
D03*
X4460001Y8359999D02*
D03*
X3920002Y8599998D02*
D03*
X4071818Y8658179D02*
D03*
X3990000Y8299999D02*
D03*
X4069999Y8530001D02*
D03*
X1940001Y9140002D02*
D03*
X1070000Y9240002D02*
D03*
X3010002Y5610001D02*
D03*
X2879999Y5750001D02*
D03*
Y5819999D02*
D03*
X2389998Y7520000D02*
D03*
X3190001Y6279998D02*
D03*
X2990002Y6179998D02*
D03*
X2879999Y5910001D02*
D03*
X3150001Y5599999D02*
D03*
X3230001Y5610001D02*
D03*
X3256437Y5561772D02*
D03*
X3307608Y5541609D02*
D03*
X2879999Y6019998D02*
D03*
Y6099998D02*
D03*
D63*
X999998Y6239998D02*
D03*
X1490000Y8350001D02*
D03*
Y8417499D02*
D03*
X2157486Y8819987D02*
D03*
X3619998Y8647501D02*
D03*
X2252502Y6174999D02*
D03*
Y6310000D02*
D03*
Y6242502D02*
D03*
X1760002Y6857502D02*
D03*
X1490000Y7127499D02*
D03*
Y7060001D02*
D03*
Y6992498D02*
D03*
Y8282498D02*
D03*
X1625001Y6857502D02*
D03*
X1692499D02*
D03*
X3619998Y8745002D02*
D03*
Y8677499D02*
D03*
X2117501Y8777498D02*
D03*
X839998Y4347500D02*
D03*
X760415D02*
D03*
X680832D02*
D03*
X601248D02*
D03*
X521665D02*
D03*
X442082D02*
D03*
X362499D02*
D03*
X1805000Y6159998D02*
D03*
D64*
X1580002Y5399999D02*
D03*
X1869999D02*
D03*
X1727500Y5404805D02*
D03*
X4040002Y9429999D02*
D03*
X4989998Y3350001D02*
D03*
X2899999Y3059999D02*
D03*
X1240003D02*
D03*
X1856669Y4106667D02*
D03*
X2153331D02*
D03*
Y4403334D02*
D03*
X2301667Y4254998D02*
D03*
X1708333D02*
D03*
Y4551665D02*
D03*
Y3958331D02*
D03*
X2005000Y4551665D02*
D03*
Y4254998D02*
D03*
Y3958331D02*
D03*
X2301667Y4551665D02*
D03*
Y3958331D02*
D03*
X1856669Y4700001D02*
D03*
X2153331D02*
D03*
X2449998D02*
D03*
X1856669Y4403334D02*
D03*
X2449998D02*
D03*
Y4106667D02*
D03*
X1856669Y3810000D02*
D03*
X2153331D02*
D03*
X2449998D02*
D03*
X1560002D02*
D03*
Y4106667D02*
D03*
Y4403334D02*
D03*
Y4700001D02*
D03*
X4555002Y7792502D02*
D03*
X5267498Y8962502D02*
D03*
X5282499Y8457499D02*
D03*
X4229999Y7964998D02*
D03*
X4567499Y9767499D02*
D03*
D65*
X1083884Y5238181D02*
D03*
X4653879Y4408180D02*
D03*
X3450001Y3290001D02*
D03*
X5480497Y4092986D02*
D03*
%TF.MD5,761cb5401ac373af44aec05e3280a767*%
M02*
