M48
;Layer_Color=9474304
;FILE_FORMAT=4:4
METRIC,LZ
;TYPE=PLATED
T1F00S00C0.2000
T2F00S00C0.3000
T3F00S00C0.7112
;TYPE=NON_PLATED
%
T01
X00511Y00768
X00389Y00641
X00348046Y00620005
X00334855Y00628856
X00326Y00628
X00146Y00672
X00188Y00823
X0018Y00845
X00194Y00914
X0026925Y00906
X0026075Y00867
Y00859
X00253Y00949
X00107Y00924
X00053Y00901
X0042Y00893
X00407182Y00865818
X004Y0087
X00399Y0083
X00431Y00837
X00446Y00836
T02
X00421Y00333
X00335932Y00579982
X00329Y00587
X00322011Y0059397
X00315Y00587
X00321932Y00579982
X00307932
Y00593982
X00308011Y0060797
X00315Y00601
X00322011Y0060797
X00329Y00601
X00336011Y0060797
Y0059397
X00333Y00672
X00304Y00675
X00299Y0067
X003875Y00658
X00248Y00596
X00259148Y0057303
X00151Y00607
X00165Y0065
X00285Y0077
X00084Y0043475
X00076041
X00068083
X00060125
X00052167
X00044208
X0003625
X00040375Y008545
Y009195
X0011625Y0096275
X0024275Y0097525
X0034925
X0023875Y00795
X00428Y0085775
Y0087075
Y0088375
X004345Y00877251
X00441Y0088375
X00454
Y0087075
X004475Y0087725
Y0086425
X00441Y0085775
X00454001
X004345Y0086425
X00441Y0087075
T03
X00124Y00306
X00156Y00381
X00170833Y00395833
X002005
X00185667Y00381
X00215333
X00230167Y00395833
X00245Y00381
X0029Y00306
X00499Y00335
X004555Y0077925
X00187Y0054
X0017275Y0054048
X00158Y0054
X00156Y0047
X00170833Y00455167
X00156Y00440333
X00170833Y004255
X00156Y00410667
X00185667
X00215333
X002005Y004255
X00215333Y00440333
X002005Y00455167
X00185667Y00440333
Y0047
X00215333
X00245
X00230167Y00455167
X00245Y00440333
X00230167Y004255
X00245Y00410667
X00404Y00943
X0052675Y0089625
X0052825Y0084575
M30
